M48
; DRILL file {KiCad 8.0.2} date 2024-11-06T18:53:02+0100
; FORMAT={-:-/ absolute / inch / decimal}
; #@! TF.CreationDate,2024-11-06T18:53:02+01:00
; #@! TF.GenerationSoftware,Kicad,Pcbnew,8.0.2
; #@! TF.FileFunction,Plated,1,2,PTH
FMAT,2
INCH
; #@! TA.AperFunction,Plated,PTH,ComponentDrill
T1C0.0300
; #@! TA.AperFunction,Plated,PTH,ComponentDrill
T2C0.0315
; #@! TA.AperFunction,Plated,PTH,ComponentDrill
T3C0.0354
; #@! TA.AperFunction,Plated,PTH,ComponentDrill
T4C0.0394
; #@! TA.AperFunction,Plated,PTH,ComponentDrill
T5C0.0433
%
G90
G05
T1
X4.2402Y-4.0335
X4.3402Y-4.0335
X4.4402Y-4.0335
X4.5402Y-4.0335
X4.6402Y-4.0335
X4.7402Y-4.0335
X4.8402Y-4.0335
T2
X3.9055Y-4.6457
X3.9055Y-5.0457
X4.0787Y-4.6457
X4.0787Y-5.0457
X4.1535Y-4.1488
X4.1535Y-4.4488
X4.252Y-4.6457
X4.252Y-5.0457
X4.2535Y-4.1488
X4.2535Y-4.4488
X4.3535Y-4.1488
X4.3535Y-4.4488
X4.4535Y-4.1488
X4.4535Y-4.4488
T3
X5.0984Y-4.8337
X5.0984Y-4.9337
T4
X4.8917Y-4.3012
X4.8917Y-4.6004
T5
X4.4094Y-4.7933
X4.4094Y-4.9705
X4.6654Y-4.7933
X4.6654Y-4.9705
M30
