%TF.GenerationSoftware,KiCad,Pcbnew,8.0.2*%
%TF.CreationDate,2024-11-10T18:03:59+01:00*%
%TF.ProjectId,ISP programmer Arduino Nano every,49535020-7072-46f6-9772-616d6d657220,rev?*%
%TF.SameCoordinates,Original*%
%TF.FileFunction,Copper,L2,Bot*%
%TF.FilePolarity,Positive*%
%FSLAX46Y46*%
G04 Gerber Fmt 4.6, Leading zero omitted, Abs format (unit mm)*
G04 Created by KiCad (PCBNEW 8.0.2) date 2024-11-10 18:03:59*
%MOMM*%
%LPD*%
G01*
G04 APERTURE LIST*
%ADD10C,0.500000*%
%TA.AperFunction,NonConductor*%
%ADD11C,0.500000*%
%TD*%
%ADD12C,0.300000*%
%TA.AperFunction,NonConductor*%
%ADD13C,0.300000*%
%TD*%
%TA.AperFunction,ComponentPad*%
%ADD14R,1.200000X1.200000*%
%TD*%
%TA.AperFunction,ComponentPad*%
%ADD15C,1.200000*%
%TD*%
%TA.AperFunction,ComponentPad*%
%ADD16C,1.524000*%
%TD*%
%TA.AperFunction,ComponentPad*%
%ADD17R,1.600000X1.600000*%
%TD*%
%TA.AperFunction,ComponentPad*%
%ADD18O,1.600000X1.600000*%
%TD*%
%TA.AperFunction,Conductor*%
%ADD19C,0.300000*%
%TD*%
G04 APERTURE END LIST*
D10*
D11*
X146606857Y-86114661D02*
X149606857Y-87114661D01*
X149606857Y-87114661D02*
X146606857Y-88114661D01*
X149606857Y-90686090D02*
X149606857Y-88971804D01*
X149606857Y-89828947D02*
X146606857Y-89828947D01*
X146606857Y-89828947D02*
X147035428Y-89543233D01*
X147035428Y-89543233D02*
X147321142Y-89257518D01*
X147321142Y-89257518D02*
X147464000Y-88971804D01*
X149321142Y-91971804D02*
X149464000Y-92114661D01*
X149464000Y-92114661D02*
X149606857Y-91971804D01*
X149606857Y-91971804D02*
X149464000Y-91828947D01*
X149464000Y-91828947D02*
X149321142Y-91971804D01*
X149321142Y-91971804D02*
X149606857Y-91971804D01*
X146606857Y-93971804D02*
X146606857Y-94257518D01*
X146606857Y-94257518D02*
X146749714Y-94543232D01*
X146749714Y-94543232D02*
X146892571Y-94686090D01*
X146892571Y-94686090D02*
X147178285Y-94828947D01*
X147178285Y-94828947D02*
X147749714Y-94971804D01*
X147749714Y-94971804D02*
X148464000Y-94971804D01*
X148464000Y-94971804D02*
X149035428Y-94828947D01*
X149035428Y-94828947D02*
X149321142Y-94686090D01*
X149321142Y-94686090D02*
X149464000Y-94543232D01*
X149464000Y-94543232D02*
X149606857Y-94257518D01*
X149606857Y-94257518D02*
X149606857Y-93971804D01*
X149606857Y-93971804D02*
X149464000Y-93686090D01*
X149464000Y-93686090D02*
X149321142Y-93543232D01*
X149321142Y-93543232D02*
X149035428Y-93400375D01*
X149035428Y-93400375D02*
X148464000Y-93257518D01*
X148464000Y-93257518D02*
X147749714Y-93257518D01*
X147749714Y-93257518D02*
X147178285Y-93400375D01*
X147178285Y-93400375D02*
X146892571Y-93543232D01*
X146892571Y-93543232D02*
X146749714Y-93686090D01*
X146749714Y-93686090D02*
X146606857Y-93971804D01*
D12*
D13*
X146009310Y-58809107D02*
X144509310Y-58809107D01*
X145937882Y-59451965D02*
X146009310Y-59666251D01*
X146009310Y-59666251D02*
X146009310Y-60023393D01*
X146009310Y-60023393D02*
X145937882Y-60166251D01*
X145937882Y-60166251D02*
X145866453Y-60237679D01*
X145866453Y-60237679D02*
X145723596Y-60309108D01*
X145723596Y-60309108D02*
X145580739Y-60309108D01*
X145580739Y-60309108D02*
X145437882Y-60237679D01*
X145437882Y-60237679D02*
X145366453Y-60166251D01*
X145366453Y-60166251D02*
X145295024Y-60023393D01*
X145295024Y-60023393D02*
X145223596Y-59737679D01*
X145223596Y-59737679D02*
X145152167Y-59594822D01*
X145152167Y-59594822D02*
X145080739Y-59523393D01*
X145080739Y-59523393D02*
X144937882Y-59451965D01*
X144937882Y-59451965D02*
X144795024Y-59451965D01*
X144795024Y-59451965D02*
X144652167Y-59523393D01*
X144652167Y-59523393D02*
X144580739Y-59594822D01*
X144580739Y-59594822D02*
X144509310Y-59737679D01*
X144509310Y-59737679D02*
X144509310Y-60094822D01*
X144509310Y-60094822D02*
X144580739Y-60309108D01*
X146009310Y-60951964D02*
X144509310Y-60951964D01*
X144509310Y-60951964D02*
X144509310Y-61523393D01*
X144509310Y-61523393D02*
X144580739Y-61666250D01*
X144580739Y-61666250D02*
X144652167Y-61737679D01*
X144652167Y-61737679D02*
X144795024Y-61809107D01*
X144795024Y-61809107D02*
X145009310Y-61809107D01*
X145009310Y-61809107D02*
X145152167Y-61737679D01*
X145152167Y-61737679D02*
X145223596Y-61666250D01*
X145223596Y-61666250D02*
X145295024Y-61523393D01*
X145295024Y-61523393D02*
X145295024Y-60951964D01*
X146009310Y-63594821D02*
X144509310Y-63594821D01*
X144509310Y-63594821D02*
X144509310Y-64166250D01*
X144509310Y-64166250D02*
X144580739Y-64309107D01*
X144580739Y-64309107D02*
X144652167Y-64380536D01*
X144652167Y-64380536D02*
X144795024Y-64451964D01*
X144795024Y-64451964D02*
X145009310Y-64451964D01*
X145009310Y-64451964D02*
X145152167Y-64380536D01*
X145152167Y-64380536D02*
X145223596Y-64309107D01*
X145223596Y-64309107D02*
X145295024Y-64166250D01*
X145295024Y-64166250D02*
X145295024Y-63594821D01*
X146009310Y-65094821D02*
X145009310Y-65094821D01*
X145295024Y-65094821D02*
X145152167Y-65166250D01*
X145152167Y-65166250D02*
X145080739Y-65237679D01*
X145080739Y-65237679D02*
X145009310Y-65380536D01*
X145009310Y-65380536D02*
X145009310Y-65523393D01*
X146009310Y-66237678D02*
X145937882Y-66094821D01*
X145937882Y-66094821D02*
X145866453Y-66023392D01*
X145866453Y-66023392D02*
X145723596Y-65951964D01*
X145723596Y-65951964D02*
X145295024Y-65951964D01*
X145295024Y-65951964D02*
X145152167Y-66023392D01*
X145152167Y-66023392D02*
X145080739Y-66094821D01*
X145080739Y-66094821D02*
X145009310Y-66237678D01*
X145009310Y-66237678D02*
X145009310Y-66451964D01*
X145009310Y-66451964D02*
X145080739Y-66594821D01*
X145080739Y-66594821D02*
X145152167Y-66666250D01*
X145152167Y-66666250D02*
X145295024Y-66737678D01*
X145295024Y-66737678D02*
X145723596Y-66737678D01*
X145723596Y-66737678D02*
X145866453Y-66666250D01*
X145866453Y-66666250D02*
X145937882Y-66594821D01*
X145937882Y-66594821D02*
X146009310Y-66451964D01*
X146009310Y-66451964D02*
X146009310Y-66237678D01*
X145009310Y-68023393D02*
X146223596Y-68023393D01*
X146223596Y-68023393D02*
X146366453Y-67951964D01*
X146366453Y-67951964D02*
X146437882Y-67880535D01*
X146437882Y-67880535D02*
X146509310Y-67737678D01*
X146509310Y-67737678D02*
X146509310Y-67523393D01*
X146509310Y-67523393D02*
X146437882Y-67380535D01*
X145937882Y-68023393D02*
X146009310Y-67880535D01*
X146009310Y-67880535D02*
X146009310Y-67594821D01*
X146009310Y-67594821D02*
X145937882Y-67451964D01*
X145937882Y-67451964D02*
X145866453Y-67380535D01*
X145866453Y-67380535D02*
X145723596Y-67309107D01*
X145723596Y-67309107D02*
X145295024Y-67309107D01*
X145295024Y-67309107D02*
X145152167Y-67380535D01*
X145152167Y-67380535D02*
X145080739Y-67451964D01*
X145080739Y-67451964D02*
X145009310Y-67594821D01*
X145009310Y-67594821D02*
X145009310Y-67880535D01*
X145009310Y-67880535D02*
X145080739Y-68023393D01*
X146009310Y-68737678D02*
X145009310Y-68737678D01*
X145295024Y-68737678D02*
X145152167Y-68809107D01*
X145152167Y-68809107D02*
X145080739Y-68880536D01*
X145080739Y-68880536D02*
X145009310Y-69023393D01*
X145009310Y-69023393D02*
X145009310Y-69166250D01*
X146009310Y-70309107D02*
X145223596Y-70309107D01*
X145223596Y-70309107D02*
X145080739Y-70237678D01*
X145080739Y-70237678D02*
X145009310Y-70094821D01*
X145009310Y-70094821D02*
X145009310Y-69809107D01*
X145009310Y-69809107D02*
X145080739Y-69666249D01*
X145937882Y-70309107D02*
X146009310Y-70166249D01*
X146009310Y-70166249D02*
X146009310Y-69809107D01*
X146009310Y-69809107D02*
X145937882Y-69666249D01*
X145937882Y-69666249D02*
X145795024Y-69594821D01*
X145795024Y-69594821D02*
X145652167Y-69594821D01*
X145652167Y-69594821D02*
X145509310Y-69666249D01*
X145509310Y-69666249D02*
X145437882Y-69809107D01*
X145437882Y-69809107D02*
X145437882Y-70166249D01*
X145437882Y-70166249D02*
X145366453Y-70309107D01*
X146009310Y-71023392D02*
X145009310Y-71023392D01*
X145152167Y-71023392D02*
X145080739Y-71094821D01*
X145080739Y-71094821D02*
X145009310Y-71237678D01*
X145009310Y-71237678D02*
X145009310Y-71451964D01*
X145009310Y-71451964D02*
X145080739Y-71594821D01*
X145080739Y-71594821D02*
X145223596Y-71666250D01*
X145223596Y-71666250D02*
X146009310Y-71666250D01*
X145223596Y-71666250D02*
X145080739Y-71737678D01*
X145080739Y-71737678D02*
X145009310Y-71880535D01*
X145009310Y-71880535D02*
X145009310Y-72094821D01*
X145009310Y-72094821D02*
X145080739Y-72237678D01*
X145080739Y-72237678D02*
X145223596Y-72309107D01*
X145223596Y-72309107D02*
X146009310Y-72309107D01*
X146009310Y-73023392D02*
X145009310Y-73023392D01*
X145152167Y-73023392D02*
X145080739Y-73094821D01*
X145080739Y-73094821D02*
X145009310Y-73237678D01*
X145009310Y-73237678D02*
X145009310Y-73451964D01*
X145009310Y-73451964D02*
X145080739Y-73594821D01*
X145080739Y-73594821D02*
X145223596Y-73666250D01*
X145223596Y-73666250D02*
X146009310Y-73666250D01*
X145223596Y-73666250D02*
X145080739Y-73737678D01*
X145080739Y-73737678D02*
X145009310Y-73880535D01*
X145009310Y-73880535D02*
X145009310Y-74094821D01*
X145009310Y-74094821D02*
X145080739Y-74237678D01*
X145080739Y-74237678D02*
X145223596Y-74309107D01*
X145223596Y-74309107D02*
X146009310Y-74309107D01*
X145937882Y-75594821D02*
X146009310Y-75451964D01*
X146009310Y-75451964D02*
X146009310Y-75166250D01*
X146009310Y-75166250D02*
X145937882Y-75023392D01*
X145937882Y-75023392D02*
X145795024Y-74951964D01*
X145795024Y-74951964D02*
X145223596Y-74951964D01*
X145223596Y-74951964D02*
X145080739Y-75023392D01*
X145080739Y-75023392D02*
X145009310Y-75166250D01*
X145009310Y-75166250D02*
X145009310Y-75451964D01*
X145009310Y-75451964D02*
X145080739Y-75594821D01*
X145080739Y-75594821D02*
X145223596Y-75666250D01*
X145223596Y-75666250D02*
X145366453Y-75666250D01*
X145366453Y-75666250D02*
X145509310Y-74951964D01*
X146009310Y-76309106D02*
X145009310Y-76309106D01*
X145295024Y-76309106D02*
X145152167Y-76380535D01*
X145152167Y-76380535D02*
X145080739Y-76451964D01*
X145080739Y-76451964D02*
X145009310Y-76594821D01*
X145009310Y-76594821D02*
X145009310Y-76737678D01*
X148995655Y-59237679D02*
X148924226Y-59166250D01*
X148924226Y-59166250D02*
X148709940Y-59023393D01*
X148709940Y-59023393D02*
X148567083Y-58951965D01*
X148567083Y-58951965D02*
X148352798Y-58880536D01*
X148352798Y-58880536D02*
X147995655Y-58809107D01*
X147995655Y-58809107D02*
X147709940Y-58809107D01*
X147709940Y-58809107D02*
X147352798Y-58880536D01*
X147352798Y-58880536D02*
X147138512Y-58951965D01*
X147138512Y-58951965D02*
X146995655Y-59023393D01*
X146995655Y-59023393D02*
X146781369Y-59166250D01*
X146781369Y-59166250D02*
X146709940Y-59237679D01*
X147995655Y-59737679D02*
X147995655Y-60451965D01*
X148424226Y-59594822D02*
X146924226Y-60094822D01*
X146924226Y-60094822D02*
X148424226Y-60594822D01*
X148424226Y-61094821D02*
X147424226Y-61094821D01*
X147709940Y-61094821D02*
X147567083Y-61166250D01*
X147567083Y-61166250D02*
X147495655Y-61237679D01*
X147495655Y-61237679D02*
X147424226Y-61380536D01*
X147424226Y-61380536D02*
X147424226Y-61523393D01*
X148424226Y-62666250D02*
X146924226Y-62666250D01*
X148352798Y-62666250D02*
X148424226Y-62523392D01*
X148424226Y-62523392D02*
X148424226Y-62237678D01*
X148424226Y-62237678D02*
X148352798Y-62094821D01*
X148352798Y-62094821D02*
X148281369Y-62023392D01*
X148281369Y-62023392D02*
X148138512Y-61951964D01*
X148138512Y-61951964D02*
X147709940Y-61951964D01*
X147709940Y-61951964D02*
X147567083Y-62023392D01*
X147567083Y-62023392D02*
X147495655Y-62094821D01*
X147495655Y-62094821D02*
X147424226Y-62237678D01*
X147424226Y-62237678D02*
X147424226Y-62523392D01*
X147424226Y-62523392D02*
X147495655Y-62666250D01*
X147424226Y-64023393D02*
X148424226Y-64023393D01*
X147424226Y-63380535D02*
X148209940Y-63380535D01*
X148209940Y-63380535D02*
X148352798Y-63451964D01*
X148352798Y-63451964D02*
X148424226Y-63594821D01*
X148424226Y-63594821D02*
X148424226Y-63809107D01*
X148424226Y-63809107D02*
X148352798Y-63951964D01*
X148352798Y-63951964D02*
X148281369Y-64023393D01*
X148424226Y-64737678D02*
X147424226Y-64737678D01*
X146924226Y-64737678D02*
X146995655Y-64666250D01*
X146995655Y-64666250D02*
X147067083Y-64737678D01*
X147067083Y-64737678D02*
X146995655Y-64809107D01*
X146995655Y-64809107D02*
X146924226Y-64737678D01*
X146924226Y-64737678D02*
X147067083Y-64737678D01*
X147424226Y-65451964D02*
X148424226Y-65451964D01*
X147567083Y-65451964D02*
X147495655Y-65523393D01*
X147495655Y-65523393D02*
X147424226Y-65666250D01*
X147424226Y-65666250D02*
X147424226Y-65880536D01*
X147424226Y-65880536D02*
X147495655Y-66023393D01*
X147495655Y-66023393D02*
X147638512Y-66094822D01*
X147638512Y-66094822D02*
X148424226Y-66094822D01*
X148424226Y-67023393D02*
X148352798Y-66880536D01*
X148352798Y-66880536D02*
X148281369Y-66809107D01*
X148281369Y-66809107D02*
X148138512Y-66737679D01*
X148138512Y-66737679D02*
X147709940Y-66737679D01*
X147709940Y-66737679D02*
X147567083Y-66809107D01*
X147567083Y-66809107D02*
X147495655Y-66880536D01*
X147495655Y-66880536D02*
X147424226Y-67023393D01*
X147424226Y-67023393D02*
X147424226Y-67237679D01*
X147424226Y-67237679D02*
X147495655Y-67380536D01*
X147495655Y-67380536D02*
X147567083Y-67451965D01*
X147567083Y-67451965D02*
X147709940Y-67523393D01*
X147709940Y-67523393D02*
X148138512Y-67523393D01*
X148138512Y-67523393D02*
X148281369Y-67451965D01*
X148281369Y-67451965D02*
X148352798Y-67380536D01*
X148352798Y-67380536D02*
X148424226Y-67237679D01*
X148424226Y-67237679D02*
X148424226Y-67023393D01*
X148424226Y-69309107D02*
X146924226Y-69309107D01*
X146924226Y-69309107D02*
X148424226Y-70166250D01*
X148424226Y-70166250D02*
X146924226Y-70166250D01*
X148424226Y-71523394D02*
X147638512Y-71523394D01*
X147638512Y-71523394D02*
X147495655Y-71451965D01*
X147495655Y-71451965D02*
X147424226Y-71309108D01*
X147424226Y-71309108D02*
X147424226Y-71023394D01*
X147424226Y-71023394D02*
X147495655Y-70880536D01*
X148352798Y-71523394D02*
X148424226Y-71380536D01*
X148424226Y-71380536D02*
X148424226Y-71023394D01*
X148424226Y-71023394D02*
X148352798Y-70880536D01*
X148352798Y-70880536D02*
X148209940Y-70809108D01*
X148209940Y-70809108D02*
X148067083Y-70809108D01*
X148067083Y-70809108D02*
X147924226Y-70880536D01*
X147924226Y-70880536D02*
X147852798Y-71023394D01*
X147852798Y-71023394D02*
X147852798Y-71380536D01*
X147852798Y-71380536D02*
X147781369Y-71523394D01*
X147424226Y-72237679D02*
X148424226Y-72237679D01*
X147567083Y-72237679D02*
X147495655Y-72309108D01*
X147495655Y-72309108D02*
X147424226Y-72451965D01*
X147424226Y-72451965D02*
X147424226Y-72666251D01*
X147424226Y-72666251D02*
X147495655Y-72809108D01*
X147495655Y-72809108D02*
X147638512Y-72880537D01*
X147638512Y-72880537D02*
X148424226Y-72880537D01*
X148424226Y-73809108D02*
X148352798Y-73666251D01*
X148352798Y-73666251D02*
X148281369Y-73594822D01*
X148281369Y-73594822D02*
X148138512Y-73523394D01*
X148138512Y-73523394D02*
X147709940Y-73523394D01*
X147709940Y-73523394D02*
X147567083Y-73594822D01*
X147567083Y-73594822D02*
X147495655Y-73666251D01*
X147495655Y-73666251D02*
X147424226Y-73809108D01*
X147424226Y-73809108D02*
X147424226Y-74023394D01*
X147424226Y-74023394D02*
X147495655Y-74166251D01*
X147495655Y-74166251D02*
X147567083Y-74237680D01*
X147567083Y-74237680D02*
X147709940Y-74309108D01*
X147709940Y-74309108D02*
X148138512Y-74309108D01*
X148138512Y-74309108D02*
X148281369Y-74237680D01*
X148281369Y-74237680D02*
X148352798Y-74166251D01*
X148352798Y-74166251D02*
X148424226Y-74023394D01*
X148424226Y-74023394D02*
X148424226Y-73809108D01*
X147638512Y-76094822D02*
X147638512Y-76594822D01*
X148424226Y-76809108D02*
X148424226Y-76094822D01*
X148424226Y-76094822D02*
X146924226Y-76094822D01*
X146924226Y-76094822D02*
X146924226Y-76809108D01*
X147424226Y-77309108D02*
X148424226Y-77666251D01*
X148424226Y-77666251D02*
X147424226Y-78023394D01*
X148352798Y-79166251D02*
X148424226Y-79023394D01*
X148424226Y-79023394D02*
X148424226Y-78737680D01*
X148424226Y-78737680D02*
X148352798Y-78594822D01*
X148352798Y-78594822D02*
X148209940Y-78523394D01*
X148209940Y-78523394D02*
X147638512Y-78523394D01*
X147638512Y-78523394D02*
X147495655Y-78594822D01*
X147495655Y-78594822D02*
X147424226Y-78737680D01*
X147424226Y-78737680D02*
X147424226Y-79023394D01*
X147424226Y-79023394D02*
X147495655Y-79166251D01*
X147495655Y-79166251D02*
X147638512Y-79237680D01*
X147638512Y-79237680D02*
X147781369Y-79237680D01*
X147781369Y-79237680D02*
X147924226Y-78523394D01*
X148424226Y-79880536D02*
X147424226Y-79880536D01*
X147709940Y-79880536D02*
X147567083Y-79951965D01*
X147567083Y-79951965D02*
X147495655Y-80023394D01*
X147495655Y-80023394D02*
X147424226Y-80166251D01*
X147424226Y-80166251D02*
X147424226Y-80309108D01*
X147424226Y-80666250D02*
X148424226Y-81023393D01*
X147424226Y-81380536D02*
X148424226Y-81023393D01*
X148424226Y-81023393D02*
X148781369Y-80880536D01*
X148781369Y-80880536D02*
X148852798Y-80809107D01*
X148852798Y-80809107D02*
X148924226Y-80666250D01*
X148995655Y-81809107D02*
X148924226Y-81880536D01*
X148924226Y-81880536D02*
X148709940Y-82023393D01*
X148709940Y-82023393D02*
X148567083Y-82094822D01*
X148567083Y-82094822D02*
X148352798Y-82166250D01*
X148352798Y-82166250D02*
X147995655Y-82237679D01*
X147995655Y-82237679D02*
X147709940Y-82237679D01*
X147709940Y-82237679D02*
X147352798Y-82166250D01*
X147352798Y-82166250D02*
X147138512Y-82094822D01*
X147138512Y-82094822D02*
X146995655Y-82023393D01*
X146995655Y-82023393D02*
X146781369Y-81880536D01*
X146781369Y-81880536D02*
X146709940Y-81809107D01*
X149339142Y-58666250D02*
X150839142Y-59023393D01*
X150839142Y-59023393D02*
X149767714Y-59309107D01*
X149767714Y-59309107D02*
X150839142Y-59594822D01*
X150839142Y-59594822D02*
X149339142Y-59951965D01*
X150767714Y-60451965D02*
X150839142Y-60666251D01*
X150839142Y-60666251D02*
X150839142Y-61023393D01*
X150839142Y-61023393D02*
X150767714Y-61166251D01*
X150767714Y-61166251D02*
X150696285Y-61237679D01*
X150696285Y-61237679D02*
X150553428Y-61309108D01*
X150553428Y-61309108D02*
X150410571Y-61309108D01*
X150410571Y-61309108D02*
X150267714Y-61237679D01*
X150267714Y-61237679D02*
X150196285Y-61166251D01*
X150196285Y-61166251D02*
X150124856Y-61023393D01*
X150124856Y-61023393D02*
X150053428Y-60737679D01*
X150053428Y-60737679D02*
X149981999Y-60594822D01*
X149981999Y-60594822D02*
X149910571Y-60523393D01*
X149910571Y-60523393D02*
X149767714Y-60451965D01*
X149767714Y-60451965D02*
X149624856Y-60451965D01*
X149624856Y-60451965D02*
X149481999Y-60523393D01*
X149481999Y-60523393D02*
X149410571Y-60594822D01*
X149410571Y-60594822D02*
X149339142Y-60737679D01*
X149339142Y-60737679D02*
X149339142Y-61094822D01*
X149339142Y-61094822D02*
X149410571Y-61309108D01*
X149481999Y-61880536D02*
X149410571Y-61951964D01*
X149410571Y-61951964D02*
X149339142Y-62094822D01*
X149339142Y-62094822D02*
X149339142Y-62451964D01*
X149339142Y-62451964D02*
X149410571Y-62594822D01*
X149410571Y-62594822D02*
X149481999Y-62666250D01*
X149481999Y-62666250D02*
X149624856Y-62737679D01*
X149624856Y-62737679D02*
X149767714Y-62737679D01*
X149767714Y-62737679D02*
X149981999Y-62666250D01*
X149981999Y-62666250D02*
X150839142Y-61809107D01*
X150839142Y-61809107D02*
X150839142Y-62737679D01*
X149839142Y-64023393D02*
X150839142Y-64023393D01*
X149267714Y-63666250D02*
X150339142Y-63309107D01*
X150339142Y-63309107D02*
X150339142Y-64237678D01*
X150839142Y-66666249D02*
X150839142Y-65951963D01*
X150839142Y-65951963D02*
X149339142Y-65951963D01*
X149839142Y-67809107D02*
X150839142Y-67809107D01*
X149839142Y-67166249D02*
X150624856Y-67166249D01*
X150624856Y-67166249D02*
X150767714Y-67237678D01*
X150767714Y-67237678D02*
X150839142Y-67380535D01*
X150839142Y-67380535D02*
X150839142Y-67594821D01*
X150839142Y-67594821D02*
X150767714Y-67737678D01*
X150767714Y-67737678D02*
X150696285Y-67809107D01*
X150839142Y-68523392D02*
X149339142Y-68523392D01*
X150267714Y-68666250D02*
X150839142Y-69094821D01*
X149839142Y-69094821D02*
X150410571Y-68523392D01*
X150839142Y-70380536D02*
X150053428Y-70380536D01*
X150053428Y-70380536D02*
X149910571Y-70309107D01*
X149910571Y-70309107D02*
X149839142Y-70166250D01*
X149839142Y-70166250D02*
X149839142Y-69880536D01*
X149839142Y-69880536D02*
X149910571Y-69737678D01*
X150767714Y-70380536D02*
X150839142Y-70237678D01*
X150839142Y-70237678D02*
X150839142Y-69880536D01*
X150839142Y-69880536D02*
X150767714Y-69737678D01*
X150767714Y-69737678D02*
X150624856Y-69666250D01*
X150624856Y-69666250D02*
X150481999Y-69666250D01*
X150481999Y-69666250D02*
X150339142Y-69737678D01*
X150339142Y-69737678D02*
X150267714Y-69880536D01*
X150267714Y-69880536D02*
X150267714Y-70237678D01*
X150267714Y-70237678D02*
X150196285Y-70380536D01*
X150767714Y-71023393D02*
X150839142Y-71166250D01*
X150839142Y-71166250D02*
X150839142Y-71451964D01*
X150839142Y-71451964D02*
X150767714Y-71594821D01*
X150767714Y-71594821D02*
X150624856Y-71666250D01*
X150624856Y-71666250D02*
X150553428Y-71666250D01*
X150553428Y-71666250D02*
X150410571Y-71594821D01*
X150410571Y-71594821D02*
X150339142Y-71451964D01*
X150339142Y-71451964D02*
X150339142Y-71237679D01*
X150339142Y-71237679D02*
X150267714Y-71094821D01*
X150267714Y-71094821D02*
X150124856Y-71023393D01*
X150124856Y-71023393D02*
X150053428Y-71023393D01*
X150053428Y-71023393D02*
X149910571Y-71094821D01*
X149910571Y-71094821D02*
X149839142Y-71237679D01*
X149839142Y-71237679D02*
X149839142Y-71451964D01*
X149839142Y-71451964D02*
X149910571Y-71594821D01*
X150839142Y-73451964D02*
X149339142Y-73451964D01*
X150839142Y-74309107D02*
X149981999Y-73666250D01*
X149339142Y-74309107D02*
X150196285Y-73451964D01*
X150839142Y-74951964D02*
X149839142Y-74951964D01*
X150124856Y-74951964D02*
X149981999Y-75023393D01*
X149981999Y-75023393D02*
X149910571Y-75094822D01*
X149910571Y-75094822D02*
X149839142Y-75237679D01*
X149839142Y-75237679D02*
X149839142Y-75380536D01*
X150839142Y-76523393D02*
X150053428Y-76523393D01*
X150053428Y-76523393D02*
X149910571Y-76451964D01*
X149910571Y-76451964D02*
X149839142Y-76309107D01*
X149839142Y-76309107D02*
X149839142Y-76023393D01*
X149839142Y-76023393D02*
X149910571Y-75880535D01*
X150767714Y-76523393D02*
X150839142Y-76380535D01*
X150839142Y-76380535D02*
X150839142Y-76023393D01*
X150839142Y-76023393D02*
X150767714Y-75880535D01*
X150767714Y-75880535D02*
X150624856Y-75809107D01*
X150624856Y-75809107D02*
X150481999Y-75809107D01*
X150481999Y-75809107D02*
X150339142Y-75880535D01*
X150339142Y-75880535D02*
X150267714Y-76023393D01*
X150267714Y-76023393D02*
X150267714Y-76380535D01*
X150267714Y-76380535D02*
X150196285Y-76523393D01*
X149339142Y-75880535D02*
X149410571Y-75951964D01*
X149410571Y-75951964D02*
X149481999Y-75880535D01*
X149481999Y-75880535D02*
X149410571Y-75809107D01*
X149410571Y-75809107D02*
X149339142Y-75880535D01*
X149339142Y-75880535D02*
X149481999Y-75880535D01*
X149339142Y-76451964D02*
X149410571Y-76523393D01*
X149410571Y-76523393D02*
X149481999Y-76451964D01*
X149481999Y-76451964D02*
X149410571Y-76380535D01*
X149410571Y-76380535D02*
X149339142Y-76451964D01*
X149339142Y-76451964D02*
X149481999Y-76451964D01*
X150839142Y-77237678D02*
X149839142Y-77237678D01*
X149981999Y-77237678D02*
X149910571Y-77309107D01*
X149910571Y-77309107D02*
X149839142Y-77451964D01*
X149839142Y-77451964D02*
X149839142Y-77666250D01*
X149839142Y-77666250D02*
X149910571Y-77809107D01*
X149910571Y-77809107D02*
X150053428Y-77880536D01*
X150053428Y-77880536D02*
X150839142Y-77880536D01*
X150053428Y-77880536D02*
X149910571Y-77951964D01*
X149910571Y-77951964D02*
X149839142Y-78094821D01*
X149839142Y-78094821D02*
X149839142Y-78309107D01*
X149839142Y-78309107D02*
X149910571Y-78451964D01*
X149910571Y-78451964D02*
X150053428Y-78523393D01*
X150053428Y-78523393D02*
X150839142Y-78523393D01*
X150767714Y-79809107D02*
X150839142Y-79666250D01*
X150839142Y-79666250D02*
X150839142Y-79380536D01*
X150839142Y-79380536D02*
X150767714Y-79237678D01*
X150767714Y-79237678D02*
X150624856Y-79166250D01*
X150624856Y-79166250D02*
X150053428Y-79166250D01*
X150053428Y-79166250D02*
X149910571Y-79237678D01*
X149910571Y-79237678D02*
X149839142Y-79380536D01*
X149839142Y-79380536D02*
X149839142Y-79666250D01*
X149839142Y-79666250D02*
X149910571Y-79809107D01*
X149910571Y-79809107D02*
X150053428Y-79880536D01*
X150053428Y-79880536D02*
X150196285Y-79880536D01*
X150196285Y-79880536D02*
X150339142Y-79166250D01*
X150839142Y-80523392D02*
X149839142Y-80523392D01*
X150124856Y-80523392D02*
X149981999Y-80594821D01*
X149981999Y-80594821D02*
X149910571Y-80666250D01*
X149910571Y-80666250D02*
X149839142Y-80809107D01*
X149839142Y-80809107D02*
X149839142Y-80951964D01*
D14*
%TO.P,C1,1*%
%TO.N,Net-(A1-~{RESET}-Pad28)*%
X116000000Y-62500000D03*
D15*
%TO.P,C1,2*%
%TO.N,GND*%
X116000000Y-64500000D03*
%TD*%
D16*
%TO.P,U1,1,ARD10*%
%TO.N,Net-(A1-D10)*%
X116000000Y-73960000D03*
%TO.P,U1,2,ARD13*%
%TO.N,Net-(A1-SCK)*%
X116000000Y-76500000D03*
%TO.P,U1,3,ARD12*%
%TO.N,Net-(A1-MISO)*%
X116000000Y-79040000D03*
%TO.P,U1,4,GND*%
%TO.N,GND*%
X116000000Y-81580000D03*
%TO.P,U1,5,ARD11*%
%TO.N,Net-(A1-MOSI)*%
X116000000Y-84120000D03*
%TO.P,U1,6,5V*%
%TO.N,5V*%
X116000000Y-86660000D03*
%TO.P,U1,7,5V*%
X116000000Y-89200000D03*
%TD*%
D17*
%TO.P,A1,1,TX1*%
%TO.N,unconnected-(A1-TX1-Pad1)*%
X124500000Y-61600000D03*
D18*
%TO.P,A1,2,RX1*%
%TO.N,unconnected-(A1-RX1-Pad2)*%
X124500000Y-64140000D03*
%TO.P,A1,3,~{RESET}*%
%TO.N,unconnected-(A1-~{RESET}-Pad3)*%
X124500000Y-66680000D03*
%TO.P,A1,4,GND*%
%TO.N,Net-(A1-GND-Pad29)*%
X124500000Y-69220000D03*
%TO.P,A1,5,D2*%
%TO.N,unconnected-(A1-D2-Pad5)*%
X124500000Y-71760000D03*
%TO.P,A1,6,D3*%
%TO.N,unconnected-(A1-D3-Pad6)*%
X124500000Y-74300000D03*
%TO.P,A1,7,D4*%
%TO.N,unconnected-(A1-D4-Pad7)*%
X124500000Y-76840000D03*
%TO.P,A1,8,D5*%
%TO.N,unconnected-(A1-D5-Pad8)*%
X124500000Y-79380000D03*
%TO.P,A1,9,D6*%
%TO.N,unconnected-(A1-D6-Pad9)*%
X124500000Y-81920000D03*
%TO.P,A1,10,D7*%
%TO.N,unconnected-(A1-D7-Pad10)*%
X124500000Y-84460000D03*
%TO.P,A1,11,D8*%
%TO.N,unconnected-(A1-D8-Pad11)*%
X124500000Y-87000000D03*
%TO.P,A1,12,D9*%
%TO.N,unconnected-(A1-D9-Pad12)*%
X124500000Y-89540000D03*
%TO.P,A1,13,D10*%
%TO.N,Net-(A1-D10)*%
X124500000Y-92080000D03*
%TO.P,A1,14,MOSI*%
%TO.N,Net-(A1-MOSI)*%
X124500000Y-94620000D03*
%TO.P,A1,15,MISO*%
%TO.N,Net-(A1-MISO)*%
X124500000Y-97160000D03*
%TO.P,A1,16,SCK*%
%TO.N,Net-(A1-SCK)*%
X139740000Y-97160000D03*
%TO.P,A1,17,3V3*%
%TO.N,unconnected-(A1-3V3-Pad17)*%
X139740000Y-94620000D03*
%TO.P,A1,18,AREF*%
%TO.N,unconnected-(A1-AREF-Pad18)*%
X139740000Y-92080000D03*
%TO.P,A1,19,A0*%
%TO.N,unconnected-(A1-A0-Pad19)*%
X139740000Y-89540000D03*
%TO.P,A1,20,A1*%
%TO.N,unconnected-(A1-A1-Pad20)*%
X139740000Y-87000000D03*
%TO.P,A1,21,A2*%
%TO.N,unconnected-(A1-A2-Pad21)*%
X139740000Y-84460000D03*
%TO.P,A1,22,A3*%
%TO.N,unconnected-(A1-A3-Pad22)*%
X139740000Y-81920000D03*
%TO.P,A1,23,SDA/A4*%
%TO.N,unconnected-(A1-SDA{slash}A4-Pad23)*%
X139740000Y-79380000D03*
%TO.P,A1,24,SCL/A5*%
%TO.N,unconnected-(A1-SCL{slash}A5-Pad24)*%
X139740000Y-76840000D03*
%TO.P,A1,25,A6*%
%TO.N,unconnected-(A1-A6-Pad25)*%
X139740000Y-74300000D03*
%TO.P,A1,26,A7*%
%TO.N,unconnected-(A1-A7-Pad26)*%
X139740000Y-71760000D03*
%TO.P,A1,27,+5V*%
%TO.N,5V*%
X139740000Y-69220000D03*
%TO.P,A1,28,~{RESET}*%
%TO.N,Net-(A1-~{RESET}-Pad28)*%
X139740000Y-66680000D03*
%TO.P,A1,29,GND*%
%TO.N,GND*%
X139740000Y-64140000D03*
%TO.P,A1,30,VIN*%
%TO.N,unconnected-(A1-VIN-Pad30)*%
X139740000Y-61600000D03*
%TD*%
D19*
%TO.N,5V*%
X140500000Y-100000000D02*
X143000000Y-97500000D01*
X140720000Y-69220000D02*
X139740000Y-69220000D01*
X116000000Y-89200000D02*
X116000000Y-86660000D01*
X116000000Y-94010206D02*
X121989794Y-100000000D01*
X143000000Y-71500000D02*
X140720000Y-69220000D01*
X116000000Y-89200000D02*
X116000000Y-94010206D01*
X143000000Y-97500000D02*
X143000000Y-71500000D01*
X121989794Y-100000000D02*
X140500000Y-100000000D01*
%TO.N,Net-(A1-SCK)*%
X115000000Y-76500000D02*
X116000000Y-76500000D01*
X123000000Y-58500000D02*
X120500000Y-61000000D01*
X129500000Y-58500000D02*
X123000000Y-58500000D01*
X130500000Y-59500000D02*
X129500000Y-58500000D01*
X114000000Y-75500000D02*
X115000000Y-76500000D01*
X130500000Y-87920000D02*
X130500000Y-59500000D01*
X120500000Y-65000000D02*
X114000000Y-71500000D01*
X139740000Y-97160000D02*
X130500000Y-87920000D01*
X114000000Y-71500000D02*
X114000000Y-75500000D01*
X120500000Y-61000000D02*
X120500000Y-65000000D01*
%TO.N,Net-(A1-MISO)*%
X118540000Y-79040000D02*
X120500000Y-81000000D01*
X120500000Y-94500000D02*
X123160000Y-97160000D01*
X120500000Y-81000000D02*
X120500000Y-94500000D01*
X116000000Y-79040000D02*
X118540000Y-79040000D01*
X123160000Y-97160000D02*
X124500000Y-97160000D01*
%TO.N,Net-(A1-~{RESET}-Pad28)*%
X133500000Y-55500000D02*
X123000000Y-55500000D01*
X139740000Y-66680000D02*
X135000000Y-61940000D01*
X135000000Y-57000000D02*
X133500000Y-55500000D01*
X123000000Y-55500000D02*
X116000000Y-62500000D01*
X135000000Y-61940000D02*
X135000000Y-57000000D01*
%TO.N,Net-(A1-MOSI)*%
X126500000Y-98000000D02*
X126500000Y-95500000D01*
X117620000Y-84120000D02*
X118750902Y-85250902D01*
X125620000Y-94620000D02*
X124500000Y-94620000D01*
X116000000Y-84120000D02*
X117620000Y-84120000D01*
X118750902Y-94750902D02*
X123000000Y-99000000D01*
X125500000Y-99000000D02*
X126500000Y-98000000D01*
X118750902Y-85250902D02*
X118750902Y-94750902D01*
X123000000Y-99000000D02*
X125500000Y-99000000D01*
X126500000Y-95500000D02*
X125620000Y-94620000D01*
%TO.N,Net-(A1-D10)*%
X116000000Y-73960000D02*
X119960000Y-73960000D01*
X122000000Y-76000000D02*
X122000000Y-89580000D01*
X122000000Y-89580000D02*
X124500000Y-92080000D01*
X119960000Y-73960000D02*
X122000000Y-76000000D01*
%TO.N,GND*%
X116000000Y-81580000D02*
X112500000Y-78080000D01*
X112500000Y-68000000D02*
X116000000Y-64500000D01*
X112500000Y-78080000D02*
X112500000Y-68000000D01*
%TD*%
%TA.AperFunction,Conductor*%
%TO.N,GND*%
G36*
X118286231Y-79710185D02*
G01*
X118306873Y-79726819D01*
X119813181Y-81233127D01*
X119846666Y-81294450D01*
X119849500Y-81320808D01*
X119849500Y-94564069D01*
X119849500Y-94564071D01*
X119849499Y-94564071D01*
X119860503Y-94619386D01*
X119854276Y-94688978D01*
X119811413Y-94744155D01*
X119745524Y-94767400D01*
X119677526Y-94751332D01*
X119651205Y-94731259D01*
X119437721Y-94517775D01*
X119404236Y-94456452D01*
X119401402Y-94430094D01*
X119401402Y-85186830D01*
X119376404Y-85061163D01*
X119376403Y-85061162D01*
X119376403Y-85061158D01*
X119327367Y-84942775D01*
X119327364Y-84942770D01*
X119321446Y-84933913D01*
X119321444Y-84933911D01*
X119303121Y-84906488D01*
X119256179Y-84836233D01*
X119256177Y-84836231D01*
X119256175Y-84836228D01*
X118034673Y-83614726D01*
X118034669Y-83614723D01*
X117928127Y-83543535D01*
X117809744Y-83494499D01*
X117809738Y-83494497D01*
X117684071Y-83469500D01*
X117684069Y-83469500D01*
X117150294Y-83469500D01*
X117083255Y-83449815D01*
X117048719Y-83416623D01*
X116970827Y-83305381D01*
X116898707Y-83233261D01*
X116814620Y-83149174D01*
X116814616Y-83149171D01*
X116814615Y-83149170D01*
X116633666Y-83022468D01*
X116633662Y-83022466D01*
X116504218Y-82962105D01*
X116451779Y-82915932D01*
X116432627Y-82848739D01*
X116452843Y-82781858D01*
X116504219Y-82737340D01*
X116633416Y-82677095D01*
X116633417Y-82677094D01*
X116698188Y-82631741D01*
X116027448Y-81961000D01*
X116050160Y-81961000D01*
X116147061Y-81935036D01*
X116233940Y-81884876D01*
X116304876Y-81813940D01*
X116355036Y-81727061D01*
X116381000Y-81630160D01*
X116381000Y-81607447D01*
X117051741Y-82278188D01*
X117097094Y-82213417D01*
X117097100Y-82213407D01*
X117190419Y-82013284D01*
X117190424Y-82013270D01*
X117247573Y-81799986D01*
X117247575Y-81799976D01*
X117266821Y-81580000D01*
X117266821Y-81579999D01*
X117247575Y-81360023D01*
X117247573Y-81360013D01*
X117190424Y-81146729D01*
X117190420Y-81146720D01*
X117097096Y-80946586D01*
X117051741Y-80881811D01*
X117051740Y-80881810D01*
X116381000Y-81552551D01*
X116381000Y-81529840D01*
X116355036Y-81432939D01*
X116304876Y-81346060D01*
X116233940Y-81275124D01*
X116147061Y-81224964D01*
X116050160Y-81199000D01*
X116027448Y-81199000D01*
X116698188Y-80528259D01*
X116698187Y-80528258D01*
X116633411Y-80482901D01*
X116633405Y-80482898D01*
X116504219Y-80422658D01*
X116451779Y-80376486D01*
X116432627Y-80309293D01*
X116452843Y-80242411D01*
X116504219Y-80197894D01*
X116633662Y-80137534D01*
X116814620Y-80010826D01*
X116970826Y-79854620D01*
X117048719Y-79743376D01*
X117103296Y-79699752D01*
X117150294Y-79690500D01*
X118219192Y-79690500D01*
X118286231Y-79710185D01*
G37*
%TD.AperFunction*%
%TA.AperFunction,Conductor*%
G36*
X151004418Y-48000816D02*
G01*
X151204561Y-48015130D01*
X151222063Y-48017647D01*
X151413797Y-48059355D01*
X151430755Y-48064334D01*
X151614609Y-48132909D01*
X151630701Y-48140259D01*
X151802904Y-48234288D01*
X151817784Y-48243849D01*
X151974867Y-48361441D01*
X151988237Y-48373027D01*
X152126972Y-48511762D01*
X152138558Y-48525132D01*
X152256146Y-48682210D01*
X152265711Y-48697095D01*
X152359740Y-48869298D01*
X152367090Y-48885390D01*
X152435662Y-49069236D01*
X152440646Y-49086212D01*
X152482351Y-49277931D01*
X152484869Y-49295442D01*
X152499184Y-49495580D01*
X152499500Y-49504427D01*
X152499500Y-104995572D01*
X152499184Y-105004419D01*
X152484869Y-105204557D01*
X152482351Y-105222068D01*
X152440646Y-105413787D01*
X152435662Y-105430763D01*
X152367090Y-105614609D01*
X152359740Y-105630701D01*
X152265711Y-105802904D01*
X152256146Y-105817789D01*
X152138558Y-105974867D01*
X152126972Y-105988237D01*
X151988237Y-106126972D01*
X151974867Y-106138558D01*
X151817789Y-106256146D01*
X151802904Y-106265711D01*
X151630701Y-106359740D01*
X151614609Y-106367090D01*
X151430763Y-106435662D01*
X151413787Y-106440646D01*
X151222068Y-106482351D01*
X151204557Y-106484869D01*
X151023779Y-106497799D01*
X151004417Y-106499184D01*
X150995572Y-106499500D01*
X113004428Y-106499500D01*
X112995582Y-106499184D01*
X112973622Y-106497613D01*
X112795442Y-106484869D01*
X112777931Y-106482351D01*
X112586212Y-106440646D01*
X112569236Y-106435662D01*
X112385390Y-106367090D01*
X112369298Y-106359740D01*
X112197095Y-106265711D01*
X112182210Y-106256146D01*
X112025132Y-106138558D01*
X112011762Y-106126972D01*
X111873027Y-105988237D01*
X111861441Y-105974867D01*
X111743849Y-105817784D01*
X111734288Y-105802904D01*
X111640259Y-105630701D01*
X111632909Y-105614609D01*
X111572091Y-105451551D01*
X111564334Y-105430755D01*
X111559355Y-105413797D01*
X111517647Y-105222063D01*
X111515130Y-105204556D01*
X111500816Y-105004418D01*
X111500500Y-104995572D01*
X111500500Y-101000000D01*
X112194616Y-101000000D01*
X112214139Y-101384983D01*
X112272511Y-101766013D01*
X112369136Y-102139199D01*
X112369136Y-102139200D01*
X112503009Y-102500666D01*
X112503015Y-102500679D01*
X112672774Y-102846759D01*
X112672775Y-102846760D01*
X112876680Y-103173895D01*
X112876682Y-103173898D01*
X112876683Y-103173899D01*
X112932140Y-103245544D01*
X113112634Y-103478722D01*
X113199919Y-103570546D01*
X113378216Y-103758115D01*
X113670699Y-104009203D01*
X113670702Y-104009205D01*
X113987089Y-104229417D01*
X114324131Y-104416491D01*
X114324135Y-104416493D01*
X114465826Y-104477297D01*
X114678370Y-104568507D01*
X114678380Y-104568510D01*
X114678385Y-104568512D01*
X115046160Y-104683902D01*
X115046163Y-104683902D01*
X115046171Y-104683905D01*
X115423759Y-104761502D01*
X115730559Y-104792700D01*
X115807259Y-104800500D01*
X115807260Y-104800500D01*
X116192741Y-104800500D01*
X116256656Y-104794000D01*
X116576241Y-104761502D01*
X116953829Y-104683905D01*
X117321630Y-104568507D01*
X117675869Y-104416491D01*
X118012911Y-104229417D01*
X118329298Y-104009205D01*
X118621784Y-103758115D01*
X118887366Y-103478722D01*
X119123320Y-103173895D01*
X119327225Y-102846760D01*
X119496987Y-102500675D01*
X119630866Y-102139192D01*
X119727488Y-101766018D01*
X119785860Y-101384984D01*
X119805384Y-101000000D01*
X144194616Y-101000000D01*
X144214139Y-101384983D01*
X144272511Y-101766013D01*
X144369136Y-102139199D01*
X144369136Y-102139200D01*
X144503009Y-102500666D01*
X144503015Y-102500679D01*
X144672774Y-102846759D01*
X144672775Y-102846760D01*
X144876680Y-103173895D01*
X144876682Y-103173898D01*
X144876683Y-103173899D01*
X144932140Y-103245544D01*
X145112634Y-103478722D01*
X145199919Y-103570546D01*
X145378216Y-103758115D01*
X145670699Y-104009203D01*
X145670702Y-104009205D01*
X145987089Y-104229417D01*
X146324131Y-104416491D01*
X146324135Y-104416493D01*
X146465826Y-104477297D01*
X146678370Y-104568507D01*
X146678380Y-104568510D01*
X146678385Y-104568512D01*
X147046160Y-104683902D01*
X147046163Y-104683902D01*
X147046171Y-104683905D01*
X147423759Y-104761502D01*
X147730559Y-104792700D01*
X147807259Y-104800500D01*
X147807260Y-104800500D01*
X148192741Y-104800500D01*
X148256656Y-104794000D01*
X148576241Y-104761502D01*
X148953829Y-104683905D01*
X149321630Y-104568507D01*
X149675869Y-104416491D01*
X150012911Y-104229417D01*
X150329298Y-104009205D01*
X150621784Y-103758115D01*
X150887366Y-103478722D01*
X151123320Y-103173895D01*
X151327225Y-102846760D01*
X151496987Y-102500675D01*
X151630866Y-102139192D01*
X151727488Y-101766018D01*
X151785860Y-101384984D01*
X151805384Y-101000000D01*
X151785860Y-100615016D01*
X151727488Y-100233982D01*
X151630866Y-99860808D01*
X151496987Y-99499325D01*
X151327225Y-99153240D01*
X151123320Y-98826105D01*
X150887366Y-98521278D01*
X150621784Y-98241885D01*
X150561046Y-98189743D01*
X150329300Y-97990796D01*
X150098543Y-97830185D01*
X150012911Y-97770583D01*
X149788981Y-97646291D01*
X149675864Y-97583506D01*
X149321635Y-97431495D01*
X149321614Y-97431487D01*
X148953839Y-97316097D01*
X148953833Y-97316096D01*
X148953830Y-97316095D01*
X148953829Y-97316095D01*
X148576241Y-97238498D01*
X148576240Y-97238497D01*
X148576236Y-97238497D01*
X148192741Y-97199500D01*
X148192740Y-97199500D01*
X147807260Y-97199500D01*
X147807259Y-97199500D01*
X147423763Y-97238497D01*
X147046166Y-97316096D01*
X147046160Y-97316097D01*
X146678385Y-97431487D01*
X146678364Y-97431495D01*
X146324135Y-97583506D01*
X145987087Y-97770584D01*
X145670699Y-97990796D01*
X145378216Y-98241884D01*
X145112629Y-98521283D01*
X144876683Y-98826100D01*
X144672774Y-99153240D01*
X144503015Y-99499320D01*
X144503009Y-99499333D01*
X144369136Y-99860799D01*
X144369136Y-99860800D01*
X144272511Y-100233986D01*
X144214139Y-100615016D01*
X144194616Y-101000000D01*
X119805384Y-101000000D01*
X119785860Y-100615016D01*
X119727488Y-100233982D01*
X119630866Y-99860808D01*
X119496987Y-99499325D01*
X119327225Y-99153240D01*
X119123320Y-98826105D01*
X118887366Y-98521278D01*
X118621784Y-98241885D01*
X118561046Y-98189743D01*
X118329300Y-97990796D01*
X118098543Y-97830185D01*
X118012911Y-97770583D01*
X117788981Y-97646291D01*
X117675864Y-97583506D01*
X117321635Y-97431495D01*
X117321614Y-97431487D01*
X116953839Y-97316097D01*
X116953833Y-97316096D01*
X116953830Y-97316095D01*
X116953829Y-97316095D01*
X116576241Y-97238498D01*
X116576240Y-97238497D01*
X116576236Y-97238497D01*
X116192741Y-97199500D01*
X116192740Y-97199500D01*
X115807260Y-97199500D01*
X115807259Y-97199500D01*
X115423763Y-97238497D01*
X115046166Y-97316096D01*
X115046160Y-97316097D01*
X114678385Y-97431487D01*
X114678364Y-97431495D01*
X114324135Y-97583506D01*
X113987087Y-97770584D01*
X113670699Y-97990796D01*
X113378216Y-98241884D01*
X113112629Y-98521283D01*
X112876683Y-98826100D01*
X112672774Y-99153240D01*
X112503015Y-99499320D01*
X112503009Y-99499333D01*
X112369136Y-99860799D01*
X112369136Y-99860800D01*
X112272511Y-100233986D01*
X112214139Y-100615016D01*
X112194616Y-101000000D01*
X111500500Y-101000000D01*
X111500500Y-71435928D01*
X113349500Y-71435928D01*
X113349500Y-75564070D01*
X113353728Y-75585325D01*
X113367066Y-75652376D01*
X113373035Y-75682382D01*
X113374499Y-75689744D01*
X113386543Y-75718822D01*
X113423535Y-75808127D01*
X113462431Y-75866340D01*
X113494726Y-75914673D01*
X114585325Y-77005272D01*
X114585332Y-77005278D01*
X114691868Y-77076462D01*
X114691874Y-77076466D01*
X114761221Y-77105189D01*
X114810256Y-77125501D01*
X114861919Y-77135777D01*
X114923829Y-77168160D01*
X114939303Y-77186271D01*
X115029170Y-77314615D01*
X115029175Y-77314621D01*
X115185378Y-77470824D01*
X115185384Y-77470829D01*
X115366333Y-77597531D01*
X115366335Y-77597532D01*
X115366338Y-77597534D01*
X115485748Y-77653215D01*
X115495189Y-77657618D01*
X115547628Y-77703790D01*
X115566780Y-77770984D01*
X115546564Y-77837865D01*
X115495189Y-77882382D01*
X115366340Y-77942465D01*
X115366338Y-77942466D01*
X115185377Y-78069175D01*
X115029175Y-78225377D01*
X114902466Y-78406338D01*
X114902465Y-78406340D01*
X114809107Y-78606548D01*
X114809104Y-78606554D01*
X114751930Y-78819929D01*
X114751929Y-78819937D01*
X114732677Y-79039997D01*
X114732677Y-79040002D01*
X114751929Y-79260062D01*
X114751930Y-79260070D01*
X114809104Y-79473445D01*
X114809105Y-79473447D01*
X114809106Y-79473450D01*
X114871235Y-79606686D01*
X114902466Y-79673662D01*
X114902468Y-79673666D01*
X115029170Y-79854615D01*
X115029175Y-79854621D01*
X115185378Y-80010824D01*
X115185384Y-80010829D01*
X115366333Y-80137531D01*
X115366335Y-80137532D01*
X115366338Y-80137534D01*
X115495781Y-80197894D01*
X115548220Y-80244066D01*
X115567372Y-80311260D01*
X115547156Y-80378141D01*
X115495781Y-80422658D01*
X115366590Y-80482901D01*
X115301811Y-80528258D01*
X115972553Y-81199000D01*
X115949840Y-81199000D01*
X115852939Y-81224964D01*
X115766060Y-81275124D01*
X115695124Y-81346060D01*
X115644964Y-81432939D01*
X115619000Y-81529840D01*
X115619000Y-81552553D01*
X114948258Y-80881811D01*
X114902901Y-80946590D01*
X114809579Y-81146720D01*
X114809575Y-81146729D01*
X114752426Y-81360013D01*
X114752424Y-81360023D01*
X114733179Y-81579999D01*
X114733179Y-81580000D01*
X114752424Y-81799976D01*
X114752426Y-81799986D01*
X114809575Y-82013270D01*
X114809580Y-82013284D01*
X114902898Y-82213405D01*
X114902901Y-82213411D01*
X114948258Y-82278187D01*
X114948259Y-82278188D01*
X115619000Y-81607447D01*
X115619000Y-81630160D01*
X115644964Y-81727061D01*
X115695124Y-81813940D01*
X115766060Y-81884876D01*
X115852939Y-81935036D01*
X115949840Y-81961000D01*
X115972553Y-81961000D01*
X115301810Y-82631740D01*
X115366589Y-82677098D01*
X115495781Y-82737342D01*
X115548220Y-82783514D01*
X115567372Y-82850708D01*
X115547156Y-82917589D01*
X115495781Y-82962106D01*
X115366340Y-83022465D01*
X115366338Y-83022466D01*
X115185377Y-83149175D01*
X115029175Y-83305377D01*
X114902466Y-83486338D01*
X114902465Y-83486340D01*
X114809107Y-83686548D01*
X114809104Y-83686554D01*
X114751930Y-83899929D01*
X114751929Y-83899937D01*
X114732677Y-84119997D01*
X114732677Y-84120002D01*
X114751929Y-84340062D01*
X114751930Y-84340070D01*
X114809104Y-84553445D01*
X114809105Y-84553447D01*
X114809106Y-84553450D01*
X114871235Y-84686686D01*
X114902466Y-84753662D01*
X114902468Y-84753666D01*
X115029170Y-84934615D01*
X115029175Y-84934621D01*
X115185378Y-85090824D01*
X115185384Y-85090829D01*
X115366333Y-85217531D01*
X115366335Y-85217532D01*
X115366338Y-85217534D01*
X115485748Y-85273215D01*
X115495189Y-85277618D01*
X115547628Y-85323790D01*
X115566780Y-85390984D01*
X115546564Y-85457865D01*
X115495189Y-85502382D01*
X115366340Y-85562465D01*
X115366338Y-85562466D01*
X115185377Y-85689175D01*
X115029175Y-85845377D01*
X114902466Y-86026338D01*
X114902465Y-86026340D01*
X114809107Y-86226548D01*
X114809104Y-86226554D01*
X114751930Y-86439929D01*
X114751929Y-86439937D01*
X114732677Y-86659997D01*
X114732677Y-86660002D01*
X114751929Y-86880062D01*
X114751930Y-86880070D01*
X114809104Y-87093445D01*
X114809105Y-87093447D01*
X114809106Y-87093450D01*
X114871235Y-87226686D01*
X114902466Y-87293662D01*
X114902468Y-87293666D01*
X115009481Y-87446496D01*
X115029174Y-87474620D01*
X115185380Y-87630826D01*
X115296625Y-87708720D01*
X115340248Y-87763294D01*
X115349500Y-87810293D01*
X115349500Y-88049705D01*
X115329815Y-88116744D01*
X115296624Y-88151280D01*
X115185382Y-88229172D01*
X115029172Y-88385381D01*
X114902466Y-88566338D01*
X114902465Y-88566340D01*
X114809107Y-88766548D01*
X114809104Y-88766554D01*
X114751930Y-88979929D01*
X114751929Y-88979937D01*
X114732677Y-89199997D01*
X114732677Y-89200002D01*
X114751929Y-89420062D01*
X114751930Y-89420070D01*
X114809104Y-89633445D01*
X114809105Y-89633447D01*
X114809106Y-89633450D01*
X114858585Y-89739559D01*
X114902466Y-89833662D01*
X114902468Y-89833666D01*
X115029170Y-90014615D01*
X115029174Y-90014620D01*
X115185380Y-90170826D01*
X115296625Y-90248720D01*
X115340248Y-90303294D01*
X115349500Y-90350293D01*
X115349500Y-94074277D01*
X115369424Y-94174437D01*
X115369424Y-94174438D01*
X115374497Y-94199943D01*
X115374499Y-94199950D01*
X115402219Y-94266873D01*
X115423535Y-94318333D01*
X115494723Y-94424875D01*
X115494726Y-94424879D01*
X121575120Y-100505273D01*
X121575123Y-100505275D01*
X121575125Y-100505277D01*
X121681667Y-100576465D01*
X121800050Y-100625501D01*
X121800054Y-100625501D01*
X121800055Y-100625502D01*
X121925722Y-100650500D01*
X121925725Y-100650500D01*
X140564071Y-100650500D01*
X140648615Y-100633682D01*
X140689744Y-100625501D01*
X140808127Y-100576465D01*
X140914669Y-100505277D01*
X143505277Y-97914669D01*
X143576465Y-97808127D01*
X143625501Y-97689744D01*
X143630368Y-97665276D01*
X143642060Y-97606497D01*
X143650500Y-97564071D01*
X143650500Y-95731846D01*
X145846554Y-95731846D01*
X150365241Y-95731846D01*
X150365241Y-85356278D01*
X145846554Y-85356278D01*
X145846554Y-95731846D01*
X143650500Y-95731846D01*
X143650500Y-82993800D01*
X143670185Y-82926761D01*
X143722989Y-82881006D01*
X143792147Y-82871062D01*
X143846804Y-82896023D01*
X143852085Y-82896023D01*
X151497411Y-82896023D01*
X151497411Y-58007981D01*
X143852085Y-58007981D01*
X143852085Y-71233888D01*
X143832400Y-71300927D01*
X143779596Y-71346682D01*
X143710438Y-71356626D01*
X143646882Y-71327601D01*
X143613524Y-71281341D01*
X143576465Y-71191874D01*
X143576465Y-71191873D01*
X143505277Y-71085331D01*
X143505275Y-71085329D01*
X143505273Y-71085326D01*
X141134673Y-68714726D01*
X141028124Y-68643533D01*
X140914813Y-68596598D01*
X140860691Y-68553160D01*
X140740045Y-68380858D01*
X140579141Y-68219954D01*
X140392734Y-68089432D01*
X140392728Y-68089429D01*
X140334725Y-68062382D01*
X140282285Y-68016210D01*
X140263133Y-67949017D01*
X140283348Y-67882135D01*
X140334725Y-67837618D01*
X140392734Y-67810568D01*
X140579139Y-67680047D01*
X140740047Y-67519139D01*
X140870568Y-67332734D01*
X140966739Y-67126496D01*
X141025635Y-66906692D01*
X141045468Y-66680000D01*
X141025635Y-66453308D01*
X140966739Y-66233504D01*
X140870568Y-66027266D01*
X140740047Y-65840861D01*
X140740045Y-65840858D01*
X140579141Y-65679954D01*
X140392734Y-65549432D01*
X140392732Y-65549431D01*
X140334725Y-65522382D01*
X140334132Y-65522105D01*
X140281694Y-65475934D01*
X140262542Y-65408740D01*
X140282758Y-65341859D01*
X140334134Y-65297341D01*
X140392484Y-65270132D01*
X140578820Y-65139657D01*
X140739657Y-64978820D01*
X140870134Y-64792482D01*
X140966265Y-64586326D01*
X140966269Y-64586317D01*
X141018872Y-64390000D01*
X140173012Y-64390000D01*
X140205925Y-64332993D01*
X140240000Y-64205826D01*
X140240000Y-64074174D01*
X140205925Y-63947007D01*
X140173012Y-63890000D01*
X141018872Y-63890000D01*
X141018872Y-63889999D01*
X140966269Y-63693682D01*
X140966265Y-63693673D01*
X140870134Y-63487517D01*
X140739657Y-63301179D01*
X140578820Y-63140342D01*
X140392482Y-63009865D01*
X140334133Y-62982657D01*
X140281694Y-62936484D01*
X140262542Y-62869291D01*
X140282758Y-62802410D01*
X140334129Y-62757895D01*
X140392734Y-62730568D01*
X140579139Y-62600047D01*
X140740047Y-62439139D01*
X140870568Y-62252734D01*
X140966739Y-62046496D01*
X141025635Y-61826692D01*
X141045468Y-61600000D01*
X141025635Y-61373308D01*
X140966739Y-61153504D01*
X140870568Y-60947266D01*
X140740047Y-60760861D01*
X140740045Y-60760858D01*
X140579141Y-60599954D01*
X140392734Y-60469432D01*
X140392732Y-60469431D01*
X140186497Y-60373261D01*
X140186488Y-60373258D01*
X139966697Y-60314366D01*
X139966693Y-60314365D01*
X139966692Y-60314365D01*
X139966691Y-60314364D01*
X139966686Y-60314364D01*
X139740002Y-60294532D01*
X139739998Y-60294532D01*
X139513313Y-60314364D01*
X139513302Y-60314366D01*
X139293511Y-60373258D01*
X139293502Y-60373261D01*
X139087267Y-60469431D01*
X139087265Y-60469432D01*
X138900858Y-60599954D01*
X138739954Y-60760858D01*
X138609432Y-60947265D01*
X138609431Y-60947267D01*
X138513261Y-61153502D01*
X138513258Y-61153511D01*
X138454366Y-61373302D01*
X138454364Y-61373313D01*
X138434532Y-61599998D01*
X138434532Y-61600001D01*
X138454364Y-61826686D01*
X138454366Y-61826697D01*
X138513258Y-62046488D01*
X138513261Y-62046497D01*
X138609431Y-62252732D01*
X138609432Y-62252734D01*
X138739954Y-62439141D01*
X138900858Y-62600045D01*
X138900861Y-62600047D01*
X139087266Y-62730568D01*
X139145865Y-62757893D01*
X139198305Y-62804065D01*
X139217457Y-62871258D01*
X139197242Y-62938139D01*
X139145867Y-62982657D01*
X139087515Y-63009867D01*
X138901179Y-63140342D01*
X138740342Y-63301179D01*
X138609865Y-63487517D01*
X138513734Y-63693673D01*
X138513730Y-63693682D01*
X138461127Y-63889999D01*
X138461128Y-63890000D01*
X139306988Y-63890000D01*
X139274075Y-63947007D01*
X139240000Y-64074174D01*
X139240000Y-64205826D01*
X139274075Y-64332993D01*
X139306988Y-64390000D01*
X138421308Y-64390000D01*
X138354269Y-64370315D01*
X138333627Y-64353681D01*
X135686819Y-61706873D01*
X135653334Y-61645550D01*
X135650500Y-61619192D01*
X135650500Y-56935928D01*
X135625502Y-56810261D01*
X135625501Y-56810260D01*
X135625501Y-56810256D01*
X135576465Y-56691873D01*
X135571141Y-56683905D01*
X135505276Y-56585330D01*
X135505274Y-56585327D01*
X133914673Y-54994726D01*
X133914669Y-54994723D01*
X133808127Y-54923535D01*
X133689744Y-54874499D01*
X133689738Y-54874497D01*
X133564071Y-54849500D01*
X133564069Y-54849500D01*
X122935931Y-54849500D01*
X122935929Y-54849500D01*
X122810261Y-54874497D01*
X122810255Y-54874499D01*
X122691874Y-54923534D01*
X122585326Y-54994726D01*
X116216871Y-61363181D01*
X116155548Y-61396666D01*
X116129190Y-61399500D01*
X115352129Y-61399500D01*
X115352123Y-61399501D01*
X115292516Y-61405908D01*
X115157671Y-61456202D01*
X115157664Y-61456206D01*
X115042455Y-61542452D01*
X115042452Y-61542455D01*
X114956206Y-61657664D01*
X114956202Y-61657671D01*
X114905908Y-61792517D01*
X114899501Y-61852116D01*
X114899500Y-61852135D01*
X114899500Y-63147870D01*
X114899501Y-63147876D01*
X114905908Y-63207483D01*
X114956202Y-63342328D01*
X114956206Y-63342335D01*
X115042452Y-63457544D01*
X115042455Y-63457547D01*
X115157664Y-63543793D01*
X115157671Y-63543797D01*
X115292516Y-63594091D01*
X115318419Y-63596875D01*
X115352127Y-63600500D01*
X115402692Y-63600499D01*
X115469729Y-63620182D01*
X115490372Y-63636818D01*
X116000000Y-64146446D01*
X116509628Y-63636818D01*
X116570951Y-63603333D01*
X116597308Y-63600499D01*
X116647872Y-63600499D01*
X116707483Y-63594091D01*
X116842331Y-63543796D01*
X116957546Y-63457546D01*
X117043796Y-63342331D01*
X117094091Y-63207483D01*
X117100500Y-63147873D01*
X117100499Y-62370806D01*
X117120183Y-62303768D01*
X117136813Y-62283131D01*
X123233127Y-56186819D01*
X123294450Y-56153334D01*
X123320808Y-56150500D01*
X133179192Y-56150500D01*
X133246231Y-56170185D01*
X133266873Y-56186819D01*
X134313181Y-57233127D01*
X134346666Y-57294450D01*
X134349500Y-57320808D01*
X134349500Y-62004071D01*
X134372724Y-62120821D01*
X134372725Y-62120825D01*
X134374498Y-62129742D01*
X134374499Y-62129744D01*
X134423535Y-62248127D01*
X134460713Y-62303768D01*
X134494726Y-62354673D01*
X134494727Y-62354674D01*
X138433115Y-66293061D01*
X138466600Y-66354384D01*
X138465209Y-66412834D01*
X138454367Y-66453299D01*
X138454364Y-66453313D01*
X138434532Y-66679998D01*
X138434532Y-66680001D01*
X138454364Y-66906686D01*
X138454366Y-66906697D01*
X138513258Y-67126488D01*
X138513261Y-67126497D01*
X138609431Y-67332732D01*
X138609432Y-67332734D01*
X138739954Y-67519141D01*
X138900858Y-67680045D01*
X138900861Y-67680047D01*
X139087266Y-67810568D01*
X139145275Y-67837618D01*
X139197714Y-67883791D01*
X139216866Y-67950984D01*
X139196650Y-68017865D01*
X139145275Y-68062382D01*
X139087267Y-68089431D01*
X139087265Y-68089432D01*
X138900858Y-68219954D01*
X138739954Y-68380858D01*
X138609432Y-68567265D01*
X138609431Y-68567267D01*
X138513261Y-68773502D01*
X138513258Y-68773511D01*
X138454366Y-68993302D01*
X138454364Y-68993313D01*
X138434532Y-69219998D01*
X138434532Y-69220001D01*
X138454364Y-69446686D01*
X138454366Y-69446697D01*
X138513258Y-69666488D01*
X138513261Y-69666497D01*
X138609431Y-69872732D01*
X138609432Y-69872734D01*
X138739954Y-70059141D01*
X138900858Y-70220045D01*
X138900861Y-70220047D01*
X139087266Y-70350568D01*
X139145275Y-70377618D01*
X139197714Y-70423791D01*
X139216866Y-70490984D01*
X139196650Y-70557865D01*
X139145275Y-70602382D01*
X139087267Y-70629431D01*
X139087265Y-70629432D01*
X138900858Y-70759954D01*
X138739954Y-70920858D01*
X138609432Y-71107265D01*
X138609431Y-71107267D01*
X138513261Y-71313502D01*
X138513258Y-71313511D01*
X138454366Y-71533302D01*
X138454364Y-71533313D01*
X138434532Y-71759998D01*
X138434532Y-71760001D01*
X138454364Y-71986686D01*
X138454366Y-71986697D01*
X138513258Y-72206488D01*
X138513261Y-72206497D01*
X138609431Y-72412732D01*
X138609432Y-72412734D01*
X138739954Y-72599141D01*
X138900858Y-72760045D01*
X138900861Y-72760047D01*
X139087266Y-72890568D01*
X139145275Y-72917618D01*
X139197714Y-72963791D01*
X139216866Y-73030984D01*
X139196650Y-73097865D01*
X139145275Y-73142381D01*
X139138843Y-73145381D01*
X139087267Y-73169431D01*
X139087265Y-73169432D01*
X138900858Y-73299954D01*
X138739954Y-73460858D01*
X138609432Y-73647265D01*
X138609431Y-73647267D01*
X138513261Y-73853502D01*
X138513258Y-73853511D01*
X138454366Y-74073302D01*
X138454364Y-74073313D01*
X138434532Y-74299998D01*
X138434532Y-74300001D01*
X138454364Y-74526686D01*
X138454366Y-74526697D01*
X138513258Y-74746488D01*
X138513261Y-74746497D01*
X138609431Y-74952732D01*
X138609432Y-74952734D01*
X138739954Y-75139141D01*
X138900858Y-75300045D01*
X138900861Y-75300047D01*
X139087266Y-75430568D01*
X139145275Y-75457618D01*
X139197714Y-75503791D01*
X139216866Y-75570984D01*
X139196650Y-75637865D01*
X139145275Y-75682381D01*
X139138843Y-75685381D01*
X139087267Y-75709431D01*
X139087265Y-75709432D01*
X138900858Y-75839954D01*
X138739954Y-76000858D01*
X138609432Y-76187265D01*
X138609431Y-76187267D01*
X138513261Y-76393502D01*
X138513258Y-76393511D01*
X138454366Y-76613302D01*
X138454364Y-76613313D01*
X138434532Y-76839998D01*
X138434532Y-76840001D01*
X138454364Y-77066686D01*
X138454366Y-77066697D01*
X138513258Y-77286488D01*
X138513261Y-77286497D01*
X138609431Y-77492732D01*
X138609432Y-77492734D01*
X138739954Y-77679141D01*
X138900858Y-77840045D01*
X138900861Y-77840047D01*
X139087266Y-77970568D01*
X139145275Y-77997618D01*
X139197714Y-78043791D01*
X139216866Y-78110984D01*
X139196650Y-78177865D01*
X139145275Y-78222381D01*
X139138843Y-78225381D01*
X139087267Y-78249431D01*
X139087265Y-78249432D01*
X138900858Y-78379954D01*
X138739954Y-78540858D01*
X138609432Y-78727265D01*
X138609431Y-78727267D01*
X138513261Y-78933502D01*
X138513258Y-78933511D01*
X138454366Y-79153302D01*
X138454364Y-79153313D01*
X138434532Y-79379998D01*
X138434532Y-79380001D01*
X138454364Y-79606686D01*
X138454366Y-79606697D01*
X138513258Y-79826488D01*
X138513261Y-79826497D01*
X138609431Y-80032732D01*
X138609432Y-80032734D01*
X138739954Y-80219141D01*
X138900858Y-80380045D01*
X138900861Y-80380047D01*
X139087266Y-80510568D01*
X139145275Y-80537618D01*
X139197714Y-80583791D01*
X139216866Y-80650984D01*
X139196650Y-80717865D01*
X139145275Y-80762382D01*
X139087267Y-80789431D01*
X139087265Y-80789432D01*
X138900858Y-80919954D01*
X138739954Y-81080858D01*
X138609432Y-81267265D01*
X138609431Y-81267267D01*
X138513261Y-81473502D01*
X138513258Y-81473511D01*
X138454366Y-81693302D01*
X138454364Y-81693313D01*
X138434532Y-81919998D01*
X138434532Y-81920001D01*
X138454364Y-82146686D01*
X138454366Y-82146697D01*
X138513258Y-82366488D01*
X138513261Y-82366497D01*
X138609431Y-82572732D01*
X138609432Y-82572734D01*
X138739954Y-82759141D01*
X138900858Y-82920045D01*
X138900861Y-82920047D01*
X139087266Y-83050568D01*
X139145275Y-83077618D01*
X139197714Y-83123791D01*
X139216866Y-83190984D01*
X139196650Y-83257865D01*
X139145275Y-83302381D01*
X139138843Y-83305381D01*
X139087267Y-83329431D01*
X139087265Y-83329432D01*
X138900858Y-83459954D01*
X138739954Y-83620858D01*
X138609432Y-83807265D01*
X138609431Y-83807267D01*
X138513261Y-84013502D01*
X138513258Y-84013511D01*
X138454366Y-84233302D01*
X138454364Y-84233313D01*
X138434532Y-84459998D01*
X138434532Y-84460001D01*
X138454364Y-84686686D01*
X138454366Y-84686697D01*
X138513258Y-84906488D01*
X138513261Y-84906497D01*
X138609431Y-85112732D01*
X138609432Y-85112734D01*
X138739954Y-85299141D01*
X138900858Y-85460045D01*
X138900861Y-85460047D01*
X139087266Y-85590568D01*
X139145275Y-85617618D01*
X139197714Y-85663791D01*
X139216866Y-85730984D01*
X139196650Y-85797865D01*
X139145275Y-85842381D01*
X139138843Y-85845381D01*
X139087267Y-85869431D01*
X139087265Y-85869432D01*
X138900858Y-85999954D01*
X138739954Y-86160858D01*
X138609432Y-86347265D01*
X138609431Y-86347267D01*
X138513261Y-86553502D01*
X138513258Y-86553511D01*
X138454366Y-86773302D01*
X138454364Y-86773313D01*
X138434532Y-86999998D01*
X138434532Y-87000001D01*
X138454364Y-87226686D01*
X138454366Y-87226697D01*
X138513258Y-87446488D01*
X138513261Y-87446497D01*
X138609431Y-87652732D01*
X138609432Y-87652734D01*
X138739954Y-87839141D01*
X138900858Y-88000045D01*
X138900861Y-88000047D01*
X139087266Y-88130568D01*
X139131683Y-88151280D01*
X139145275Y-88157618D01*
X139197714Y-88203791D01*
X139216866Y-88270984D01*
X139196650Y-88337865D01*
X139145275Y-88382381D01*
X139138843Y-88385381D01*
X139087267Y-88409431D01*
X139087265Y-88409432D01*
X138900858Y-88539954D01*
X138739954Y-88700858D01*
X138609432Y-88887265D01*
X138609431Y-88887267D01*
X138513261Y-89093502D01*
X138513258Y-89093511D01*
X138454366Y-89313302D01*
X138454364Y-89313313D01*
X138434532Y-89539998D01*
X138434532Y-89540001D01*
X138454364Y-89766686D01*
X138454366Y-89766697D01*
X138513258Y-89986488D01*
X138513261Y-89986497D01*
X138609431Y-90192732D01*
X138609432Y-90192734D01*
X138739954Y-90379141D01*
X138900858Y-90540045D01*
X138900861Y-90540047D01*
X139087266Y-90670568D01*
X139145275Y-90697618D01*
X139197714Y-90743791D01*
X139216866Y-90810984D01*
X139196650Y-90877865D01*
X139145275Y-90922382D01*
X139087267Y-90949431D01*
X139087265Y-90949432D01*
X138900858Y-91079954D01*
X138739954Y-91240858D01*
X138609432Y-91427265D01*
X138609431Y-91427267D01*
X138513261Y-91633502D01*
X138513258Y-91633511D01*
X138454366Y-91853302D01*
X138454364Y-91853313D01*
X138434532Y-92079998D01*
X138434532Y-92080001D01*
X138454364Y-92306686D01*
X138454366Y-92306697D01*
X138513258Y-92526488D01*
X138513261Y-92526497D01*
X138609431Y-92732732D01*
X138609432Y-92732734D01*
X138739954Y-92919141D01*
X138900858Y-93080045D01*
X138900861Y-93080047D01*
X139087266Y-93210568D01*
X139145275Y-93237618D01*
X139197714Y-93283791D01*
X139216866Y-93350984D01*
X139196650Y-93417865D01*
X139145275Y-93462382D01*
X139087267Y-93489431D01*
X139087265Y-93489432D01*
X138900858Y-93619954D01*
X138739954Y-93780858D01*
X138609432Y-93967265D01*
X138609431Y-93967267D01*
X138513261Y-94173502D01*
X138513258Y-94173511D01*
X138454366Y-94393302D01*
X138454364Y-94393313D01*
X138434532Y-94619998D01*
X138435001Y-94625362D01*
X138421231Y-94693862D01*
X138372613Y-94744042D01*
X138304584Y-94759973D01*
X138238741Y-94736594D01*
X138223791Y-94723845D01*
X131186819Y-87686873D01*
X131153334Y-87625550D01*
X131150500Y-87599192D01*
X131150500Y-59435928D01*
X131125502Y-59310260D01*
X131125500Y-59310254D01*
X131105189Y-59261221D01*
X131105187Y-59261216D01*
X131076468Y-59191878D01*
X131076462Y-59191868D01*
X131005278Y-59085332D01*
X131005272Y-59085325D01*
X129914673Y-57994726D01*
X129914669Y-57994723D01*
X129808127Y-57923535D01*
X129689744Y-57874499D01*
X129689738Y-57874497D01*
X129564071Y-57849500D01*
X129564069Y-57849500D01*
X122935931Y-57849500D01*
X122935929Y-57849500D01*
X122810261Y-57874497D01*
X122810255Y-57874499D01*
X122691874Y-57923534D01*
X122585326Y-57994726D01*
X119994726Y-60585326D01*
X119923534Y-60691874D01*
X119874499Y-60810255D01*
X119874497Y-60810261D01*
X119849500Y-60935928D01*
X119849500Y-64679191D01*
X119829815Y-64746230D01*
X119813181Y-64766872D01*
X113494727Y-71085325D01*
X113494726Y-71085326D01*
X113423534Y-71191874D01*
X113374499Y-71310255D01*
X113374497Y-71310261D01*
X113349500Y-71435928D01*
X111500500Y-71435928D01*
X111500500Y-65434240D01*
X115419311Y-65434240D01*
X115507585Y-65488897D01*
X115697678Y-65562539D01*
X115898072Y-65600000D01*
X116101928Y-65600000D01*
X116302322Y-65562539D01*
X116492412Y-65488899D01*
X116492416Y-65488897D01*
X116580686Y-65434241D01*
X116580686Y-65434240D01*
X116000001Y-64853553D01*
X116000000Y-64853553D01*
X115419311Y-65434240D01*
X111500500Y-65434240D01*
X111500500Y-64499999D01*
X114895287Y-64499999D01*
X114895287Y-64500000D01*
X114914096Y-64702989D01*
X114914097Y-64702992D01*
X114969883Y-64899063D01*
X114969886Y-64899069D01*
X115060751Y-65081551D01*
X115062533Y-65083911D01*
X115646446Y-64500000D01*
X115606950Y-64460504D01*
X115700000Y-64460504D01*
X115700000Y-64539496D01*
X115720444Y-64615796D01*
X115759940Y-64684205D01*
X115815795Y-64740060D01*
X115884204Y-64779556D01*
X115960504Y-64800000D01*
X116039496Y-64800000D01*
X116115796Y-64779556D01*
X116184205Y-64740060D01*
X116240060Y-64684205D01*
X116279556Y-64615796D01*
X116300000Y-64539496D01*
X116300000Y-64500000D01*
X116353553Y-64500000D01*
X116937465Y-65083912D01*
X116939247Y-65081553D01*
X116939248Y-65081551D01*
X117030113Y-64899069D01*
X117030116Y-64899063D01*
X117085902Y-64702992D01*
X117085903Y-64702989D01*
X117104713Y-64500000D01*
X117104713Y-64499999D01*
X117085903Y-64297010D01*
X117085902Y-64297007D01*
X117030116Y-64100936D01*
X117030113Y-64100930D01*
X116939249Y-63918449D01*
X116939247Y-63918447D01*
X116937465Y-63916087D01*
X116353553Y-64500000D01*
X116300000Y-64500000D01*
X116300000Y-64460504D01*
X116279556Y-64384204D01*
X116240060Y-64315795D01*
X116184205Y-64259940D01*
X116115796Y-64220444D01*
X116039496Y-64200000D01*
X115960504Y-64200000D01*
X115884204Y-64220444D01*
X115815795Y-64259940D01*
X115759940Y-64315795D01*
X115720444Y-64384204D01*
X115700000Y-64460504D01*
X115606950Y-64460504D01*
X115062533Y-63916087D01*
X115060755Y-63918442D01*
X115060754Y-63918443D01*
X114969886Y-64100930D01*
X114969883Y-64100936D01*
X114914097Y-64297007D01*
X114914096Y-64297010D01*
X114895287Y-64499999D01*
X111500500Y-64499999D01*
X111500500Y-53000000D01*
X112194616Y-53000000D01*
X112214139Y-53384983D01*
X112272511Y-53766013D01*
X112369136Y-54139199D01*
X112369136Y-54139200D01*
X112503009Y-54500666D01*
X112503015Y-54500679D01*
X112672774Y-54846759D01*
X112720629Y-54923535D01*
X112876680Y-55173895D01*
X112876682Y-55173898D01*
X112876683Y-55173899D01*
X112932140Y-55245544D01*
X113112634Y-55478722D01*
X113199919Y-55570546D01*
X113378216Y-55758115D01*
X113670699Y-56009203D01*
X113670702Y-56009205D01*
X113987089Y-56229417D01*
X114324131Y-56416491D01*
X114324135Y-56416493D01*
X114465826Y-56477297D01*
X114678370Y-56568507D01*
X114678380Y-56568510D01*
X114678385Y-56568512D01*
X115046160Y-56683902D01*
X115046163Y-56683902D01*
X115046171Y-56683905D01*
X115423759Y-56761502D01*
X115730559Y-56792700D01*
X115807259Y-56800500D01*
X115807260Y-56800500D01*
X116192741Y-56800500D01*
X116256656Y-56794000D01*
X116576241Y-56761502D01*
X116953829Y-56683905D01*
X117321630Y-56568507D01*
X117675869Y-56416491D01*
X118012911Y-56229417D01*
X118329298Y-56009205D01*
X118621784Y-55758115D01*
X118887366Y-55478722D01*
X119123320Y-55173895D01*
X119327225Y-54846760D01*
X119496987Y-54500675D01*
X119630866Y-54139192D01*
X119727488Y-53766018D01*
X119785860Y-53384984D01*
X119805384Y-53000000D01*
X144194616Y-53000000D01*
X144214139Y-53384983D01*
X144272511Y-53766013D01*
X144369136Y-54139199D01*
X144369136Y-54139200D01*
X144503009Y-54500666D01*
X144503015Y-54500679D01*
X144672774Y-54846759D01*
X144720629Y-54923535D01*
X144876680Y-55173895D01*
X144876682Y-55173898D01*
X144876683Y-55173899D01*
X144932140Y-55245544D01*
X145112634Y-55478722D01*
X145199919Y-55570546D01*
X145378216Y-55758115D01*
X145670699Y-56009203D01*
X145670702Y-56009205D01*
X145987089Y-56229417D01*
X146324131Y-56416491D01*
X146324135Y-56416493D01*
X146465826Y-56477297D01*
X146678370Y-56568507D01*
X146678380Y-56568510D01*
X146678385Y-56568512D01*
X147046160Y-56683902D01*
X147046163Y-56683902D01*
X147046171Y-56683905D01*
X147423759Y-56761502D01*
X147730559Y-56792700D01*
X147807259Y-56800500D01*
X147807260Y-56800500D01*
X148192741Y-56800500D01*
X148256656Y-56794000D01*
X148576241Y-56761502D01*
X148953829Y-56683905D01*
X149321630Y-56568507D01*
X149675869Y-56416491D01*
X150012911Y-56229417D01*
X150329298Y-56009205D01*
X150621784Y-55758115D01*
X150887366Y-55478722D01*
X151123320Y-55173895D01*
X151327225Y-54846760D01*
X151496987Y-54500675D01*
X151630866Y-54139192D01*
X151727488Y-53766018D01*
X151785860Y-53384984D01*
X151805384Y-53000000D01*
X151785860Y-52615016D01*
X151727488Y-52233982D01*
X151630866Y-51860808D01*
X151496987Y-51499325D01*
X151327225Y-51153240D01*
X151123320Y-50826105D01*
X150887366Y-50521278D01*
X150621784Y-50241885D01*
X150579093Y-50205236D01*
X150329300Y-49990796D01*
X150012912Y-49770584D01*
X150012911Y-49770583D01*
X149675869Y-49583509D01*
X149675870Y-49583509D01*
X149675864Y-49583506D01*
X149321635Y-49431495D01*
X149321614Y-49431487D01*
X148953839Y-49316097D01*
X148953833Y-49316096D01*
X148953830Y-49316095D01*
X148953829Y-49316095D01*
X148576241Y-49238498D01*
X148576240Y-49238497D01*
X148576236Y-49238497D01*
X148192741Y-49199500D01*
X148192740Y-49199500D01*
X147807260Y-49199500D01*
X147807259Y-49199500D01*
X147423763Y-49238497D01*
X147046166Y-49316096D01*
X147046160Y-49316097D01*
X146678385Y-49431487D01*
X146678364Y-49431495D01*
X146324135Y-49583506D01*
X145987087Y-49770584D01*
X145670699Y-49990796D01*
X145378216Y-50241884D01*
X145112629Y-50521283D01*
X144876683Y-50826100D01*
X144672774Y-51153240D01*
X144503015Y-51499320D01*
X144503009Y-51499333D01*
X144369136Y-51860799D01*
X144369136Y-51860800D01*
X144272511Y-52233986D01*
X144214139Y-52615016D01*
X144194616Y-53000000D01*
X119805384Y-53000000D01*
X119785860Y-52615016D01*
X119727488Y-52233982D01*
X119630866Y-51860808D01*
X119496987Y-51499325D01*
X119327225Y-51153240D01*
X119123320Y-50826105D01*
X118887366Y-50521278D01*
X118621784Y-50241885D01*
X118579093Y-50205236D01*
X118329300Y-49990796D01*
X118012912Y-49770584D01*
X118012911Y-49770583D01*
X117675869Y-49583509D01*
X117675870Y-49583509D01*
X117675864Y-49583506D01*
X117321635Y-49431495D01*
X117321614Y-49431487D01*
X116953839Y-49316097D01*
X116953833Y-49316096D01*
X116953830Y-49316095D01*
X116953829Y-49316095D01*
X116576241Y-49238498D01*
X116576240Y-49238497D01*
X116576236Y-49238497D01*
X116192741Y-49199500D01*
X116192740Y-49199500D01*
X115807260Y-49199500D01*
X115807259Y-49199500D01*
X115423763Y-49238497D01*
X115046166Y-49316096D01*
X115046160Y-49316097D01*
X114678385Y-49431487D01*
X114678364Y-49431495D01*
X114324135Y-49583506D01*
X113987087Y-49770584D01*
X113670699Y-49990796D01*
X113378216Y-50241884D01*
X113112629Y-50521283D01*
X112876683Y-50826100D01*
X112672774Y-51153240D01*
X112503015Y-51499320D01*
X112503009Y-51499333D01*
X112369136Y-51860799D01*
X112369136Y-51860800D01*
X112272511Y-52233986D01*
X112214139Y-52615016D01*
X112194616Y-53000000D01*
X111500500Y-53000000D01*
X111500500Y-49504427D01*
X111500816Y-49495581D01*
X111505213Y-49434108D01*
X111515130Y-49295436D01*
X111517646Y-49277938D01*
X111559356Y-49086199D01*
X111564333Y-49069248D01*
X111632911Y-48885385D01*
X111640259Y-48869298D01*
X111702815Y-48754734D01*
X111734291Y-48697089D01*
X111743845Y-48682221D01*
X111861448Y-48525123D01*
X111873020Y-48511769D01*
X112011769Y-48373020D01*
X112025123Y-48361448D01*
X112182221Y-48243845D01*
X112197089Y-48234291D01*
X112369298Y-48140258D01*
X112385385Y-48132911D01*
X112569248Y-48064333D01*
X112586199Y-48059356D01*
X112777938Y-48017646D01*
X112795436Y-48015130D01*
X112995582Y-48000816D01*
X113004428Y-48000500D01*
X113065892Y-48000500D01*
X150934108Y-48000500D01*
X150995572Y-48000500D01*
X151004418Y-48000816D01*
G37*
%TD.AperFunction*%
%TD*%
%TA.AperFunction,NonConductor*%
G36*
X114855703Y-74518933D02*
G01*
X114886882Y-74560242D01*
X114902464Y-74593658D01*
X114902468Y-74593666D01*
X115029170Y-74774615D01*
X115029175Y-74774621D01*
X115185378Y-74930824D01*
X115185384Y-74930829D01*
X115366333Y-75057531D01*
X115366335Y-75057532D01*
X115366338Y-75057534D01*
X115485748Y-75113215D01*
X115495189Y-75117618D01*
X115547628Y-75163790D01*
X115566780Y-75230984D01*
X115546564Y-75297865D01*
X115495189Y-75342382D01*
X115366340Y-75402465D01*
X115366338Y-75402466D01*
X115185380Y-75529172D01*
X115154929Y-75559624D01*
X115093605Y-75593108D01*
X115023914Y-75588122D01*
X114979568Y-75559622D01*
X114686819Y-75266873D01*
X114653334Y-75205550D01*
X114650500Y-75179192D01*
X114650500Y-74612646D01*
X114670185Y-74545607D01*
X114722989Y-74499852D01*
X114792147Y-74489908D01*
X114855703Y-74518933D01*
G37*
%TD.AperFunction*%
%TA.AperFunction,NonConductor*%
G36*
X119706231Y-74630185D02*
G01*
X119726873Y-74646819D01*
X121313181Y-76233127D01*
X121346666Y-76294450D01*
X121349500Y-76320808D01*
X121349500Y-80727649D01*
X121329815Y-80794688D01*
X121277011Y-80840443D01*
X121207853Y-80850387D01*
X121144297Y-80821362D01*
X121110940Y-80775105D01*
X121105189Y-80761222D01*
X121105187Y-80761216D01*
X121076468Y-80691878D01*
X121076462Y-80691868D01*
X121005278Y-80585332D01*
X121005272Y-80585325D01*
X118954673Y-78534726D01*
X118954669Y-78534723D01*
X118848127Y-78463535D01*
X118729744Y-78414499D01*
X118729738Y-78414497D01*
X118604071Y-78389500D01*
X118604069Y-78389500D01*
X117150294Y-78389500D01*
X117083255Y-78369815D01*
X117048719Y-78336623D01*
X116970827Y-78225381D01*
X116898707Y-78153261D01*
X116814620Y-78069174D01*
X116814616Y-78069171D01*
X116814615Y-78069170D01*
X116633666Y-77942468D01*
X116633658Y-77942464D01*
X116504811Y-77882382D01*
X116452371Y-77836210D01*
X116433219Y-77769017D01*
X116453435Y-77702135D01*
X116504811Y-77657618D01*
X116510802Y-77654824D01*
X116633662Y-77597534D01*
X116814620Y-77470826D01*
X116970826Y-77314620D01*
X117097534Y-77133662D01*
X117190894Y-76933450D01*
X117248070Y-76720068D01*
X117267323Y-76500000D01*
X117248070Y-76279932D01*
X117190894Y-76066550D01*
X117097534Y-75866339D01*
X116970826Y-75685380D01*
X116814620Y-75529174D01*
X116814616Y-75529171D01*
X116814615Y-75529170D01*
X116633666Y-75402468D01*
X116633658Y-75402464D01*
X116504811Y-75342382D01*
X116452371Y-75296210D01*
X116433219Y-75229017D01*
X116453435Y-75162135D01*
X116504811Y-75117618D01*
X116510802Y-75114824D01*
X116633662Y-75057534D01*
X116814620Y-74930826D01*
X116970826Y-74774620D01*
X117048719Y-74663376D01*
X117103296Y-74619752D01*
X117150294Y-74610500D01*
X119639192Y-74610500D01*
X119706231Y-74630185D01*
G37*
%TD.AperFunction*%
%TA.AperFunction,NonConductor*%
G36*
X117366231Y-84790185D02*
G01*
X117386873Y-84806819D01*
X118064083Y-85484029D01*
X118097568Y-85545352D01*
X118100402Y-85571710D01*
X118100402Y-94814975D01*
X118113939Y-94883029D01*
X118107712Y-94952620D01*
X118064849Y-95007798D01*
X117998959Y-95031042D01*
X117930962Y-95014974D01*
X117904641Y-94994901D01*
X116686819Y-93777079D01*
X116653334Y-93715756D01*
X116650500Y-93689398D01*
X116650500Y-90350293D01*
X116670185Y-90283254D01*
X116703372Y-90248721D01*
X116814620Y-90170826D01*
X116970826Y-90014620D01*
X117097534Y-89833662D01*
X117190894Y-89633450D01*
X117248070Y-89420068D01*
X117267323Y-89200000D01*
X117248070Y-88979932D01*
X117190894Y-88766550D01*
X117097534Y-88566339D01*
X116970826Y-88385380D01*
X116814620Y-88229174D01*
X116770670Y-88198400D01*
X116703376Y-88151280D01*
X116659752Y-88096703D01*
X116650500Y-88049705D01*
X116650500Y-87810293D01*
X116670185Y-87743254D01*
X116703372Y-87708721D01*
X116814620Y-87630826D01*
X116970826Y-87474620D01*
X117097534Y-87293662D01*
X117190894Y-87093450D01*
X117248070Y-86880068D01*
X117267323Y-86660000D01*
X117248070Y-86439932D01*
X117190894Y-86226550D01*
X117097534Y-86026339D01*
X116970826Y-85845380D01*
X116814620Y-85689174D01*
X116814616Y-85689171D01*
X116814615Y-85689170D01*
X116633666Y-85562468D01*
X116633658Y-85562464D01*
X116504811Y-85502382D01*
X116452371Y-85456210D01*
X116433219Y-85389017D01*
X116453435Y-85322135D01*
X116504811Y-85277618D01*
X116510802Y-85274824D01*
X116633662Y-85217534D01*
X116814620Y-85090826D01*
X116970826Y-84934620D01*
X117048719Y-84823376D01*
X117103296Y-84779752D01*
X117150294Y-84770500D01*
X117299192Y-84770500D01*
X117366231Y-84790185D01*
G37*
%TD.AperFunction*%
%TA.AperFunction,NonConductor*%
G36*
X121355703Y-89758640D02*
G01*
X121389061Y-89804900D01*
X121423534Y-89888125D01*
X121494726Y-89994673D01*
X121494727Y-89994674D01*
X123193115Y-91693061D01*
X123226600Y-91754384D01*
X123225209Y-91812834D01*
X123214367Y-91853299D01*
X123214364Y-91853313D01*
X123194532Y-92079998D01*
X123194532Y-92080001D01*
X123214364Y-92306686D01*
X123214366Y-92306697D01*
X123273258Y-92526488D01*
X123273261Y-92526497D01*
X123369431Y-92732732D01*
X123369432Y-92732734D01*
X123499954Y-92919141D01*
X123660858Y-93080045D01*
X123660861Y-93080047D01*
X123847266Y-93210568D01*
X123905275Y-93237618D01*
X123957714Y-93283791D01*
X123976866Y-93350984D01*
X123956650Y-93417865D01*
X123905275Y-93462382D01*
X123847267Y-93489431D01*
X123847265Y-93489432D01*
X123660858Y-93619954D01*
X123499954Y-93780858D01*
X123369432Y-93967265D01*
X123369431Y-93967267D01*
X123273261Y-94173502D01*
X123273258Y-94173511D01*
X123214366Y-94393302D01*
X123214364Y-94393313D01*
X123194532Y-94619998D01*
X123194532Y-94620001D01*
X123214364Y-94846686D01*
X123214366Y-94846697D01*
X123273258Y-95066488D01*
X123273261Y-95066497D01*
X123369431Y-95272732D01*
X123369432Y-95272734D01*
X123499954Y-95459141D01*
X123660858Y-95620045D01*
X123660861Y-95620047D01*
X123847266Y-95750568D01*
X123887750Y-95769446D01*
X123905275Y-95777618D01*
X123957714Y-95823791D01*
X123976866Y-95890984D01*
X123956650Y-95957865D01*
X123905275Y-96002382D01*
X123847267Y-96029431D01*
X123847265Y-96029432D01*
X123660862Y-96159951D01*
X123499951Y-96320863D01*
X123477988Y-96352230D01*
X123423411Y-96395855D01*
X123353912Y-96403047D01*
X123291558Y-96371524D01*
X123288733Y-96368787D01*
X121186819Y-94266873D01*
X121153334Y-94205550D01*
X121150500Y-94179192D01*
X121150500Y-89852353D01*
X121170185Y-89785314D01*
X121222989Y-89739559D01*
X121292147Y-89729615D01*
X121355703Y-89758640D01*
G37*
%TD.AperFunction*%
%TA.AperFunction,NonConductor*%
G36*
X125562953Y-95498746D02*
G01*
X125607301Y-95527247D01*
X125813181Y-95733127D01*
X125846666Y-95794450D01*
X125849500Y-95820808D01*
X125849500Y-96426656D01*
X125829815Y-96493695D01*
X125777011Y-96539450D01*
X125707853Y-96549394D01*
X125644297Y-96520369D01*
X125623925Y-96497779D01*
X125621065Y-96493695D01*
X125522012Y-96352230D01*
X125500045Y-96320858D01*
X125339141Y-96159954D01*
X125152734Y-96029432D01*
X125152728Y-96029429D01*
X125094725Y-96002382D01*
X125042285Y-95956210D01*
X125023133Y-95889017D01*
X125043348Y-95822135D01*
X125094725Y-95777618D01*
X125152734Y-95750568D01*
X125339139Y-95620047D01*
X125431940Y-95527245D01*
X125493261Y-95493762D01*
X125562953Y-95498746D01*
G37*
%TD.AperFunction*%
%TA.AperFunction,NonConductor*%
G36*
X123040610Y-97799495D02*
G01*
X123079272Y-97807186D01*
X123095930Y-97810500D01*
X123095931Y-97810500D01*
X123303317Y-97810500D01*
X123370356Y-97830185D01*
X123404892Y-97863377D01*
X123499954Y-97999141D01*
X123638632Y-98137819D01*
X123672117Y-98199142D01*
X123667133Y-98268834D01*
X123625261Y-98324767D01*
X123559797Y-98349184D01*
X123550951Y-98349500D01*
X123320808Y-98349500D01*
X123253769Y-98329815D01*
X123233127Y-98313181D01*
X122928740Y-98008794D01*
X122895255Y-97947471D01*
X122900239Y-97877779D01*
X122942111Y-97821846D01*
X123007575Y-97797429D01*
X123040610Y-97799495D01*
G37*
%TD.AperFunction*%
%TA.AperFunction,NonConductor*%
G36*
X129246231Y-59170185D02*
G01*
X129266873Y-59186819D01*
X129813181Y-59733127D01*
X129846666Y-59794450D01*
X129849500Y-59820808D01*
X129849500Y-87984069D01*
X129849500Y-87984071D01*
X129849499Y-87984071D01*
X129873050Y-88102463D01*
X129874498Y-88109743D01*
X129923533Y-88228125D01*
X129994726Y-88334673D01*
X129994727Y-88334674D01*
X138433115Y-96773061D01*
X138466600Y-96834384D01*
X138465209Y-96892834D01*
X138454367Y-96933299D01*
X138454364Y-96933313D01*
X138434532Y-97159998D01*
X138434532Y-97160001D01*
X138454364Y-97386686D01*
X138454366Y-97386697D01*
X138513258Y-97606488D01*
X138513261Y-97606497D01*
X138609431Y-97812732D01*
X138609432Y-97812734D01*
X138739954Y-97999141D01*
X138900858Y-98160045D01*
X138900861Y-98160047D01*
X139087266Y-98290568D01*
X139293504Y-98386739D01*
X139513308Y-98445635D01*
X139675230Y-98459801D01*
X139739998Y-98465468D01*
X139740000Y-98465468D01*
X139740002Y-98465468D01*
X139796673Y-98460509D01*
X139966692Y-98445635D01*
X140186496Y-98386739D01*
X140392734Y-98290568D01*
X140579139Y-98160047D01*
X140740047Y-97999139D01*
X140870568Y-97812734D01*
X140966739Y-97606496D01*
X141025635Y-97386692D01*
X141045468Y-97160000D01*
X141025635Y-96933308D01*
X140966739Y-96713504D01*
X140870568Y-96507266D01*
X140762012Y-96352230D01*
X140740045Y-96320858D01*
X140579141Y-96159954D01*
X140392734Y-96029432D01*
X140392728Y-96029429D01*
X140334725Y-96002382D01*
X140282285Y-95956210D01*
X140263133Y-95889017D01*
X140283348Y-95822135D01*
X140334725Y-95777618D01*
X140392734Y-95750568D01*
X140579139Y-95620047D01*
X140740047Y-95459139D01*
X140870568Y-95272734D01*
X140966739Y-95066496D01*
X141025635Y-94846692D01*
X141045468Y-94620000D01*
X141025635Y-94393308D01*
X140966739Y-94173504D01*
X140870568Y-93967266D01*
X140740047Y-93780861D01*
X140740045Y-93780858D01*
X140579141Y-93619954D01*
X140392734Y-93489432D01*
X140392728Y-93489429D01*
X140334725Y-93462382D01*
X140282285Y-93416210D01*
X140263133Y-93349017D01*
X140283348Y-93282135D01*
X140334725Y-93237618D01*
X140392734Y-93210568D01*
X140579139Y-93080047D01*
X140740047Y-92919139D01*
X140870568Y-92732734D01*
X140966739Y-92526496D01*
X141025635Y-92306692D01*
X141045468Y-92080000D01*
X141025635Y-91853308D01*
X140966739Y-91633504D01*
X140870568Y-91427266D01*
X140740047Y-91240861D01*
X140740045Y-91240858D01*
X140579141Y-91079954D01*
X140392734Y-90949432D01*
X140392728Y-90949429D01*
X140334725Y-90922382D01*
X140282285Y-90876210D01*
X140263133Y-90809017D01*
X140283348Y-90742135D01*
X140334725Y-90697618D01*
X140392734Y-90670568D01*
X140579139Y-90540047D01*
X140740047Y-90379139D01*
X140870568Y-90192734D01*
X140966739Y-89986496D01*
X141025635Y-89766692D01*
X141045468Y-89540000D01*
X141025635Y-89313308D01*
X140966739Y-89093504D01*
X140870568Y-88887266D01*
X140740047Y-88700861D01*
X140740045Y-88700858D01*
X140579141Y-88539954D01*
X140392734Y-88409432D01*
X140392728Y-88409429D01*
X140365038Y-88396517D01*
X140334724Y-88382381D01*
X140282285Y-88336210D01*
X140263133Y-88269017D01*
X140283348Y-88202135D01*
X140334725Y-88157618D01*
X140348317Y-88151280D01*
X140392734Y-88130568D01*
X140579139Y-88000047D01*
X140740047Y-87839139D01*
X140870568Y-87652734D01*
X140966739Y-87446496D01*
X141025635Y-87226692D01*
X141045468Y-87000000D01*
X141025635Y-86773308D01*
X140966739Y-86553504D01*
X140870568Y-86347266D01*
X140740047Y-86160861D01*
X140740045Y-86160858D01*
X140579141Y-85999954D01*
X140392734Y-85869432D01*
X140392728Y-85869429D01*
X140365038Y-85856517D01*
X140334724Y-85842381D01*
X140282285Y-85796210D01*
X140263133Y-85729017D01*
X140283348Y-85662135D01*
X140334725Y-85617618D01*
X140392734Y-85590568D01*
X140579139Y-85460047D01*
X140740047Y-85299139D01*
X140870568Y-85112734D01*
X140966739Y-84906496D01*
X141025635Y-84686692D01*
X141045468Y-84460000D01*
X141025635Y-84233308D01*
X140966739Y-84013504D01*
X140870568Y-83807266D01*
X140740047Y-83620861D01*
X140740045Y-83620858D01*
X140579141Y-83459954D01*
X140392734Y-83329432D01*
X140392728Y-83329429D01*
X140365038Y-83316517D01*
X140334724Y-83302381D01*
X140282285Y-83256210D01*
X140263133Y-83189017D01*
X140283348Y-83122135D01*
X140334725Y-83077618D01*
X140392734Y-83050568D01*
X140579139Y-82920047D01*
X140740047Y-82759139D01*
X140870568Y-82572734D01*
X140966739Y-82366496D01*
X141025635Y-82146692D01*
X141045468Y-81920000D01*
X141025635Y-81693308D01*
X140966739Y-81473504D01*
X140870568Y-81267266D01*
X140740047Y-81080861D01*
X140740045Y-81080858D01*
X140579141Y-80919954D01*
X140392734Y-80789432D01*
X140392728Y-80789429D01*
X140334725Y-80762382D01*
X140282285Y-80716210D01*
X140263133Y-80649017D01*
X140283348Y-80582135D01*
X140334725Y-80537618D01*
X140392734Y-80510568D01*
X140579139Y-80380047D01*
X140740047Y-80219139D01*
X140870568Y-80032734D01*
X140966739Y-79826496D01*
X141025635Y-79606692D01*
X141045468Y-79380000D01*
X141025635Y-79153308D01*
X140966739Y-78933504D01*
X140870568Y-78727266D01*
X140740047Y-78540861D01*
X140740045Y-78540858D01*
X140579141Y-78379954D01*
X140392734Y-78249432D01*
X140392728Y-78249429D01*
X140365038Y-78236517D01*
X140334724Y-78222381D01*
X140282285Y-78176210D01*
X140263133Y-78109017D01*
X140283348Y-78042135D01*
X140334725Y-77997618D01*
X140392734Y-77970568D01*
X140579139Y-77840047D01*
X140740047Y-77679139D01*
X140870568Y-77492734D01*
X140966739Y-77286496D01*
X141025635Y-77066692D01*
X141045468Y-76840000D01*
X141025635Y-76613308D01*
X140966739Y-76393504D01*
X140870568Y-76187266D01*
X140740047Y-76000861D01*
X140740045Y-76000858D01*
X140579141Y-75839954D01*
X140392734Y-75709432D01*
X140392728Y-75709429D01*
X140365038Y-75696517D01*
X140334724Y-75682381D01*
X140282285Y-75636210D01*
X140263133Y-75569017D01*
X140283348Y-75502135D01*
X140334725Y-75457618D01*
X140392734Y-75430568D01*
X140579139Y-75300047D01*
X140740047Y-75139139D01*
X140870568Y-74952734D01*
X140966739Y-74746496D01*
X141025635Y-74526692D01*
X141045468Y-74300000D01*
X141025635Y-74073308D01*
X140966739Y-73853504D01*
X140870568Y-73647266D01*
X140740047Y-73460861D01*
X140740045Y-73460858D01*
X140579141Y-73299954D01*
X140392734Y-73169432D01*
X140392728Y-73169429D01*
X140365038Y-73156517D01*
X140334724Y-73142381D01*
X140282285Y-73096210D01*
X140263133Y-73029017D01*
X140283348Y-72962135D01*
X140334725Y-72917618D01*
X140392734Y-72890568D01*
X140579139Y-72760047D01*
X140740047Y-72599139D01*
X140870568Y-72412734D01*
X140966739Y-72206496D01*
X141025635Y-71986692D01*
X141045468Y-71760000D01*
X141025635Y-71533308D01*
X140966739Y-71313504D01*
X140870568Y-71107266D01*
X140740047Y-70920861D01*
X140740045Y-70920858D01*
X140579141Y-70759954D01*
X140392734Y-70629432D01*
X140392728Y-70629429D01*
X140334725Y-70602382D01*
X140282285Y-70556210D01*
X140263133Y-70489017D01*
X140283348Y-70422135D01*
X140334725Y-70377618D01*
X140392734Y-70350568D01*
X140579139Y-70220047D01*
X140601939Y-70197246D01*
X140663260Y-70163762D01*
X140732951Y-70168745D01*
X140777301Y-70197247D01*
X142313181Y-71733127D01*
X142346666Y-71794450D01*
X142349500Y-71820808D01*
X142349500Y-97179192D01*
X142329815Y-97246231D01*
X142313181Y-97266873D01*
X140266873Y-99313181D01*
X140205550Y-99346666D01*
X140179192Y-99349500D01*
X126369808Y-99349500D01*
X126302769Y-99329815D01*
X126257014Y-99277011D01*
X126247070Y-99207853D01*
X126276095Y-99144297D01*
X126282127Y-99137819D01*
X127005272Y-98414674D01*
X127005277Y-98414669D01*
X127076466Y-98308126D01*
X127125501Y-98189743D01*
X127150500Y-98064069D01*
X127150500Y-97935931D01*
X127150500Y-95435931D01*
X127150500Y-95435928D01*
X127125502Y-95310261D01*
X127125501Y-95310260D01*
X127125501Y-95310256D01*
X127076465Y-95191873D01*
X127058891Y-95165571D01*
X127005277Y-95085331D01*
X127005275Y-95085328D01*
X126034673Y-94114726D01*
X125974133Y-94074275D01*
X125928127Y-94043535D01*
X125809744Y-93994499D01*
X125809738Y-93994497D01*
X125678094Y-93968311D01*
X125678371Y-93966914D01*
X125620211Y-93943420D01*
X125595591Y-93917312D01*
X125500046Y-93780859D01*
X125339141Y-93619954D01*
X125152734Y-93489432D01*
X125152728Y-93489429D01*
X125094725Y-93462382D01*
X125042285Y-93416210D01*
X125023133Y-93349017D01*
X125043348Y-93282135D01*
X125094725Y-93237618D01*
X125152734Y-93210568D01*
X125339139Y-93080047D01*
X125500047Y-92919139D01*
X125630568Y-92732734D01*
X125726739Y-92526496D01*
X125785635Y-92306692D01*
X125805468Y-92080000D01*
X125785635Y-91853308D01*
X125726739Y-91633504D01*
X125630568Y-91427266D01*
X125500047Y-91240861D01*
X125500045Y-91240858D01*
X125339141Y-91079954D01*
X125152734Y-90949432D01*
X125152728Y-90949429D01*
X125094725Y-90922382D01*
X125042285Y-90876210D01*
X125023133Y-90809017D01*
X125043348Y-90742135D01*
X125094725Y-90697618D01*
X125152734Y-90670568D01*
X125339139Y-90540047D01*
X125500047Y-90379139D01*
X125630568Y-90192734D01*
X125726739Y-89986496D01*
X125785635Y-89766692D01*
X125805468Y-89540000D01*
X125785635Y-89313308D01*
X125726739Y-89093504D01*
X125630568Y-88887266D01*
X125500047Y-88700861D01*
X125500045Y-88700858D01*
X125339141Y-88539954D01*
X125152734Y-88409432D01*
X125152728Y-88409429D01*
X125125038Y-88396517D01*
X125094724Y-88382381D01*
X125042285Y-88336210D01*
X125023133Y-88269017D01*
X125043348Y-88202135D01*
X125094725Y-88157618D01*
X125108317Y-88151280D01*
X125152734Y-88130568D01*
X125339139Y-88000047D01*
X125500047Y-87839139D01*
X125630568Y-87652734D01*
X125726739Y-87446496D01*
X125785635Y-87226692D01*
X125805468Y-87000000D01*
X125785635Y-86773308D01*
X125726739Y-86553504D01*
X125630568Y-86347266D01*
X125500047Y-86160861D01*
X125500045Y-86160858D01*
X125339141Y-85999954D01*
X125152734Y-85869432D01*
X125152728Y-85869429D01*
X125125038Y-85856517D01*
X125094724Y-85842381D01*
X125042285Y-85796210D01*
X125023133Y-85729017D01*
X125043348Y-85662135D01*
X125094725Y-85617618D01*
X125152734Y-85590568D01*
X125339139Y-85460047D01*
X125500047Y-85299139D01*
X125630568Y-85112734D01*
X125726739Y-84906496D01*
X125785635Y-84686692D01*
X125805468Y-84460000D01*
X125785635Y-84233308D01*
X125726739Y-84013504D01*
X125630568Y-83807266D01*
X125500047Y-83620861D01*
X125500045Y-83620858D01*
X125339141Y-83459954D01*
X125152734Y-83329432D01*
X125152728Y-83329429D01*
X125125038Y-83316517D01*
X125094724Y-83302381D01*
X125042285Y-83256210D01*
X125023133Y-83189017D01*
X125043348Y-83122135D01*
X125094725Y-83077618D01*
X125152734Y-83050568D01*
X125339139Y-82920047D01*
X125500047Y-82759139D01*
X125630568Y-82572734D01*
X125726739Y-82366496D01*
X125785635Y-82146692D01*
X125805468Y-81920000D01*
X125785635Y-81693308D01*
X125726739Y-81473504D01*
X125630568Y-81267266D01*
X125500047Y-81080861D01*
X125500045Y-81080858D01*
X125339141Y-80919954D01*
X125152734Y-80789432D01*
X125152728Y-80789429D01*
X125094725Y-80762382D01*
X125042285Y-80716210D01*
X125023133Y-80649017D01*
X125043348Y-80582135D01*
X125094725Y-80537618D01*
X125152734Y-80510568D01*
X125339139Y-80380047D01*
X125500047Y-80219139D01*
X125630568Y-80032734D01*
X125726739Y-79826496D01*
X125785635Y-79606692D01*
X125805468Y-79380000D01*
X125785635Y-79153308D01*
X125726739Y-78933504D01*
X125630568Y-78727266D01*
X125500047Y-78540861D01*
X125500045Y-78540858D01*
X125339141Y-78379954D01*
X125152734Y-78249432D01*
X125152728Y-78249429D01*
X125125038Y-78236517D01*
X125094724Y-78222381D01*
X125042285Y-78176210D01*
X125023133Y-78109017D01*
X125043348Y-78042135D01*
X125094725Y-77997618D01*
X125152734Y-77970568D01*
X125339139Y-77840047D01*
X125500047Y-77679139D01*
X125630568Y-77492734D01*
X125726739Y-77286496D01*
X125785635Y-77066692D01*
X125805468Y-76840000D01*
X125785635Y-76613308D01*
X125726739Y-76393504D01*
X125630568Y-76187266D01*
X125500047Y-76000861D01*
X125500045Y-76000858D01*
X125339141Y-75839954D01*
X125152734Y-75709432D01*
X125152728Y-75709429D01*
X125125038Y-75696517D01*
X125094724Y-75682381D01*
X125042285Y-75636210D01*
X125023133Y-75569017D01*
X125043348Y-75502135D01*
X125094725Y-75457618D01*
X125152734Y-75430568D01*
X125339139Y-75300047D01*
X125500047Y-75139139D01*
X125630568Y-74952734D01*
X125726739Y-74746496D01*
X125785635Y-74526692D01*
X125805468Y-74300000D01*
X125785635Y-74073308D01*
X125726739Y-73853504D01*
X125630568Y-73647266D01*
X125500047Y-73460861D01*
X125500045Y-73460858D01*
X125339141Y-73299954D01*
X125152734Y-73169432D01*
X125152728Y-73169429D01*
X125125038Y-73156517D01*
X125094724Y-73142381D01*
X125042285Y-73096210D01*
X125023133Y-73029017D01*
X125043348Y-72962135D01*
X125094725Y-72917618D01*
X125152734Y-72890568D01*
X125339139Y-72760047D01*
X125500047Y-72599139D01*
X125630568Y-72412734D01*
X125726739Y-72206496D01*
X125785635Y-71986692D01*
X125805468Y-71760000D01*
X125785635Y-71533308D01*
X125726739Y-71313504D01*
X125630568Y-71107266D01*
X125500047Y-70920861D01*
X125500045Y-70920858D01*
X125339141Y-70759954D01*
X125152734Y-70629432D01*
X125152728Y-70629429D01*
X125094725Y-70602382D01*
X125042285Y-70556210D01*
X125023133Y-70489017D01*
X125043348Y-70422135D01*
X125094725Y-70377618D01*
X125152734Y-70350568D01*
X125339139Y-70220047D01*
X125500047Y-70059139D01*
X125630568Y-69872734D01*
X125726739Y-69666496D01*
X125785635Y-69446692D01*
X125805468Y-69220000D01*
X125785635Y-68993308D01*
X125726739Y-68773504D01*
X125630568Y-68567266D01*
X125500047Y-68380861D01*
X125500045Y-68380858D01*
X125339141Y-68219954D01*
X125152734Y-68089432D01*
X125152728Y-68089429D01*
X125094725Y-68062382D01*
X125042285Y-68016210D01*
X125023133Y-67949017D01*
X125043348Y-67882135D01*
X125094725Y-67837618D01*
X125152734Y-67810568D01*
X125339139Y-67680047D01*
X125500047Y-67519139D01*
X125630568Y-67332734D01*
X125726739Y-67126496D01*
X125785635Y-66906692D01*
X125805468Y-66680000D01*
X125785635Y-66453308D01*
X125726739Y-66233504D01*
X125630568Y-66027266D01*
X125500047Y-65840861D01*
X125500045Y-65840858D01*
X125339141Y-65679954D01*
X125152734Y-65549432D01*
X125152728Y-65549429D01*
X125094725Y-65522382D01*
X125042285Y-65476210D01*
X125023133Y-65409017D01*
X125043348Y-65342135D01*
X125094725Y-65297618D01*
X125095319Y-65297341D01*
X125152734Y-65270568D01*
X125339139Y-65140047D01*
X125500047Y-64979139D01*
X125630568Y-64792734D01*
X125726739Y-64586496D01*
X125785635Y-64366692D01*
X125805468Y-64140000D01*
X125785635Y-63913308D01*
X125726739Y-63693504D01*
X125630568Y-63487266D01*
X125500047Y-63300861D01*
X125500045Y-63300858D01*
X125339143Y-63139956D01*
X125314536Y-63122726D01*
X125270912Y-63068149D01*
X125263719Y-62998650D01*
X125295241Y-62936296D01*
X125355471Y-62900882D01*
X125372404Y-62897861D01*
X125407483Y-62894091D01*
X125542331Y-62843796D01*
X125657546Y-62757546D01*
X125743796Y-62642331D01*
X125794091Y-62507483D01*
X125800500Y-62447873D01*
X125800499Y-60752128D01*
X125794091Y-60692517D01*
X125793851Y-60691874D01*
X125743797Y-60557671D01*
X125743793Y-60557664D01*
X125657547Y-60442455D01*
X125657544Y-60442452D01*
X125542335Y-60356206D01*
X125542328Y-60356202D01*
X125407482Y-60305908D01*
X125407483Y-60305908D01*
X125347883Y-60299501D01*
X125347881Y-60299500D01*
X125347873Y-60299500D01*
X125347864Y-60299500D01*
X123652129Y-60299500D01*
X123652123Y-60299501D01*
X123592516Y-60305908D01*
X123457671Y-60356202D01*
X123457664Y-60356206D01*
X123342455Y-60442452D01*
X123342452Y-60442455D01*
X123256206Y-60557664D01*
X123256202Y-60557671D01*
X123205908Y-60692517D01*
X123199501Y-60752116D01*
X123199501Y-60752123D01*
X123199500Y-60752135D01*
X123199500Y-62447870D01*
X123199501Y-62447876D01*
X123205908Y-62507483D01*
X123256202Y-62642328D01*
X123256206Y-62642335D01*
X123342452Y-62757544D01*
X123342455Y-62757547D01*
X123457664Y-62843793D01*
X123457671Y-62843797D01*
X123502618Y-62860561D01*
X123592517Y-62894091D01*
X123627596Y-62897862D01*
X123692144Y-62924599D01*
X123731993Y-62981991D01*
X123734488Y-63051816D01*
X123698836Y-63111905D01*
X123685464Y-63122725D01*
X123660858Y-63139954D01*
X123499954Y-63300858D01*
X123369432Y-63487265D01*
X123369431Y-63487267D01*
X123273261Y-63693502D01*
X123273258Y-63693511D01*
X123214366Y-63913302D01*
X123214365Y-63913305D01*
X123214365Y-63913308D01*
X123211417Y-63947007D01*
X123194532Y-64139998D01*
X123194532Y-64140001D01*
X123214364Y-64366686D01*
X123214366Y-64366697D01*
X123273258Y-64586488D01*
X123273261Y-64586497D01*
X123369431Y-64792732D01*
X123369432Y-64792734D01*
X123499954Y-64979141D01*
X123660858Y-65140045D01*
X123660861Y-65140047D01*
X123847266Y-65270568D01*
X123904681Y-65297341D01*
X123905275Y-65297618D01*
X123957714Y-65343791D01*
X123976866Y-65410984D01*
X123956650Y-65477865D01*
X123905275Y-65522382D01*
X123847267Y-65549431D01*
X123847265Y-65549432D01*
X123660858Y-65679954D01*
X123499954Y-65840858D01*
X123369432Y-66027265D01*
X123369431Y-66027267D01*
X123273261Y-66233502D01*
X123273258Y-66233511D01*
X123214366Y-66453302D01*
X123214364Y-66453313D01*
X123194532Y-66679998D01*
X123194532Y-66680001D01*
X123214364Y-66906686D01*
X123214366Y-66906697D01*
X123273258Y-67126488D01*
X123273261Y-67126497D01*
X123369431Y-67332732D01*
X123369432Y-67332734D01*
X123499954Y-67519141D01*
X123660858Y-67680045D01*
X123660861Y-67680047D01*
X123847266Y-67810568D01*
X123905275Y-67837618D01*
X123957714Y-67883791D01*
X123976866Y-67950984D01*
X123956650Y-68017865D01*
X123905275Y-68062382D01*
X123847267Y-68089431D01*
X123847265Y-68089432D01*
X123660858Y-68219954D01*
X123499954Y-68380858D01*
X123369432Y-68567265D01*
X123369431Y-68567267D01*
X123273261Y-68773502D01*
X123273258Y-68773511D01*
X123214366Y-68993302D01*
X123214364Y-68993313D01*
X123194532Y-69219998D01*
X123194532Y-69220001D01*
X123214364Y-69446686D01*
X123214366Y-69446697D01*
X123273258Y-69666488D01*
X123273261Y-69666497D01*
X123369431Y-69872732D01*
X123369432Y-69872734D01*
X123499954Y-70059141D01*
X123660858Y-70220045D01*
X123660861Y-70220047D01*
X123847266Y-70350568D01*
X123905275Y-70377618D01*
X123957714Y-70423791D01*
X123976866Y-70490984D01*
X123956650Y-70557865D01*
X123905275Y-70602382D01*
X123847267Y-70629431D01*
X123847265Y-70629432D01*
X123660858Y-70759954D01*
X123499954Y-70920858D01*
X123369432Y-71107265D01*
X123369431Y-71107267D01*
X123273261Y-71313502D01*
X123273258Y-71313511D01*
X123214366Y-71533302D01*
X123214364Y-71533313D01*
X123194532Y-71759998D01*
X123194532Y-71760001D01*
X123214364Y-71986686D01*
X123214366Y-71986697D01*
X123273258Y-72206488D01*
X123273261Y-72206497D01*
X123369431Y-72412732D01*
X123369432Y-72412734D01*
X123499954Y-72599141D01*
X123660858Y-72760045D01*
X123660861Y-72760047D01*
X123847266Y-72890568D01*
X123905275Y-72917618D01*
X123957714Y-72963791D01*
X123976866Y-73030984D01*
X123956650Y-73097865D01*
X123905275Y-73142381D01*
X123898843Y-73145381D01*
X123847267Y-73169431D01*
X123847265Y-73169432D01*
X123660858Y-73299954D01*
X123499954Y-73460858D01*
X123369432Y-73647265D01*
X123369431Y-73647267D01*
X123273261Y-73853502D01*
X123273258Y-73853511D01*
X123214366Y-74073302D01*
X123214364Y-74073313D01*
X123194532Y-74299998D01*
X123194532Y-74300001D01*
X123214364Y-74526686D01*
X123214366Y-74526697D01*
X123273258Y-74746488D01*
X123273261Y-74746497D01*
X123369431Y-74952732D01*
X123369432Y-74952734D01*
X123499954Y-75139141D01*
X123660858Y-75300045D01*
X123660861Y-75300047D01*
X123847266Y-75430568D01*
X123905275Y-75457618D01*
X123957714Y-75503791D01*
X123976866Y-75570984D01*
X123956650Y-75637865D01*
X123905275Y-75682381D01*
X123898843Y-75685381D01*
X123847267Y-75709431D01*
X123847265Y-75709432D01*
X123660858Y-75839954D01*
X123499954Y-76000858D01*
X123369432Y-76187265D01*
X123369431Y-76187267D01*
X123273261Y-76393502D01*
X123273258Y-76393511D01*
X123214366Y-76613302D01*
X123214364Y-76613313D01*
X123194532Y-76839998D01*
X123194532Y-76840001D01*
X123214364Y-77066686D01*
X123214366Y-77066697D01*
X123273258Y-77286488D01*
X123273261Y-77286497D01*
X123369431Y-77492732D01*
X123369432Y-77492734D01*
X123499954Y-77679141D01*
X123660858Y-77840045D01*
X123660861Y-77840047D01*
X123847266Y-77970568D01*
X123905275Y-77997618D01*
X123957714Y-78043791D01*
X123976866Y-78110984D01*
X123956650Y-78177865D01*
X123905275Y-78222381D01*
X123898843Y-78225381D01*
X123847267Y-78249431D01*
X123847265Y-78249432D01*
X123660858Y-78379954D01*
X123499954Y-78540858D01*
X123369432Y-78727265D01*
X123369431Y-78727267D01*
X123273261Y-78933502D01*
X123273258Y-78933511D01*
X123214366Y-79153302D01*
X123214364Y-79153313D01*
X123194532Y-79379998D01*
X123194532Y-79380001D01*
X123214364Y-79606686D01*
X123214366Y-79606697D01*
X123273258Y-79826488D01*
X123273261Y-79826497D01*
X123369431Y-80032732D01*
X123369432Y-80032734D01*
X123499954Y-80219141D01*
X123660858Y-80380045D01*
X123660861Y-80380047D01*
X123847266Y-80510568D01*
X123905275Y-80537618D01*
X123957714Y-80583791D01*
X123976866Y-80650984D01*
X123956650Y-80717865D01*
X123905275Y-80762382D01*
X123847267Y-80789431D01*
X123847265Y-80789432D01*
X123660858Y-80919954D01*
X123499954Y-81080858D01*
X123369432Y-81267265D01*
X123369431Y-81267267D01*
X123273261Y-81473502D01*
X123273258Y-81473511D01*
X123214366Y-81693302D01*
X123214364Y-81693313D01*
X123194532Y-81919998D01*
X123194532Y-81920001D01*
X123214364Y-82146686D01*
X123214366Y-82146697D01*
X123273258Y-82366488D01*
X123273261Y-82366497D01*
X123369431Y-82572732D01*
X123369432Y-82572734D01*
X123499954Y-82759141D01*
X123660858Y-82920045D01*
X123660861Y-82920047D01*
X123847266Y-83050568D01*
X123905275Y-83077618D01*
X123957714Y-83123791D01*
X123976866Y-83190984D01*
X123956650Y-83257865D01*
X123905275Y-83302381D01*
X123898843Y-83305381D01*
X123847267Y-83329431D01*
X123847265Y-83329432D01*
X123660858Y-83459954D01*
X123499954Y-83620858D01*
X123369432Y-83807265D01*
X123369431Y-83807267D01*
X123273261Y-84013502D01*
X123273258Y-84013511D01*
X123214366Y-84233302D01*
X123214364Y-84233313D01*
X123194532Y-84459998D01*
X123194532Y-84460001D01*
X123214364Y-84686686D01*
X123214366Y-84686697D01*
X123273258Y-84906488D01*
X123273261Y-84906497D01*
X123369431Y-85112732D01*
X123369432Y-85112734D01*
X123499954Y-85299141D01*
X123660858Y-85460045D01*
X123660861Y-85460047D01*
X123847266Y-85590568D01*
X123905275Y-85617618D01*
X123957714Y-85663791D01*
X123976866Y-85730984D01*
X123956650Y-85797865D01*
X123905275Y-85842381D01*
X123898843Y-85845381D01*
X123847267Y-85869431D01*
X123847265Y-85869432D01*
X123660858Y-85999954D01*
X123499954Y-86160858D01*
X123369432Y-86347265D01*
X123369431Y-86347267D01*
X123273261Y-86553502D01*
X123273258Y-86553511D01*
X123214366Y-86773302D01*
X123214364Y-86773313D01*
X123194532Y-86999998D01*
X123194532Y-87000001D01*
X123214364Y-87226686D01*
X123214366Y-87226697D01*
X123273258Y-87446488D01*
X123273261Y-87446497D01*
X123369431Y-87652732D01*
X123369432Y-87652734D01*
X123499954Y-87839141D01*
X123660858Y-88000045D01*
X123660861Y-88000047D01*
X123847266Y-88130568D01*
X123891683Y-88151280D01*
X123905275Y-88157618D01*
X123957714Y-88203791D01*
X123976866Y-88270984D01*
X123956650Y-88337865D01*
X123905275Y-88382381D01*
X123898843Y-88385381D01*
X123847267Y-88409431D01*
X123847265Y-88409432D01*
X123660858Y-88539954D01*
X123499954Y-88700858D01*
X123369432Y-88887265D01*
X123369431Y-88887267D01*
X123273261Y-89093502D01*
X123273258Y-89093511D01*
X123214366Y-89313302D01*
X123214364Y-89313313D01*
X123194532Y-89539998D01*
X123195001Y-89545362D01*
X123181231Y-89613862D01*
X123132613Y-89664042D01*
X123064584Y-89679973D01*
X122998741Y-89656594D01*
X122983791Y-89643845D01*
X122686819Y-89346873D01*
X122653334Y-89285550D01*
X122650500Y-89259192D01*
X122650500Y-75935928D01*
X122625502Y-75810261D01*
X122625501Y-75810260D01*
X122625501Y-75810256D01*
X122587629Y-75718825D01*
X122587628Y-75718822D01*
X122576468Y-75691878D01*
X122576462Y-75691868D01*
X122505278Y-75585332D01*
X122505272Y-75585325D01*
X120374673Y-73454726D01*
X120339688Y-73431350D01*
X120268127Y-73383535D01*
X120149744Y-73334499D01*
X120149738Y-73334497D01*
X120024071Y-73309500D01*
X120024069Y-73309500D01*
X117150294Y-73309500D01*
X117083255Y-73289815D01*
X117048719Y-73256623D01*
X116970827Y-73145381D01*
X116898707Y-73073261D01*
X116814620Y-72989174D01*
X116814616Y-72989171D01*
X116814615Y-72989170D01*
X116633666Y-72862468D01*
X116633662Y-72862466D01*
X116633660Y-72862465D01*
X116433450Y-72769106D01*
X116433447Y-72769105D01*
X116433445Y-72769104D01*
X116220070Y-72711930D01*
X116220062Y-72711929D01*
X116000002Y-72692677D01*
X115999998Y-72692677D01*
X115779937Y-72711929D01*
X115779929Y-72711930D01*
X115566554Y-72769104D01*
X115566548Y-72769107D01*
X115366340Y-72862465D01*
X115366338Y-72862466D01*
X115185377Y-72989175D01*
X115029175Y-73145377D01*
X114902466Y-73326338D01*
X114902465Y-73326340D01*
X114886882Y-73359759D01*
X114840709Y-73412198D01*
X114773516Y-73431350D01*
X114706634Y-73411134D01*
X114661300Y-73357968D01*
X114650500Y-73307354D01*
X114650500Y-71820807D01*
X114670185Y-71753768D01*
X114686819Y-71733126D01*
X121005273Y-65414672D01*
X121005276Y-65414669D01*
X121076465Y-65308127D01*
X121125501Y-65189744D01*
X121150500Y-65064069D01*
X121150500Y-61320808D01*
X121170185Y-61253769D01*
X121186819Y-61233127D01*
X123233127Y-59186819D01*
X123294450Y-59153334D01*
X123320808Y-59150500D01*
X129179192Y-59150500D01*
X129246231Y-59170185D01*
G37*
%TD.AperFunction*%
M02*
