M48
; DRILL file {KiCad 8.0.2} date 2024-11-10T18:04:01+0100
; FORMAT={-:-/ absolute / inch / decimal}
; #@! TF.CreationDate,2024-11-10T18:04:01+01:00
; #@! TF.GenerationSoftware,Kicad,Pcbnew,8.0.2
; #@! TF.FileFunction,Plated,1,2,PTH
FMAT,2
INCH
; #@! TA.AperFunction,Plated,PTH,ComponentDrill
T1C0.0236
; #@! TA.AperFunction,Plated,PTH,ComponentDrill
T2C0.0300
; #@! TA.AperFunction,Plated,PTH,ComponentDrill
T3C0.0394
%
G90
G05
T1
X4.5669Y-2.4606
X4.5669Y-2.5394
T2
X4.5669Y-2.9118
X4.5669Y-3.0118
X4.5669Y-3.1118
X4.5669Y-3.2118
X4.5669Y-3.3118
X4.5669Y-3.4118
X4.5669Y-3.5118
T3
X4.9016Y-2.4252
X4.9016Y-2.5252
X4.9016Y-2.6252
X4.9016Y-2.7252
X4.9016Y-2.8252
X4.9016Y-2.9252
X4.9016Y-3.0252
X4.9016Y-3.1252
X4.9016Y-3.2252
X4.9016Y-3.3252
X4.9016Y-3.4252
X4.9016Y-3.5252
X4.9016Y-3.6252
X4.9016Y-3.7252
X4.9016Y-3.8252
X5.5016Y-2.4252
X5.5016Y-2.5252
X5.5016Y-2.6252
X5.5016Y-2.7252
X5.5016Y-2.8252
X5.5016Y-2.9252
X5.5016Y-3.0252
X5.5016Y-3.1252
X5.5016Y-3.2252
X5.5016Y-3.3252
X5.5016Y-3.4252
X5.5016Y-3.5252
X5.5016Y-3.6252
X5.5016Y-3.7252
X5.5016Y-3.8252
M30
