%TF.GenerationSoftware,KiCad,Pcbnew,8.0.2*%
%TF.CreationDate,2024-11-06T18:52:59+01:00*%
%TF.ProjectId,pcb,7063622e-6b69-4636-9164-5f7063625858,rev?*%
%TF.SameCoordinates,Original*%
%TF.FileFunction,Copper,L2,Bot*%
%TF.FilePolarity,Positive*%
%FSLAX46Y46*%
G04 Gerber Fmt 4.6, Leading zero omitted, Abs format (unit mm)*
G04 Created by KiCad (PCBNEW 8.0.2) date 2024-11-06 18:52:59*
%MOMM*%
%LPD*%
G01*
G04 APERTURE LIST*
G04 Aperture macros list*
%AMRoundRect*
0 Rectangle with rounded corners*
0 $1 Rounding radius*
0 $2 $3 $4 $5 $6 $7 $8 $9 X,Y pos of 4 corners*
0 Add a 4 corners polygon primitive as box body*
4,1,4,$2,$3,$4,$5,$6,$7,$8,$9,$2,$3,0*
0 Add four circle primitives for the rounded corners*
1,1,$1+$1,$2,$3*
1,1,$1+$1,$4,$5*
1,1,$1+$1,$6,$7*
1,1,$1+$1,$8,$9*
0 Add four rect primitives between the rounded corners*
20,1,$1+$1,$2,$3,$4,$5,0*
20,1,$1+$1,$4,$5,$6,$7,0*
20,1,$1+$1,$6,$7,$8,$9,0*
20,1,$1+$1,$8,$9,$2,$3,0*%
G04 Aperture macros list end*
%TA.AperFunction,Conductor*%
%ADD10C,0.200000*%
%TD*%
%TA.AperFunction,EtchedComponent*%
%ADD11C,0.100000*%
%TD*%
%TA.AperFunction,ComponentPad*%
%ADD12C,1.600000*%
%TD*%
%TA.AperFunction,ComponentPad*%
%ADD13O,1.600000X1.600000*%
%TD*%
%TA.AperFunction,ComponentPad*%
%ADD14C,2.000000*%
%TD*%
%TA.AperFunction,ComponentPad*%
%ADD15C,1.524000*%
%TD*%
%TA.AperFunction,ComponentPad*%
%ADD16R,2.000000X2.000000*%
%TD*%
%TA.AperFunction,ComponentPad*%
%ADD17R,1.800000X1.800000*%
%TD*%
%TA.AperFunction,ComponentPad*%
%ADD18C,1.800000*%
%TD*%
%TA.AperFunction,ComponentPad*%
%ADD19R,1.600000X1.600000*%
%TD*%
%TA.AperFunction,SMDPad,CuDef*%
%ADD20RoundRect,0.381000X0.762000X0.381000X-0.762000X0.381000X-0.762000X-0.381000X0.762000X-0.381000X0*%
%TD*%
G04 APERTURE END LIST*
%TO.N,+5V*%
D10*
X114612500Y-115225000D02*
X116387500Y-115225000D01*
X116387500Y-116500000D01*
X114612500Y-116500000D01*
X114612500Y-115225000D01*
%TA.AperFunction,Conductor*%
G36*
X114612500Y-115225000D02*
G01*
X116387500Y-115225000D01*
X116387500Y-116500000D01*
X114612500Y-116500000D01*
X114612500Y-115225000D01*
G37*
%TD.AperFunction*%
X99362500Y-115225000D02*
X101137500Y-115225000D01*
X101137500Y-116300000D01*
X99362500Y-116300000D01*
X99362500Y-115225000D01*
%TA.AperFunction,Conductor*%
G36*
X99362500Y-115225000D02*
G01*
X101137500Y-115225000D01*
X101137500Y-116300000D01*
X99362500Y-116300000D01*
X99362500Y-115225000D01*
G37*
%TD.AperFunction*%
D11*
%TD*%
%TO.C,U3*%
X127603718Y-140250000D02*
G75*
G02*
X103396282Y-140250000I-12103718J0D01*
G01*
X103396282Y-140250000D02*
G75*
G02*
X127603718Y-140250000I12103718J0D01*
G01*
D12*
%TO.P,R3,1*%
%TO.N,Net-(U1-PB1)*%
X99200000Y-118000000D03*
D13*
%TO.P,R3,2*%
%TO.N,Net-(D1-A)*%
X99200000Y-128160000D03*
%TD*%
D14*
%TO.P,SW1,1,1*%
%TO.N,Net-(U1-PB2)*%
X112000000Y-121750000D03*
X118500000Y-121750000D03*
%TO.P,SW1,2,2*%
%TO.N,GND*%
X112000000Y-126250000D03*
X118500000Y-126250000D03*
%TD*%
D15*
%TO.P,U2,1,ARD10*%
%TO.N,Net-(U1-~{RESET}{slash}PB5)*%
X107700000Y-102450000D03*
%TO.P,U2,2,ARD13*%
%TO.N,Net-(U1-PB2)*%
X110240000Y-102450000D03*
%TO.P,U2,3,ARD12*%
%TO.N,Net-(U1-PB1)*%
X112780000Y-102450000D03*
%TO.P,U2,4,GND*%
%TO.N,GND*%
X115320000Y-102450000D03*
%TO.P,U2,5,ARD11*%
%TO.N,Net-(U1-AREF{slash}PB0)*%
X117860000Y-102450000D03*
%TO.P,U2,6,5V*%
%TO.N,+5V*%
X120400000Y-102450000D03*
%TO.P,U2,7,5V*%
X122940000Y-102450000D03*
%TD*%
D16*
%TO.P,BZ1,1,+*%
%TO.N,Net-(BZ1-+)*%
X124250000Y-109250000D03*
D14*
%TO.P,BZ1,2,-*%
%TO.N,GND*%
X124250000Y-116850000D03*
%TD*%
D12*
%TO.P,R2,1*%
%TO.N,GND*%
X108000000Y-118000000D03*
D13*
%TO.P,R2,2*%
%TO.N,Net-(U3-+)*%
X108000000Y-128160000D03*
%TD*%
D17*
%TO.P,D1,1,K*%
%TO.N,GND*%
X129500000Y-122775000D03*
D18*
%TO.P,D1,2,A*%
%TO.N,Net-(D1-A)*%
X129500000Y-125315000D03*
%TD*%
D12*
%TO.P,R1,1*%
%TO.N,Net-(U1-XTAL1{slash}PB3)*%
X103600000Y-118000000D03*
D13*
%TO.P,R1,2*%
%TO.N,Net-(U3-+)*%
X103600000Y-128160000D03*
%TD*%
D19*
%TO.P,U1,1,~{RESET}/PB5*%
%TO.N,Net-(U1-~{RESET}{slash}PB5)*%
X105500000Y-113000000D03*
D13*
%TO.P,U1,2,XTAL1/PB3*%
%TO.N,Net-(U1-XTAL1{slash}PB3)*%
X108040000Y-113000000D03*
%TO.P,U1,3,XTAL2/PB4*%
%TO.N,Net-(BZ1-+)*%
X110580000Y-113000000D03*
%TO.P,U1,4,GND*%
%TO.N,GND*%
X113120000Y-113000000D03*
%TO.P,U1,5,AREF/PB0*%
%TO.N,Net-(U1-AREF{slash}PB0)*%
X113120000Y-105380000D03*
%TO.P,U1,6,PB1*%
%TO.N,Net-(U1-PB1)*%
X110580000Y-105380000D03*
%TO.P,U1,7,PB2*%
%TO.N,Net-(U1-PB2)*%
X108040000Y-105380000D03*
%TO.P,U1,8,VCC*%
%TO.N,+5V*%
X105500000Y-105380000D03*
%TD*%
D20*
%TO.P,U3,1,-*%
%TO.N,GND*%
X100500000Y-141750000D03*
%TO.P,U3,2,+*%
%TO.N,Net-(U3-+)*%
X100500000Y-138750000D03*
%TD*%
D10*
%TO.N,Net-(U1-~{RESET}{slash}PB5)*%
X105500000Y-113000000D02*
X105500000Y-113800000D01*
X97722345Y-110277655D02*
X105550000Y-102450000D01*
X105500000Y-113800000D02*
X99784314Y-119515686D01*
X99784314Y-119515686D02*
X98621234Y-119515686D01*
X98621234Y-119515686D02*
X97722345Y-118616797D01*
X97722345Y-118616797D02*
X97722345Y-110277655D01*
X105550000Y-102450000D02*
X107700000Y-102450000D01*
%TO.N,Net-(U1-PB2)*%
X112000000Y-121750000D02*
X118500000Y-121750000D01*
%TO.N,Net-(U1-XTAL1{slash}PB3)*%
X103600000Y-118000000D02*
X108040000Y-113560000D01*
X108040000Y-113560000D02*
X108040000Y-113000000D01*
%TO.N,+5V*%
X115500000Y-115500000D02*
X120400000Y-110600000D01*
X120400000Y-110600000D02*
X120400000Y-102450000D01*
%TO.N,Net-(BZ1-+)*%
X110580000Y-113000000D02*
X110580000Y-116080000D01*
X111500000Y-117000000D02*
X116500000Y-117000000D01*
X110580000Y-116080000D02*
X111500000Y-117000000D01*
X116500000Y-117000000D02*
X124250000Y-109250000D01*
%TO.N,Net-(U1-PB2)*%
X118500000Y-121750000D02*
X123750000Y-121750000D01*
X123750000Y-121750000D02*
X127000000Y-118500000D01*
X127000000Y-118500000D02*
X127000000Y-103500000D01*
X127000000Y-103500000D02*
X124000000Y-100500000D01*
X124000000Y-100500000D02*
X112190000Y-100500000D01*
X112190000Y-100500000D02*
X110240000Y-102450000D01*
%TO.N,Net-(U1-AREF{slash}PB0)*%
X113120000Y-105380000D02*
X114930000Y-105380000D01*
X114930000Y-105380000D02*
X117860000Y-102450000D01*
%TO.N,Net-(U1-PB1)*%
X110580000Y-105380000D02*
X112780000Y-103180000D01*
X112780000Y-103180000D02*
X112780000Y-102450000D01*
%TO.N,Net-(U1-PB2)*%
X108040000Y-105380000D02*
X110240000Y-103180000D01*
X110240000Y-103180000D02*
X110240000Y-102450000D01*
%TO.N,+5V*%
X100262000Y-115500000D02*
X100262000Y-110618000D01*
X100262000Y-110618000D02*
X105500000Y-105380000D01*
%TO.N,Net-(U1-PB1)*%
X99200000Y-118000000D02*
X100331370Y-118000000D01*
X100331370Y-118000000D02*
X103000000Y-115331370D01*
X103000000Y-115331370D02*
X103000000Y-111500000D01*
X103000000Y-111500000D02*
X104000000Y-110500000D01*
X104000000Y-110500000D02*
X109500000Y-110500000D01*
X109500000Y-110500000D02*
X110580000Y-109420000D01*
X110580000Y-109420000D02*
X110580000Y-105380000D01*
%TO.N,Net-(U3-+)*%
X103600000Y-128160000D02*
X103600000Y-135650000D01*
X103600000Y-135650000D02*
X100500000Y-138750000D01*
%TO.N,Net-(D1-A)*%
X99200000Y-128160000D02*
X103560000Y-123800000D01*
X103560000Y-123800000D02*
X127400000Y-123800000D01*
X128915000Y-125315000D02*
X129500000Y-125315000D01*
X127400000Y-123800000D02*
X128915000Y-125315000D01*
%TO.N,Net-(U3-+)*%
X103600000Y-128160000D02*
X108000000Y-128160000D01*
%TO.N,+5V*%
X120400000Y-102450000D02*
X122940000Y-102450000D01*
%TD*%
%TA.AperFunction,Conductor*%
%TO.N,GND*%
G36*
X131505394Y-100000972D02*
G01*
X131535721Y-100003625D01*
X131662755Y-100014739D01*
X131684035Y-100018491D01*
X131801188Y-100049882D01*
X131831369Y-100057969D01*
X131851681Y-100065362D01*
X131989915Y-100129822D01*
X132008633Y-100140629D01*
X132133582Y-100228119D01*
X132150140Y-100242013D01*
X132257986Y-100349859D01*
X132271880Y-100366417D01*
X132359370Y-100491366D01*
X132370177Y-100510084D01*
X132434637Y-100648318D01*
X132442030Y-100668630D01*
X132481507Y-100815961D01*
X132485260Y-100837246D01*
X132499028Y-100994605D01*
X132499500Y-101005413D01*
X132499500Y-151494586D01*
X132499028Y-151505394D01*
X132485260Y-151662753D01*
X132481507Y-151684038D01*
X132442030Y-151831369D01*
X132434637Y-151851681D01*
X132370177Y-151989915D01*
X132359370Y-152008633D01*
X132271880Y-152133582D01*
X132257986Y-152150140D01*
X132150140Y-152257986D01*
X132133582Y-152271880D01*
X132008633Y-152359370D01*
X131989915Y-152370177D01*
X131851681Y-152434637D01*
X131831369Y-152442030D01*
X131684038Y-152481507D01*
X131662753Y-152485260D01*
X131505395Y-152499028D01*
X131494587Y-152499500D01*
X119535026Y-152499500D01*
X119467987Y-152479815D01*
X119422232Y-152427011D01*
X119412288Y-152357853D01*
X119441313Y-152294297D01*
X119497370Y-152257356D01*
X119507409Y-152254156D01*
X119681068Y-152198806D01*
X120344465Y-151945574D01*
X120992620Y-151655543D01*
X121623493Y-151329627D01*
X122235099Y-150968849D01*
X122825515Y-150574347D01*
X123392881Y-150147360D01*
X123567390Y-150000000D01*
X127844475Y-150000000D01*
X127864551Y-150293511D01*
X127864552Y-150293513D01*
X127924404Y-150581543D01*
X127924409Y-150581559D01*
X128022927Y-150858762D01*
X128158278Y-151119977D01*
X128158282Y-151119983D01*
X128327932Y-151360323D01*
X128327935Y-151360326D01*
X128463419Y-151505394D01*
X128528743Y-151575338D01*
X128636191Y-151662753D01*
X128756951Y-151760999D01*
X128756953Y-151761000D01*
X128756954Y-151761001D01*
X129008319Y-151913860D01*
X129008324Y-151913862D01*
X129278154Y-152031065D01*
X129278159Y-152031067D01*
X129561445Y-152110440D01*
X129794451Y-152142466D01*
X129852901Y-152150500D01*
X129852902Y-152150500D01*
X130147099Y-152150500D01*
X130205549Y-152142466D01*
X130438555Y-152110440D01*
X130721841Y-152031067D01*
X130991682Y-151913859D01*
X131243049Y-151760999D01*
X131471260Y-151575335D01*
X131672065Y-151360326D01*
X131841722Y-151119976D01*
X131977072Y-150858764D01*
X132075592Y-150581554D01*
X132075592Y-150581549D01*
X132075595Y-150581543D01*
X132110151Y-150415247D01*
X132135448Y-150293511D01*
X132155525Y-150000000D01*
X132135448Y-149706489D01*
X132096523Y-149519171D01*
X132075595Y-149418456D01*
X132075590Y-149418440D01*
X131998456Y-149201405D01*
X131977072Y-149141236D01*
X131841722Y-148880024D01*
X131841721Y-148880022D01*
X131841717Y-148880016D01*
X131672067Y-148639676D01*
X131471256Y-148424661D01*
X131243045Y-148238998D01*
X130991680Y-148086139D01*
X130991675Y-148086137D01*
X130721845Y-147968934D01*
X130438560Y-147889561D01*
X130438556Y-147889560D01*
X130438555Y-147889560D01*
X130292826Y-147869530D01*
X130147099Y-147849500D01*
X130147098Y-147849500D01*
X129852902Y-147849500D01*
X129852901Y-147849500D01*
X129561445Y-147889560D01*
X129561439Y-147889561D01*
X129278154Y-147968934D01*
X129008324Y-148086137D01*
X129008319Y-148086139D01*
X128756954Y-148238998D01*
X128528743Y-148424661D01*
X128327932Y-148639676D01*
X128158282Y-148880016D01*
X128158278Y-148880022D01*
X128022927Y-149141237D01*
X127924409Y-149418440D01*
X127924404Y-149418456D01*
X127864552Y-149706486D01*
X127864551Y-149706488D01*
X127844475Y-150000000D01*
X123567390Y-150000000D01*
X123935413Y-149689232D01*
X124451405Y-149201405D01*
X124939232Y-148685413D01*
X125397360Y-148142881D01*
X125824347Y-147575515D01*
X126218849Y-146985099D01*
X126579627Y-146373493D01*
X126905543Y-145742620D01*
X127195574Y-145094465D01*
X127448806Y-144431068D01*
X127664443Y-143754516D01*
X127841805Y-143066937D01*
X127980336Y-142370494D01*
X128079600Y-141667380D01*
X128139283Y-140959807D01*
X128159198Y-140250000D01*
X128139283Y-139540193D01*
X128079600Y-138832620D01*
X128079599Y-138832618D01*
X128079599Y-138832609D01*
X128079598Y-138832605D01*
X128003325Y-138292343D01*
X127980336Y-138129506D01*
X127948004Y-137966964D01*
X127841808Y-137433078D01*
X127841807Y-137433072D01*
X127841805Y-137433063D01*
X127664443Y-136745484D01*
X127448806Y-136068932D01*
X127275546Y-135615039D01*
X127195579Y-135405547D01*
X127195574Y-135405535D01*
X126905546Y-134757386D01*
X126905544Y-134757381D01*
X126579635Y-134126523D01*
X126579627Y-134126507D01*
X126218849Y-133514901D01*
X125824347Y-132924485D01*
X125824338Y-132924472D01*
X125397362Y-132357122D01*
X125397348Y-132357104D01*
X124939234Y-131814589D01*
X124891220Y-131763803D01*
X124451405Y-131298595D01*
X123935413Y-130810768D01*
X123935410Y-130810765D01*
X123392895Y-130352651D01*
X123392877Y-130352637D01*
X122825527Y-129925661D01*
X122825514Y-129925652D01*
X122235113Y-129531160D01*
X122235108Y-129531157D01*
X122235099Y-129531151D01*
X121623493Y-129170373D01*
X121623476Y-129170364D01*
X120992618Y-128844455D01*
X120992613Y-128844453D01*
X120344464Y-128554425D01*
X120344452Y-128554420D01*
X119826093Y-128356553D01*
X119681068Y-128301194D01*
X119681059Y-128301191D01*
X119004527Y-128085560D01*
X119004519Y-128085558D01*
X119004516Y-128085557D01*
X118783450Y-128028532D01*
X118631679Y-127989383D01*
X118571681Y-127953577D01*
X118540565Y-127891018D01*
X118548211Y-127821568D01*
X118592191Y-127767277D01*
X118642242Y-127747004D01*
X118869492Y-127709083D01*
X119104603Y-127628369D01*
X119104614Y-127628364D01*
X119323228Y-127510057D01*
X119323231Y-127510055D01*
X119370056Y-127473609D01*
X118670234Y-126773787D01*
X118712292Y-126762518D01*
X118837708Y-126690110D01*
X118940110Y-126587708D01*
X119012518Y-126462292D01*
X119023787Y-126420235D01*
X119723434Y-127119882D01*
X119823731Y-126966369D01*
X119923587Y-126738717D01*
X119984612Y-126497738D01*
X119984614Y-126497729D01*
X120005141Y-126250005D01*
X120005141Y-126249994D01*
X119984614Y-126002270D01*
X119984612Y-126002261D01*
X119923587Y-125761282D01*
X119823731Y-125533630D01*
X119723434Y-125380116D01*
X119023787Y-126079764D01*
X119012518Y-126037708D01*
X118940110Y-125912292D01*
X118837708Y-125809890D01*
X118712292Y-125737482D01*
X118670235Y-125726212D01*
X119370057Y-125026390D01*
X119370056Y-125026389D01*
X119323229Y-124989943D01*
X119104614Y-124871635D01*
X119104603Y-124871630D01*
X118869493Y-124790916D01*
X118624293Y-124750000D01*
X118375707Y-124750000D01*
X118130506Y-124790916D01*
X117895396Y-124871630D01*
X117895390Y-124871632D01*
X117676761Y-124989949D01*
X117629942Y-125026388D01*
X117629942Y-125026390D01*
X118329765Y-125726212D01*
X118287708Y-125737482D01*
X118162292Y-125809890D01*
X118059890Y-125912292D01*
X117987482Y-126037708D01*
X117976212Y-126079764D01*
X117276564Y-125380116D01*
X117176267Y-125533632D01*
X117076412Y-125761282D01*
X117015387Y-126002261D01*
X117015385Y-126002270D01*
X116994859Y-126249994D01*
X116994859Y-126250005D01*
X117015385Y-126497729D01*
X117015387Y-126497738D01*
X117076412Y-126738717D01*
X117176266Y-126966364D01*
X117276564Y-127119882D01*
X117976212Y-126420234D01*
X117987482Y-126462292D01*
X118059890Y-126587708D01*
X118162292Y-126690110D01*
X118287708Y-126762518D01*
X118329765Y-126773787D01*
X117629942Y-127473609D01*
X117676767Y-127510054D01*
X117745659Y-127547337D01*
X117795249Y-127596557D01*
X117810357Y-127664774D01*
X117786186Y-127730329D01*
X117730411Y-127772410D01*
X117662450Y-127778009D01*
X117620534Y-127769671D01*
X117620471Y-127769660D01*
X116917394Y-127670401D01*
X116917390Y-127670400D01*
X116209808Y-127610717D01*
X115500007Y-127590802D01*
X115499993Y-127590802D01*
X115117796Y-127601525D01*
X114790193Y-127610717D01*
X114790184Y-127610717D01*
X114082609Y-127670400D01*
X114082605Y-127670401D01*
X113379528Y-127769660D01*
X113379465Y-127769671D01*
X112683078Y-127908191D01*
X112683072Y-127908192D01*
X111995480Y-128085558D01*
X111995472Y-128085560D01*
X111318940Y-128301191D01*
X111318937Y-128301192D01*
X110655547Y-128554420D01*
X110655535Y-128554425D01*
X110007386Y-128844453D01*
X110007381Y-128844455D01*
X109376523Y-129170364D01*
X109376512Y-129170370D01*
X109376507Y-129170373D01*
X109080993Y-129344693D01*
X108764886Y-129531160D01*
X108174485Y-129925652D01*
X108174472Y-129925661D01*
X107607122Y-130352637D01*
X107607104Y-130352651D01*
X107064589Y-130810765D01*
X106548595Y-131298595D01*
X106060765Y-131814589D01*
X105602651Y-132357104D01*
X105602637Y-132357122D01*
X105175661Y-132924472D01*
X105175652Y-132924485D01*
X104781160Y-133514886D01*
X104781152Y-133514899D01*
X104781151Y-133514901D01*
X104431301Y-134107980D01*
X104380287Y-134155720D01*
X104311559Y-134168301D01*
X104246940Y-134141728D01*
X104206946Y-134084437D01*
X104200500Y-134044978D01*
X104200500Y-129391692D01*
X104220185Y-129324653D01*
X104253374Y-129290119D01*
X104439139Y-129160047D01*
X104600047Y-128999139D01*
X104730118Y-128813375D01*
X104784693Y-128769752D01*
X104831692Y-128760500D01*
X106768308Y-128760500D01*
X106835347Y-128780185D01*
X106869880Y-128813374D01*
X106910775Y-128871778D01*
X106999954Y-128999141D01*
X107160858Y-129160045D01*
X107194033Y-129183274D01*
X107347266Y-129290568D01*
X107553504Y-129386739D01*
X107553509Y-129386740D01*
X107553511Y-129386741D01*
X107606415Y-129400916D01*
X107773308Y-129445635D01*
X107935230Y-129459801D01*
X107999998Y-129465468D01*
X108000000Y-129465468D01*
X108000002Y-129465468D01*
X108056673Y-129460509D01*
X108226692Y-129445635D01*
X108446496Y-129386739D01*
X108652734Y-129290568D01*
X108839139Y-129160047D01*
X109000047Y-128999139D01*
X109130568Y-128812734D01*
X109226739Y-128606496D01*
X109285635Y-128386692D01*
X109305468Y-128160000D01*
X109285635Y-127933308D01*
X109226739Y-127713504D01*
X109130568Y-127507266D01*
X109000047Y-127320861D01*
X109000045Y-127320858D01*
X108839141Y-127159954D01*
X108652734Y-127029432D01*
X108652732Y-127029431D01*
X108446497Y-126933261D01*
X108446488Y-126933258D01*
X108226697Y-126874366D01*
X108226693Y-126874365D01*
X108226692Y-126874365D01*
X108226691Y-126874364D01*
X108226686Y-126874364D01*
X108000002Y-126854532D01*
X107999998Y-126854532D01*
X107773313Y-126874364D01*
X107773302Y-126874366D01*
X107553511Y-126933258D01*
X107553502Y-126933261D01*
X107347267Y-127029431D01*
X107347265Y-127029432D01*
X107160858Y-127159954D01*
X106999954Y-127320858D01*
X106923450Y-127430118D01*
X106869881Y-127506624D01*
X106815307Y-127550248D01*
X106768308Y-127559500D01*
X104831692Y-127559500D01*
X104764653Y-127539815D01*
X104730119Y-127506625D01*
X104600047Y-127320861D01*
X104600045Y-127320858D01*
X104439141Y-127159954D01*
X104252734Y-127029432D01*
X104252732Y-127029431D01*
X104046497Y-126933261D01*
X104046488Y-126933258D01*
X103826697Y-126874366D01*
X103826693Y-126874365D01*
X103826692Y-126874365D01*
X103826691Y-126874364D01*
X103826686Y-126874364D01*
X103600002Y-126854532D01*
X103599998Y-126854532D01*
X103373313Y-126874364D01*
X103373302Y-126874366D01*
X103153511Y-126933258D01*
X103153502Y-126933261D01*
X102947267Y-127029431D01*
X102947265Y-127029432D01*
X102760858Y-127159954D01*
X102599954Y-127320858D01*
X102469432Y-127507265D01*
X102469431Y-127507267D01*
X102373261Y-127713502D01*
X102373258Y-127713511D01*
X102314366Y-127933302D01*
X102314364Y-127933313D01*
X102294532Y-128159998D01*
X102294532Y-128160001D01*
X102314364Y-128386686D01*
X102314366Y-128386697D01*
X102373258Y-128606488D01*
X102373261Y-128606497D01*
X102469431Y-128812732D01*
X102469432Y-128812734D01*
X102599954Y-128999141D01*
X102760858Y-129160045D01*
X102760861Y-129160047D01*
X102946624Y-129290118D01*
X102990248Y-129344693D01*
X102999500Y-129391692D01*
X102999500Y-135349902D01*
X102979815Y-135416941D01*
X102963181Y-135437583D01*
X100949582Y-137451181D01*
X100888259Y-137484666D01*
X100861901Y-137487500D01*
X99661343Y-137487500D01*
X99661340Y-137487501D01*
X99618298Y-137490418D01*
X99618297Y-137490418D01*
X99432221Y-137536694D01*
X99260456Y-137621881D01*
X99260453Y-137621883D01*
X99111010Y-137742009D01*
X99111009Y-137742010D01*
X98990883Y-137891453D01*
X98990881Y-137891456D01*
X98905694Y-138063221D01*
X98859419Y-138249291D01*
X98856500Y-138292345D01*
X98856500Y-139207656D01*
X98856501Y-139207659D01*
X98859418Y-139250701D01*
X98859418Y-139250702D01*
X98905694Y-139436778D01*
X98990881Y-139608543D01*
X98990883Y-139608546D01*
X99111009Y-139757989D01*
X99111010Y-139757990D01*
X99260453Y-139878116D01*
X99260456Y-139878118D01*
X99426959Y-139960695D01*
X99432225Y-139963307D01*
X99582013Y-140000558D01*
X99618291Y-140009580D01*
X99618292Y-140009580D01*
X99618296Y-140009581D01*
X99661343Y-140012500D01*
X101338656Y-140012499D01*
X101381704Y-140009581D01*
X101567775Y-139963307D01*
X101739547Y-139878116D01*
X101888990Y-139757990D01*
X102009116Y-139608547D01*
X102094307Y-139436775D01*
X102140581Y-139250704D01*
X102143500Y-139207657D01*
X102143499Y-138292344D01*
X102140581Y-138249296D01*
X102099615Y-138084569D01*
X102102539Y-138014763D01*
X102132267Y-137966966D01*
X103008019Y-137091214D01*
X103069340Y-137057731D01*
X103139032Y-137062715D01*
X103194965Y-137104587D01*
X103219382Y-137170051D01*
X103215768Y-137209869D01*
X103158193Y-137433072D01*
X103158191Y-137433078D01*
X103019671Y-138129465D01*
X103019660Y-138129528D01*
X102920401Y-138832605D01*
X102920400Y-138832609D01*
X102860717Y-139540184D01*
X102860717Y-139540199D01*
X102840802Y-140249992D01*
X102840802Y-140250007D01*
X102860717Y-140959800D01*
X102860717Y-140959815D01*
X102920400Y-141667390D01*
X102920401Y-141667394D01*
X103019660Y-142370471D01*
X103019671Y-142370534D01*
X103158191Y-143066921D01*
X103158192Y-143066927D01*
X103335558Y-143754519D01*
X103335560Y-143754527D01*
X103551191Y-144431059D01*
X103551192Y-144431062D01*
X103804420Y-145094452D01*
X103804425Y-145094464D01*
X104094453Y-145742613D01*
X104094455Y-145742618D01*
X104420364Y-146373476D01*
X104420373Y-146373493D01*
X104781151Y-146985099D01*
X104781157Y-146985108D01*
X104781160Y-146985113D01*
X105175652Y-147575514D01*
X105175661Y-147575527D01*
X105602637Y-148142877D01*
X105602651Y-148142895D01*
X106060765Y-148685410D01*
X106060768Y-148685413D01*
X106548595Y-149201405D01*
X106954076Y-149584753D01*
X107064589Y-149689234D01*
X107607104Y-150147348D01*
X107607122Y-150147362D01*
X108174472Y-150574338D01*
X108174485Y-150574347D01*
X108764901Y-150968849D01*
X109376507Y-151329627D01*
X109435925Y-151360323D01*
X110007381Y-151655544D01*
X110007386Y-151655546D01*
X110655535Y-151945574D01*
X110655547Y-151945579D01*
X110771696Y-151989915D01*
X111318932Y-152198806D01*
X111487257Y-152252456D01*
X111502630Y-152257356D01*
X111560526Y-152296469D01*
X111588085Y-152360674D01*
X111576557Y-152429586D01*
X111529602Y-152481326D01*
X111464974Y-152499500D01*
X98505413Y-152499500D01*
X98494605Y-152499028D01*
X98337246Y-152485260D01*
X98315961Y-152481507D01*
X98168630Y-152442030D01*
X98148318Y-152434637D01*
X98010084Y-152370177D01*
X97991366Y-152359370D01*
X97866417Y-152271880D01*
X97849859Y-152257986D01*
X97742013Y-152150140D01*
X97728119Y-152133582D01*
X97640629Y-152008633D01*
X97629822Y-151989915D01*
X97565362Y-151851681D01*
X97557969Y-151831369D01*
X97539114Y-151760999D01*
X97518491Y-151684035D01*
X97514739Y-151662752D01*
X97514108Y-151655544D01*
X97500972Y-151505393D01*
X97500500Y-151494586D01*
X97500500Y-150000000D01*
X97844475Y-150000000D01*
X97864551Y-150293511D01*
X97864552Y-150293513D01*
X97924404Y-150581543D01*
X97924409Y-150581559D01*
X98022927Y-150858762D01*
X98158278Y-151119977D01*
X98158282Y-151119983D01*
X98327932Y-151360323D01*
X98327935Y-151360326D01*
X98463419Y-151505394D01*
X98528743Y-151575338D01*
X98636191Y-151662753D01*
X98756951Y-151760999D01*
X98756953Y-151761000D01*
X98756954Y-151761001D01*
X99008319Y-151913860D01*
X99008324Y-151913862D01*
X99278154Y-152031065D01*
X99278159Y-152031067D01*
X99561445Y-152110440D01*
X99794451Y-152142466D01*
X99852901Y-152150500D01*
X99852902Y-152150500D01*
X100147099Y-152150500D01*
X100205549Y-152142466D01*
X100438555Y-152110440D01*
X100721841Y-152031067D01*
X100991682Y-151913859D01*
X101243049Y-151760999D01*
X101471260Y-151575335D01*
X101672065Y-151360326D01*
X101841722Y-151119976D01*
X101977072Y-150858764D01*
X102075592Y-150581554D01*
X102075592Y-150581549D01*
X102075595Y-150581543D01*
X102110151Y-150415247D01*
X102135448Y-150293511D01*
X102155525Y-150000000D01*
X102135448Y-149706489D01*
X102096523Y-149519171D01*
X102075595Y-149418456D01*
X102075590Y-149418440D01*
X101998456Y-149201405D01*
X101977072Y-149141236D01*
X101841722Y-148880024D01*
X101841721Y-148880022D01*
X101841717Y-148880016D01*
X101672067Y-148639676D01*
X101471256Y-148424661D01*
X101243045Y-148238998D01*
X100991680Y-148086139D01*
X100991675Y-148086137D01*
X100721845Y-147968934D01*
X100438560Y-147889561D01*
X100438556Y-147889560D01*
X100438555Y-147889560D01*
X100292826Y-147869530D01*
X100147099Y-147849500D01*
X100147098Y-147849500D01*
X99852902Y-147849500D01*
X99852901Y-147849500D01*
X99561445Y-147889560D01*
X99561439Y-147889561D01*
X99278154Y-147968934D01*
X99008324Y-148086137D01*
X99008319Y-148086139D01*
X98756954Y-148238998D01*
X98528743Y-148424661D01*
X98327932Y-148639676D01*
X98158282Y-148880016D01*
X98158278Y-148880022D01*
X98022927Y-149141237D01*
X97924409Y-149418440D01*
X97924404Y-149418456D01*
X97864552Y-149706486D01*
X97864551Y-149706488D01*
X97844475Y-150000000D01*
X97500500Y-150000000D01*
X97500500Y-143004322D01*
X99599228Y-143004322D01*
X99599228Y-143004323D01*
X99618360Y-143009081D01*
X99661395Y-143011999D01*
X101338605Y-143011999D01*
X101338609Y-143011998D01*
X101381627Y-143009083D01*
X101381637Y-143009081D01*
X101400769Y-143004322D01*
X100500000Y-142103553D01*
X99599228Y-143004322D01*
X97500500Y-143004322D01*
X97500500Y-141292395D01*
X98857000Y-141292395D01*
X98857000Y-142207605D01*
X98857001Y-142207609D01*
X98859917Y-142250632D01*
X98859917Y-142250634D01*
X98906165Y-142436602D01*
X98991307Y-142608275D01*
X99111363Y-142757632D01*
X99126580Y-142769864D01*
X100146447Y-141750000D01*
X100146447Y-141749999D01*
X100853553Y-141749999D01*
X100853553Y-141750000D01*
X101873417Y-142769864D01*
X101888635Y-142757631D01*
X102008692Y-142608275D01*
X102093834Y-142436602D01*
X102140081Y-142250640D01*
X102142999Y-142207604D01*
X102142999Y-141292394D01*
X102142998Y-141292390D01*
X102140082Y-141249367D01*
X102140082Y-141249365D01*
X102093834Y-141063397D01*
X102008692Y-140891724D01*
X101888637Y-140742369D01*
X101888629Y-140742362D01*
X101873418Y-140730133D01*
X100853553Y-141749999D01*
X100146447Y-141749999D01*
X99126581Y-140730133D01*
X99111368Y-140742363D01*
X99111362Y-140742369D01*
X98991307Y-140891724D01*
X98906165Y-141063397D01*
X98859918Y-141249359D01*
X98857000Y-141292395D01*
X97500500Y-141292395D01*
X97500500Y-140495676D01*
X99599229Y-140495676D01*
X100500000Y-141396447D01*
X100500001Y-141396447D01*
X101400770Y-140495676D01*
X101400769Y-140495675D01*
X101381643Y-140490919D01*
X101381638Y-140490918D01*
X101338604Y-140488000D01*
X99661394Y-140488000D01*
X99661390Y-140488001D01*
X99618369Y-140490917D01*
X99599229Y-140495676D01*
X97500500Y-140495676D01*
X97500500Y-119543549D01*
X97520185Y-119476510D01*
X97572989Y-119430755D01*
X97642147Y-119420811D01*
X97705703Y-119449836D01*
X97712181Y-119455868D01*
X98136373Y-119880060D01*
X98136383Y-119880071D01*
X98140713Y-119884401D01*
X98140714Y-119884402D01*
X98252518Y-119996206D01*
X98339329Y-120046325D01*
X98339331Y-120046327D01*
X98377385Y-120068297D01*
X98389449Y-120075263D01*
X98542177Y-120116187D01*
X98542180Y-120116187D01*
X98707887Y-120116187D01*
X98707903Y-120116186D01*
X99697645Y-120116186D01*
X99697661Y-120116187D01*
X99705257Y-120116187D01*
X99863368Y-120116187D01*
X99863371Y-120116187D01*
X100016099Y-120075263D01*
X100066218Y-120046325D01*
X100153030Y-119996206D01*
X100264834Y-119884402D01*
X100264834Y-119884400D01*
X100275042Y-119874193D01*
X100275044Y-119874190D01*
X102094812Y-118054421D01*
X102156133Y-118020938D01*
X102225825Y-118025922D01*
X102281758Y-118067794D01*
X102306019Y-118131297D01*
X102314364Y-118226686D01*
X102314366Y-118226697D01*
X102373258Y-118446488D01*
X102373261Y-118446497D01*
X102469431Y-118652732D01*
X102469432Y-118652734D01*
X102599954Y-118839141D01*
X102760858Y-119000045D01*
X102760861Y-119000047D01*
X102947266Y-119130568D01*
X103153504Y-119226739D01*
X103373308Y-119285635D01*
X103535230Y-119299801D01*
X103599998Y-119305468D01*
X103600000Y-119305468D01*
X103600002Y-119305468D01*
X103656673Y-119300509D01*
X103826692Y-119285635D01*
X104046496Y-119226739D01*
X104252734Y-119130568D01*
X104439139Y-119000047D01*
X104600047Y-118839139D01*
X104730568Y-118652734D01*
X104826739Y-118446496D01*
X104885635Y-118226692D01*
X104905468Y-118000000D01*
X104905468Y-117999997D01*
X106695034Y-117999997D01*
X106695034Y-118000002D01*
X106714858Y-118226599D01*
X106714860Y-118226610D01*
X106773730Y-118446317D01*
X106773735Y-118446331D01*
X106869863Y-118652478D01*
X106920974Y-118725472D01*
X107600000Y-118046446D01*
X107600000Y-118052661D01*
X107627259Y-118154394D01*
X107679920Y-118245606D01*
X107754394Y-118320080D01*
X107845606Y-118372741D01*
X107947339Y-118400000D01*
X107953553Y-118400000D01*
X107274526Y-119079025D01*
X107347513Y-119130132D01*
X107347521Y-119130136D01*
X107553668Y-119226264D01*
X107553682Y-119226269D01*
X107773389Y-119285139D01*
X107773400Y-119285141D01*
X107999998Y-119304966D01*
X108000002Y-119304966D01*
X108226599Y-119285141D01*
X108226610Y-119285139D01*
X108446317Y-119226269D01*
X108446331Y-119226264D01*
X108652478Y-119130136D01*
X108725471Y-119079024D01*
X108046447Y-118400000D01*
X108052661Y-118400000D01*
X108154394Y-118372741D01*
X108245606Y-118320080D01*
X108320080Y-118245606D01*
X108372741Y-118154394D01*
X108400000Y-118052661D01*
X108400000Y-118046447D01*
X109079024Y-118725471D01*
X109130136Y-118652478D01*
X109226264Y-118446331D01*
X109226269Y-118446317D01*
X109285139Y-118226610D01*
X109285141Y-118226599D01*
X109304966Y-118000002D01*
X109304966Y-117999997D01*
X109285141Y-117773400D01*
X109285139Y-117773389D01*
X109226269Y-117553682D01*
X109226264Y-117553668D01*
X109130136Y-117347521D01*
X109130132Y-117347513D01*
X109079025Y-117274526D01*
X108400000Y-117953551D01*
X108400000Y-117947339D01*
X108372741Y-117845606D01*
X108320080Y-117754394D01*
X108245606Y-117679920D01*
X108154394Y-117627259D01*
X108052661Y-117600000D01*
X108046448Y-117600000D01*
X108725472Y-116920974D01*
X108652478Y-116869863D01*
X108446331Y-116773735D01*
X108446317Y-116773730D01*
X108226610Y-116714860D01*
X108226599Y-116714858D01*
X108000002Y-116695034D01*
X107999998Y-116695034D01*
X107773400Y-116714858D01*
X107773389Y-116714860D01*
X107553682Y-116773730D01*
X107553673Y-116773734D01*
X107347516Y-116869866D01*
X107347512Y-116869868D01*
X107274526Y-116920973D01*
X107274526Y-116920974D01*
X107953553Y-117600000D01*
X107947339Y-117600000D01*
X107845606Y-117627259D01*
X107754394Y-117679920D01*
X107679920Y-117754394D01*
X107627259Y-117845606D01*
X107600000Y-117947339D01*
X107600000Y-117953552D01*
X106920974Y-117274526D01*
X106920973Y-117274526D01*
X106869868Y-117347512D01*
X106869866Y-117347516D01*
X106773734Y-117553673D01*
X106773730Y-117553682D01*
X106714860Y-117773389D01*
X106714858Y-117773400D01*
X106695034Y-117999997D01*
X104905468Y-117999997D01*
X104885635Y-117773308D01*
X104859847Y-117677066D01*
X104861510Y-117607217D01*
X104891939Y-117557294D01*
X108121803Y-114327430D01*
X108183124Y-114293947D01*
X108198668Y-114291586D01*
X108266692Y-114285635D01*
X108486496Y-114226739D01*
X108692734Y-114130568D01*
X108879139Y-114000047D01*
X109040047Y-113839139D01*
X109170568Y-113652734D01*
X109197618Y-113594724D01*
X109243790Y-113542285D01*
X109310983Y-113523133D01*
X109377865Y-113543348D01*
X109422382Y-113594725D01*
X109449429Y-113652728D01*
X109449432Y-113652734D01*
X109579954Y-113839141D01*
X109740858Y-114000045D01*
X109740861Y-114000047D01*
X109926624Y-114130118D01*
X109970248Y-114184693D01*
X109979500Y-114231692D01*
X109979500Y-115993330D01*
X109979499Y-115993348D01*
X109979499Y-116159054D01*
X109979498Y-116159054D01*
X110020423Y-116311785D01*
X110049358Y-116361900D01*
X110049359Y-116361904D01*
X110049360Y-116361904D01*
X110099479Y-116448714D01*
X110099481Y-116448717D01*
X110218349Y-116567585D01*
X110218355Y-116567590D01*
X111015139Y-117364374D01*
X111015149Y-117364385D01*
X111019479Y-117368715D01*
X111019480Y-117368716D01*
X111131284Y-117480520D01*
X111131286Y-117480521D01*
X111131290Y-117480524D01*
X111257981Y-117553668D01*
X111268216Y-117559577D01*
X111380019Y-117589534D01*
X111420942Y-117600500D01*
X111420943Y-117600500D01*
X116413331Y-117600500D01*
X116413347Y-117600501D01*
X116420943Y-117600501D01*
X116579054Y-117600501D01*
X116579057Y-117600501D01*
X116731785Y-117559577D01*
X116781904Y-117530639D01*
X116868716Y-117480520D01*
X116980520Y-117368716D01*
X116980520Y-117368714D01*
X116990728Y-117358507D01*
X116990730Y-117358504D01*
X117499240Y-116849994D01*
X122744859Y-116849994D01*
X122744859Y-116850005D01*
X122765385Y-117097729D01*
X122765387Y-117097738D01*
X122826412Y-117338717D01*
X122926266Y-117566364D01*
X123026564Y-117719882D01*
X123767037Y-116979409D01*
X123784075Y-117042993D01*
X123849901Y-117157007D01*
X123942993Y-117250099D01*
X124057007Y-117315925D01*
X124120590Y-117332962D01*
X123379942Y-118073609D01*
X123426768Y-118110055D01*
X123426770Y-118110056D01*
X123645385Y-118228364D01*
X123645396Y-118228369D01*
X123880506Y-118309083D01*
X124125707Y-118350000D01*
X124374293Y-118350000D01*
X124619493Y-118309083D01*
X124854603Y-118228369D01*
X124854614Y-118228364D01*
X125073228Y-118110057D01*
X125073231Y-118110055D01*
X125120056Y-118073609D01*
X124379409Y-117332962D01*
X124442993Y-117315925D01*
X124557007Y-117250099D01*
X124650099Y-117157007D01*
X124715925Y-117042993D01*
X124732962Y-116979409D01*
X125473434Y-117719882D01*
X125573731Y-117566369D01*
X125673587Y-117338717D01*
X125734612Y-117097738D01*
X125734614Y-117097729D01*
X125755141Y-116850005D01*
X125755141Y-116849994D01*
X125734614Y-116602270D01*
X125734612Y-116602261D01*
X125673587Y-116361282D01*
X125573731Y-116133630D01*
X125473434Y-115980116D01*
X124732962Y-116720589D01*
X124715925Y-116657007D01*
X124650099Y-116542993D01*
X124557007Y-116449901D01*
X124442993Y-116384075D01*
X124379410Y-116367037D01*
X125120057Y-115626390D01*
X125120056Y-115626389D01*
X125073229Y-115589943D01*
X124854614Y-115471635D01*
X124854603Y-115471630D01*
X124619493Y-115390916D01*
X124374293Y-115350000D01*
X124125707Y-115350000D01*
X123880506Y-115390916D01*
X123645396Y-115471630D01*
X123645390Y-115471632D01*
X123426761Y-115589949D01*
X123379942Y-115626388D01*
X123379942Y-115626390D01*
X124120590Y-116367037D01*
X124057007Y-116384075D01*
X123942993Y-116449901D01*
X123849901Y-116542993D01*
X123784075Y-116657007D01*
X123767037Y-116720589D01*
X123026564Y-115980116D01*
X122926267Y-116133632D01*
X122826412Y-116361282D01*
X122765387Y-116602261D01*
X122765385Y-116602270D01*
X122744859Y-116849994D01*
X117499240Y-116849994D01*
X123562416Y-110786818D01*
X123623739Y-110753333D01*
X123650097Y-110750499D01*
X125297871Y-110750499D01*
X125297872Y-110750499D01*
X125357483Y-110744091D01*
X125492331Y-110693796D01*
X125607546Y-110607546D01*
X125693796Y-110492331D01*
X125744091Y-110357483D01*
X125750500Y-110297873D01*
X125750499Y-108202128D01*
X125744091Y-108142517D01*
X125693796Y-108007669D01*
X125693795Y-108007668D01*
X125693793Y-108007664D01*
X125607547Y-107892455D01*
X125607544Y-107892452D01*
X125492335Y-107806206D01*
X125492328Y-107806202D01*
X125357482Y-107755908D01*
X125357483Y-107755908D01*
X125297883Y-107749501D01*
X125297881Y-107749500D01*
X125297873Y-107749500D01*
X125297864Y-107749500D01*
X123202129Y-107749500D01*
X123202123Y-107749501D01*
X123142516Y-107755908D01*
X123007671Y-107806202D01*
X123007664Y-107806206D01*
X122892455Y-107892452D01*
X122892452Y-107892455D01*
X122806206Y-108007664D01*
X122806202Y-108007671D01*
X122755908Y-108142517D01*
X122749501Y-108202116D01*
X122749501Y-108202123D01*
X122749500Y-108202135D01*
X122749500Y-109849902D01*
X122729815Y-109916941D01*
X122713181Y-109937583D01*
X117199681Y-115451083D01*
X117138358Y-115484568D01*
X117068666Y-115479584D01*
X117012733Y-115437712D01*
X116988316Y-115372248D01*
X116988000Y-115363402D01*
X116988000Y-115145945D01*
X116988000Y-115145943D01*
X116947077Y-114993216D01*
X116947074Y-114993212D01*
X116946362Y-114990552D01*
X116948025Y-114920702D01*
X116978454Y-114870779D01*
X120758506Y-111090728D01*
X120758511Y-111090724D01*
X120768714Y-111080520D01*
X120768716Y-111080520D01*
X120880520Y-110968716D01*
X120959577Y-110831784D01*
X121000500Y-110679057D01*
X121000500Y-103635304D01*
X121020185Y-103568265D01*
X121053375Y-103533730D01*
X121214620Y-103420826D01*
X121370826Y-103264620D01*
X121447489Y-103155134D01*
X121483730Y-103103377D01*
X121538307Y-103059752D01*
X121585305Y-103050500D01*
X121754695Y-103050500D01*
X121821734Y-103070185D01*
X121856270Y-103103377D01*
X121892511Y-103155134D01*
X121969170Y-103264615D01*
X121969175Y-103264621D01*
X122125378Y-103420824D01*
X122125384Y-103420829D01*
X122306333Y-103547531D01*
X122306335Y-103547532D01*
X122306338Y-103547534D01*
X122506550Y-103640894D01*
X122719932Y-103698070D01*
X122866743Y-103710914D01*
X122939998Y-103717323D01*
X122940000Y-103717323D01*
X122940002Y-103717323D01*
X122996089Y-103712416D01*
X123160068Y-103698070D01*
X123373450Y-103640894D01*
X123573662Y-103547534D01*
X123754620Y-103420826D01*
X123910826Y-103264620D01*
X124037534Y-103083662D01*
X124130894Y-102883450D01*
X124188070Y-102670068D01*
X124207323Y-102450000D01*
X124188070Y-102229932D01*
X124130894Y-102016550D01*
X124037534Y-101816339D01*
X123910826Y-101635380D01*
X123754620Y-101479174D01*
X123754616Y-101479171D01*
X123754615Y-101479170D01*
X123573666Y-101352468D01*
X123573658Y-101352464D01*
X123540242Y-101336882D01*
X123487802Y-101290710D01*
X123468650Y-101223517D01*
X123488865Y-101156635D01*
X123542031Y-101111301D01*
X123592646Y-101100500D01*
X123699903Y-101100500D01*
X123766942Y-101120185D01*
X123787584Y-101136819D01*
X126363181Y-103712416D01*
X126396666Y-103773739D01*
X126399500Y-103800097D01*
X126399500Y-118199903D01*
X126379815Y-118266942D01*
X126363181Y-118287584D01*
X123537584Y-121113181D01*
X123476261Y-121146666D01*
X123449903Y-121149500D01*
X119956116Y-121149500D01*
X119889077Y-121129815D01*
X119843322Y-121077011D01*
X119842560Y-121075311D01*
X119824172Y-121033391D01*
X119688166Y-120825217D01*
X119666557Y-120801744D01*
X119519744Y-120642262D01*
X119323509Y-120489526D01*
X119323507Y-120489525D01*
X119323506Y-120489524D01*
X119104811Y-120371172D01*
X119104802Y-120371169D01*
X118869616Y-120290429D01*
X118624335Y-120249500D01*
X118375665Y-120249500D01*
X118130383Y-120290429D01*
X117895197Y-120371169D01*
X117895188Y-120371172D01*
X117676493Y-120489524D01*
X117480257Y-120642261D01*
X117311833Y-120825217D01*
X117175827Y-121033391D01*
X117157440Y-121075311D01*
X117112483Y-121128796D01*
X117045747Y-121149486D01*
X117043884Y-121149500D01*
X113456116Y-121149500D01*
X113389077Y-121129815D01*
X113343322Y-121077011D01*
X113342560Y-121075311D01*
X113324172Y-121033391D01*
X113188166Y-120825217D01*
X113166557Y-120801744D01*
X113019744Y-120642262D01*
X112823509Y-120489526D01*
X112823507Y-120489525D01*
X112823506Y-120489524D01*
X112604811Y-120371172D01*
X112604802Y-120371169D01*
X112369616Y-120290429D01*
X112124335Y-120249500D01*
X111875665Y-120249500D01*
X111630383Y-120290429D01*
X111395197Y-120371169D01*
X111395188Y-120371172D01*
X111176493Y-120489524D01*
X110980257Y-120642261D01*
X110811833Y-120825217D01*
X110675826Y-121033393D01*
X110575936Y-121261118D01*
X110514892Y-121502175D01*
X110514890Y-121502187D01*
X110494357Y-121749994D01*
X110494357Y-121750005D01*
X110514890Y-121997812D01*
X110514892Y-121997824D01*
X110575936Y-122238881D01*
X110675826Y-122466606D01*
X110811833Y-122674782D01*
X110811836Y-122674785D01*
X110980256Y-122857738D01*
X111134316Y-122977648D01*
X111175128Y-123034357D01*
X111178803Y-123104130D01*
X111144172Y-123164813D01*
X111082230Y-123197140D01*
X111058153Y-123199500D01*
X103639057Y-123199500D01*
X103480943Y-123199500D01*
X103328215Y-123240423D01*
X103328214Y-123240423D01*
X103328212Y-123240424D01*
X103328209Y-123240425D01*
X103278096Y-123269359D01*
X103278095Y-123269360D01*
X103234689Y-123294420D01*
X103191285Y-123319479D01*
X103191282Y-123319481D01*
X103079478Y-123431286D01*
X99642705Y-126868058D01*
X99581382Y-126901543D01*
X99522931Y-126900152D01*
X99426697Y-126874366D01*
X99426693Y-126874365D01*
X99426692Y-126874365D01*
X99426691Y-126874364D01*
X99426686Y-126874364D01*
X99200002Y-126854532D01*
X99199998Y-126854532D01*
X98973313Y-126874364D01*
X98973302Y-126874366D01*
X98753511Y-126933258D01*
X98753502Y-126933261D01*
X98547267Y-127029431D01*
X98547265Y-127029432D01*
X98360858Y-127159954D01*
X98199954Y-127320858D01*
X98069432Y-127507265D01*
X98069431Y-127507267D01*
X97973261Y-127713502D01*
X97973258Y-127713511D01*
X97914366Y-127933302D01*
X97914364Y-127933313D01*
X97894532Y-128159998D01*
X97894532Y-128160001D01*
X97914364Y-128386686D01*
X97914366Y-128386697D01*
X97973258Y-128606488D01*
X97973261Y-128606497D01*
X98069431Y-128812732D01*
X98069432Y-128812734D01*
X98199954Y-128999141D01*
X98360858Y-129160045D01*
X98394033Y-129183274D01*
X98547266Y-129290568D01*
X98753504Y-129386739D01*
X98753509Y-129386740D01*
X98753511Y-129386741D01*
X98806415Y-129400916D01*
X98973308Y-129445635D01*
X99135230Y-129459801D01*
X99199998Y-129465468D01*
X99200000Y-129465468D01*
X99200002Y-129465468D01*
X99256673Y-129460509D01*
X99426692Y-129445635D01*
X99646496Y-129386739D01*
X99852734Y-129290568D01*
X100039139Y-129160047D01*
X100200047Y-128999139D01*
X100330568Y-128812734D01*
X100426739Y-128606496D01*
X100485635Y-128386692D01*
X100505468Y-128160000D01*
X100485635Y-127933308D01*
X100459847Y-127837066D01*
X100461510Y-127767217D01*
X100491939Y-127717294D01*
X101959240Y-126249994D01*
X110494859Y-126249994D01*
X110494859Y-126250005D01*
X110515385Y-126497729D01*
X110515387Y-126497738D01*
X110576412Y-126738717D01*
X110676266Y-126966364D01*
X110776564Y-127119882D01*
X111476212Y-126420234D01*
X111487482Y-126462292D01*
X111559890Y-126587708D01*
X111662292Y-126690110D01*
X111787708Y-126762518D01*
X111829765Y-126773787D01*
X111129942Y-127473609D01*
X111176768Y-127510055D01*
X111176770Y-127510056D01*
X111395385Y-127628364D01*
X111395396Y-127628369D01*
X111630506Y-127709083D01*
X111875707Y-127750000D01*
X112124293Y-127750000D01*
X112369493Y-127709083D01*
X112604603Y-127628369D01*
X112604614Y-127628364D01*
X112823228Y-127510057D01*
X112823231Y-127510055D01*
X112870056Y-127473609D01*
X112170234Y-126773787D01*
X112212292Y-126762518D01*
X112337708Y-126690110D01*
X112440110Y-126587708D01*
X112512518Y-126462292D01*
X112523787Y-126420235D01*
X113223434Y-127119882D01*
X113323731Y-126966369D01*
X113423587Y-126738717D01*
X113484612Y-126497738D01*
X113484614Y-126497729D01*
X113505141Y-126250005D01*
X113505141Y-126249994D01*
X113484614Y-126002270D01*
X113484612Y-126002261D01*
X113423587Y-125761282D01*
X113323731Y-125533630D01*
X113223434Y-125380116D01*
X112523787Y-126079764D01*
X112512518Y-126037708D01*
X112440110Y-125912292D01*
X112337708Y-125809890D01*
X112212292Y-125737482D01*
X112170235Y-125726212D01*
X112870057Y-125026390D01*
X112870056Y-125026389D01*
X112823229Y-124989943D01*
X112604614Y-124871635D01*
X112604603Y-124871630D01*
X112369493Y-124790916D01*
X112124293Y-124750000D01*
X111875707Y-124750000D01*
X111630506Y-124790916D01*
X111395396Y-124871630D01*
X111395390Y-124871632D01*
X111176761Y-124989949D01*
X111129942Y-125026388D01*
X111129942Y-125026390D01*
X111829765Y-125726212D01*
X111787708Y-125737482D01*
X111662292Y-125809890D01*
X111559890Y-125912292D01*
X111487482Y-126037708D01*
X111476212Y-126079764D01*
X110776564Y-125380116D01*
X110676267Y-125533632D01*
X110576412Y-125761282D01*
X110515387Y-126002261D01*
X110515385Y-126002270D01*
X110494859Y-126249994D01*
X101959240Y-126249994D01*
X103772416Y-124436819D01*
X103833739Y-124403334D01*
X103860097Y-124400500D01*
X127099903Y-124400500D01*
X127166942Y-124420185D01*
X127187584Y-124436819D01*
X128065172Y-125314407D01*
X128098657Y-125375730D01*
X128101067Y-125391848D01*
X128113864Y-125546297D01*
X128113866Y-125546308D01*
X128170842Y-125771300D01*
X128264075Y-125983848D01*
X128391016Y-126178147D01*
X128391019Y-126178151D01*
X128391021Y-126178153D01*
X128548216Y-126348913D01*
X128548219Y-126348915D01*
X128548222Y-126348918D01*
X128731365Y-126491464D01*
X128731371Y-126491468D01*
X128731374Y-126491470D01*
X128935497Y-126601936D01*
X129049487Y-126641068D01*
X129155015Y-126677297D01*
X129155017Y-126677297D01*
X129155019Y-126677298D01*
X129383951Y-126715500D01*
X129383952Y-126715500D01*
X129616048Y-126715500D01*
X129616049Y-126715500D01*
X129844981Y-126677298D01*
X130064503Y-126601936D01*
X130268626Y-126491470D01*
X130451784Y-126348913D01*
X130608979Y-126178153D01*
X130735924Y-125983849D01*
X130829157Y-125771300D01*
X130886134Y-125546305D01*
X130887184Y-125533632D01*
X130905300Y-125315006D01*
X130905300Y-125314993D01*
X130886135Y-125083702D01*
X130886133Y-125083691D01*
X130829157Y-124858699D01*
X130735924Y-124646151D01*
X130608981Y-124451849D01*
X130513832Y-124348489D01*
X130482910Y-124285835D01*
X130490770Y-124216409D01*
X130534918Y-124162253D01*
X130561730Y-124148325D01*
X130642084Y-124118355D01*
X130642093Y-124118350D01*
X130757187Y-124032190D01*
X130757190Y-124032187D01*
X130843350Y-123917093D01*
X130843354Y-123917086D01*
X130893596Y-123782379D01*
X130893598Y-123782372D01*
X130899999Y-123722844D01*
X130900000Y-123722827D01*
X130900000Y-123025000D01*
X129875278Y-123025000D01*
X129919333Y-122948694D01*
X129950000Y-122834244D01*
X129950000Y-122715756D01*
X129919333Y-122601306D01*
X129875278Y-122525000D01*
X130900000Y-122525000D01*
X130900000Y-121827172D01*
X130899999Y-121827155D01*
X130893598Y-121767627D01*
X130893596Y-121767620D01*
X130843354Y-121632913D01*
X130843350Y-121632906D01*
X130757190Y-121517812D01*
X130757187Y-121517809D01*
X130642093Y-121431649D01*
X130642086Y-121431645D01*
X130507379Y-121381403D01*
X130507372Y-121381401D01*
X130447844Y-121375000D01*
X129750000Y-121375000D01*
X129750000Y-122399722D01*
X129673694Y-122355667D01*
X129559244Y-122325000D01*
X129440756Y-122325000D01*
X129326306Y-122355667D01*
X129250000Y-122399722D01*
X129250000Y-121375000D01*
X128552155Y-121375000D01*
X128492627Y-121381401D01*
X128492620Y-121381403D01*
X128357913Y-121431645D01*
X128357906Y-121431649D01*
X128242812Y-121517809D01*
X128242809Y-121517812D01*
X128156649Y-121632906D01*
X128156645Y-121632913D01*
X128106403Y-121767620D01*
X128106401Y-121767627D01*
X128100000Y-121827155D01*
X128100000Y-122525000D01*
X129124722Y-122525000D01*
X129080667Y-122601306D01*
X129050000Y-122715756D01*
X129050000Y-122834244D01*
X129080667Y-122948694D01*
X129124722Y-123025000D01*
X128100000Y-123025000D01*
X128100000Y-123351402D01*
X128080315Y-123418441D01*
X128027511Y-123464196D01*
X127958353Y-123474140D01*
X127894797Y-123445115D01*
X127888379Y-123439143D01*
X127887650Y-123438415D01*
X127887593Y-123438346D01*
X127887588Y-123438352D01*
X127768717Y-123319481D01*
X127768716Y-123319480D01*
X127681904Y-123269360D01*
X127681904Y-123269359D01*
X127681900Y-123269358D01*
X127631785Y-123240423D01*
X127479057Y-123199499D01*
X127320943Y-123199499D01*
X127313347Y-123199499D01*
X127313331Y-123199500D01*
X119441847Y-123199500D01*
X119374808Y-123179815D01*
X119329053Y-123127011D01*
X119319109Y-123057853D01*
X119348134Y-122994297D01*
X119365678Y-122977651D01*
X119519744Y-122857738D01*
X119688164Y-122674785D01*
X119824173Y-122466607D01*
X119842560Y-122424689D01*
X119887517Y-122371204D01*
X119954253Y-122350514D01*
X119956116Y-122350500D01*
X123663331Y-122350500D01*
X123663347Y-122350501D01*
X123670943Y-122350501D01*
X123829054Y-122350501D01*
X123829057Y-122350501D01*
X123981785Y-122309577D01*
X124031904Y-122280639D01*
X124118716Y-122230520D01*
X124230520Y-122118716D01*
X124230520Y-122118714D01*
X124240728Y-122108507D01*
X124240730Y-122108504D01*
X127368713Y-118980521D01*
X127368716Y-118980520D01*
X127480520Y-118868716D01*
X127530639Y-118781904D01*
X127559577Y-118731785D01*
X127600500Y-118579057D01*
X127600500Y-118420943D01*
X127600500Y-103589060D01*
X127600501Y-103589047D01*
X127600501Y-103420944D01*
X127600470Y-103420829D01*
X127559577Y-103268216D01*
X127534288Y-103224413D01*
X127480524Y-103131290D01*
X127480518Y-103131282D01*
X126899236Y-102550000D01*
X127844475Y-102550000D01*
X127864551Y-102843511D01*
X127864552Y-102843513D01*
X127924404Y-103131543D01*
X127924409Y-103131559D01*
X128022927Y-103408762D01*
X128158278Y-103669977D01*
X128158282Y-103669983D01*
X128327932Y-103910323D01*
X128382158Y-103968385D01*
X128523899Y-104120152D01*
X128528743Y-104125338D01*
X128581734Y-104168449D01*
X128756951Y-104310999D01*
X128756953Y-104311000D01*
X128756954Y-104311001D01*
X129008319Y-104463860D01*
X129008324Y-104463862D01*
X129278154Y-104581065D01*
X129278159Y-104581067D01*
X129561445Y-104660440D01*
X129817681Y-104695659D01*
X129852901Y-104700500D01*
X129852902Y-104700500D01*
X130147099Y-104700500D01*
X130178520Y-104696180D01*
X130438555Y-104660440D01*
X130721841Y-104581067D01*
X130991682Y-104463859D01*
X131243049Y-104310999D01*
X131471260Y-104125335D01*
X131672065Y-103910326D01*
X131841722Y-103669976D01*
X131977072Y-103408764D01*
X132075592Y-103131554D01*
X132075592Y-103131549D01*
X132075595Y-103131543D01*
X132112443Y-102954219D01*
X132135448Y-102843511D01*
X132155525Y-102550000D01*
X132135448Y-102256489D01*
X132100632Y-102088943D01*
X132075595Y-101968456D01*
X132075590Y-101968440D01*
X132026323Y-101829815D01*
X131977072Y-101691236D01*
X131841722Y-101430024D01*
X131841721Y-101430022D01*
X131841717Y-101430016D01*
X131672067Y-101189676D01*
X131605130Y-101118004D01*
X131471260Y-100974665D01*
X131471258Y-100974664D01*
X131471256Y-100974661D01*
X131243045Y-100788998D01*
X130991680Y-100636139D01*
X130991675Y-100636137D01*
X130721845Y-100518934D01*
X130438560Y-100439561D01*
X130438556Y-100439560D01*
X130438555Y-100439560D01*
X130288483Y-100418933D01*
X130147099Y-100399500D01*
X130147098Y-100399500D01*
X129852902Y-100399500D01*
X129852901Y-100399500D01*
X129561445Y-100439560D01*
X129561439Y-100439561D01*
X129278154Y-100518934D01*
X129008324Y-100636137D01*
X129008319Y-100636139D01*
X128756954Y-100788998D01*
X128528743Y-100974661D01*
X128327932Y-101189676D01*
X128158282Y-101430016D01*
X128158278Y-101430022D01*
X128022927Y-101691237D01*
X127924409Y-101968440D01*
X127924404Y-101968456D01*
X127864552Y-102256486D01*
X127864551Y-102256488D01*
X127844475Y-102550000D01*
X126899236Y-102550000D01*
X126024823Y-101675587D01*
X124561415Y-100212180D01*
X124527931Y-100150858D01*
X124532915Y-100081166D01*
X124574787Y-100025233D01*
X124640251Y-100000816D01*
X124649097Y-100000500D01*
X131434108Y-100000500D01*
X131494587Y-100000500D01*
X131505394Y-100000972D01*
G37*
%TD.AperFunction*%
%TA.AperFunction,Conductor*%
G36*
X119197865Y-102903435D02*
G01*
X119242382Y-102954811D01*
X119302464Y-103083658D01*
X119302468Y-103083666D01*
X119429170Y-103264615D01*
X119429175Y-103264621D01*
X119585378Y-103420824D01*
X119585384Y-103420829D01*
X119636806Y-103456835D01*
X119746623Y-103533729D01*
X119790248Y-103588306D01*
X119799500Y-103635304D01*
X119799500Y-110299903D01*
X119779815Y-110366942D01*
X119763181Y-110387584D01*
X115562584Y-114588181D01*
X115501261Y-114621666D01*
X115474903Y-114624500D01*
X114533443Y-114624500D01*
X114380716Y-114665423D01*
X114380709Y-114665426D01*
X114243790Y-114744475D01*
X114243782Y-114744481D01*
X114131981Y-114856282D01*
X114131975Y-114856290D01*
X114052926Y-114993209D01*
X114052923Y-114993216D01*
X114012000Y-115145943D01*
X114012000Y-116275500D01*
X113992315Y-116342539D01*
X113939511Y-116388294D01*
X113888000Y-116399500D01*
X111800097Y-116399500D01*
X111733058Y-116379815D01*
X111712416Y-116363181D01*
X111216819Y-115867584D01*
X111183334Y-115806261D01*
X111180500Y-115779903D01*
X111180500Y-114231692D01*
X111200185Y-114164653D01*
X111233374Y-114130119D01*
X111419139Y-114000047D01*
X111580047Y-113839139D01*
X111710568Y-113652734D01*
X111737895Y-113594129D01*
X111784064Y-113541695D01*
X111851257Y-113522542D01*
X111918139Y-113542757D01*
X111962657Y-113594133D01*
X111989865Y-113652482D01*
X112120342Y-113838820D01*
X112281179Y-113999657D01*
X112467517Y-114130134D01*
X112673673Y-114226265D01*
X112673682Y-114226269D01*
X112869999Y-114278872D01*
X112870000Y-114278871D01*
X112870000Y-113315686D01*
X112874394Y-113320080D01*
X112965606Y-113372741D01*
X113067339Y-113400000D01*
X113172661Y-113400000D01*
X113274394Y-113372741D01*
X113365606Y-113320080D01*
X113370000Y-113315686D01*
X113370000Y-114278872D01*
X113566317Y-114226269D01*
X113566326Y-114226265D01*
X113772482Y-114130134D01*
X113958820Y-113999657D01*
X114119657Y-113838820D01*
X114250134Y-113652482D01*
X114346265Y-113446326D01*
X114346269Y-113446317D01*
X114398872Y-113250000D01*
X113435686Y-113250000D01*
X113440080Y-113245606D01*
X113492741Y-113154394D01*
X113520000Y-113052661D01*
X113520000Y-112947339D01*
X113492741Y-112845606D01*
X113440080Y-112754394D01*
X113435686Y-112750000D01*
X114398872Y-112750000D01*
X114398872Y-112749999D01*
X114346269Y-112553682D01*
X114346265Y-112553673D01*
X114250134Y-112347517D01*
X114119657Y-112161179D01*
X113958820Y-112000342D01*
X113772482Y-111869865D01*
X113566328Y-111773734D01*
X113370000Y-111721127D01*
X113370000Y-112684314D01*
X113365606Y-112679920D01*
X113274394Y-112627259D01*
X113172661Y-112600000D01*
X113067339Y-112600000D01*
X112965606Y-112627259D01*
X112874394Y-112679920D01*
X112870000Y-112684314D01*
X112870000Y-111721127D01*
X112673671Y-111773734D01*
X112467517Y-111869865D01*
X112281179Y-112000342D01*
X112120342Y-112161179D01*
X111989867Y-112347515D01*
X111962657Y-112405867D01*
X111916484Y-112458306D01*
X111849290Y-112477457D01*
X111782409Y-112457241D01*
X111737893Y-112405865D01*
X111710570Y-112347271D01*
X111710567Y-112347265D01*
X111580045Y-112160858D01*
X111419141Y-111999954D01*
X111232734Y-111869432D01*
X111232732Y-111869431D01*
X111026497Y-111773261D01*
X111026488Y-111773258D01*
X110806697Y-111714366D01*
X110806693Y-111714365D01*
X110806692Y-111714365D01*
X110806691Y-111714364D01*
X110806686Y-111714364D01*
X110580002Y-111694532D01*
X110579998Y-111694532D01*
X110353313Y-111714364D01*
X110353302Y-111714366D01*
X110133511Y-111773258D01*
X110133502Y-111773261D01*
X109927267Y-111869431D01*
X109927265Y-111869432D01*
X109740858Y-111999954D01*
X109579954Y-112160858D01*
X109449432Y-112347265D01*
X109449431Y-112347267D01*
X109422382Y-112405275D01*
X109376209Y-112457714D01*
X109309016Y-112476866D01*
X109242135Y-112456650D01*
X109197618Y-112405275D01*
X109170568Y-112347267D01*
X109170567Y-112347265D01*
X109040045Y-112160858D01*
X108879141Y-111999954D01*
X108692734Y-111869432D01*
X108692732Y-111869431D01*
X108486497Y-111773261D01*
X108486488Y-111773258D01*
X108266697Y-111714366D01*
X108266693Y-111714365D01*
X108266692Y-111714365D01*
X108266691Y-111714364D01*
X108266686Y-111714364D01*
X108040002Y-111694532D01*
X108039998Y-111694532D01*
X107813313Y-111714364D01*
X107813302Y-111714366D01*
X107593511Y-111773258D01*
X107593502Y-111773261D01*
X107387267Y-111869431D01*
X107387265Y-111869432D01*
X107200858Y-111999954D01*
X107039954Y-112160858D01*
X107022725Y-112185464D01*
X106968147Y-112229088D01*
X106898648Y-112236280D01*
X106836294Y-112204757D01*
X106800882Y-112144526D01*
X106797861Y-112127591D01*
X106794091Y-112092516D01*
X106743797Y-111957671D01*
X106743793Y-111957664D01*
X106657547Y-111842455D01*
X106657544Y-111842452D01*
X106542335Y-111756206D01*
X106542328Y-111756202D01*
X106407482Y-111705908D01*
X106407483Y-111705908D01*
X106347883Y-111699501D01*
X106347881Y-111699500D01*
X106347873Y-111699500D01*
X106347864Y-111699500D01*
X104652129Y-111699500D01*
X104652123Y-111699501D01*
X104592516Y-111705908D01*
X104457671Y-111756202D01*
X104457664Y-111756206D01*
X104342455Y-111842452D01*
X104342452Y-111842455D01*
X104256206Y-111957664D01*
X104256202Y-111957671D01*
X104205908Y-112092517D01*
X104199501Y-112152116D01*
X104199500Y-112152135D01*
X104199500Y-113847870D01*
X104199501Y-113847876D01*
X104205908Y-113907483D01*
X104256202Y-114042328D01*
X104256203Y-114042329D01*
X104256980Y-114043367D01*
X104257433Y-114044582D01*
X104260454Y-114050114D01*
X104259658Y-114050548D01*
X104281401Y-114108830D01*
X104266553Y-114177104D01*
X104245398Y-114205364D01*
X103812181Y-114638582D01*
X103750858Y-114672067D01*
X103681167Y-114667083D01*
X103625233Y-114625212D01*
X103600816Y-114559747D01*
X103600500Y-114550901D01*
X103600500Y-111800097D01*
X103620185Y-111733058D01*
X103636819Y-111712416D01*
X104212417Y-111136819D01*
X104273740Y-111103334D01*
X104300098Y-111100500D01*
X109413331Y-111100500D01*
X109413347Y-111100501D01*
X109420943Y-111100501D01*
X109579054Y-111100501D01*
X109579057Y-111100501D01*
X109731785Y-111059577D01*
X109781904Y-111030639D01*
X109868716Y-110980520D01*
X109980520Y-110868716D01*
X109980520Y-110868714D01*
X109990728Y-110858507D01*
X109990729Y-110858504D01*
X111060520Y-109788716D01*
X111139577Y-109651784D01*
X111180501Y-109499057D01*
X111180501Y-109340942D01*
X111180501Y-109333347D01*
X111180500Y-109333329D01*
X111180500Y-106611692D01*
X111200185Y-106544653D01*
X111233374Y-106510119D01*
X111419139Y-106380047D01*
X111580047Y-106219139D01*
X111710568Y-106032734D01*
X111737618Y-105974724D01*
X111783790Y-105922285D01*
X111850983Y-105903133D01*
X111917865Y-105923348D01*
X111962382Y-105974725D01*
X111989429Y-106032728D01*
X111989432Y-106032734D01*
X112119954Y-106219141D01*
X112280858Y-106380045D01*
X112280861Y-106380047D01*
X112467266Y-106510568D01*
X112673504Y-106606739D01*
X112893308Y-106665635D01*
X113055230Y-106679801D01*
X113119998Y-106685468D01*
X113120000Y-106685468D01*
X113120002Y-106685468D01*
X113176673Y-106680509D01*
X113346692Y-106665635D01*
X113566496Y-106606739D01*
X113772734Y-106510568D01*
X113959139Y-106380047D01*
X114120047Y-106219139D01*
X114250118Y-106033375D01*
X114304693Y-105989752D01*
X114351692Y-105980500D01*
X114843331Y-105980500D01*
X114843347Y-105980501D01*
X114850943Y-105980501D01*
X115009054Y-105980501D01*
X115009057Y-105980501D01*
X115161785Y-105939577D01*
X115211904Y-105910639D01*
X115298716Y-105860520D01*
X115410520Y-105748716D01*
X115410520Y-105748714D01*
X115420728Y-105738507D01*
X115420730Y-105738504D01*
X117448321Y-103710912D01*
X117509642Y-103677429D01*
X117568095Y-103678821D01*
X117639924Y-103698068D01*
X117639925Y-103698068D01*
X117639932Y-103698070D01*
X117827226Y-103714455D01*
X117859998Y-103717323D01*
X117860000Y-103717323D01*
X117860002Y-103717323D01*
X117916089Y-103712416D01*
X118080068Y-103698070D01*
X118293450Y-103640894D01*
X118493662Y-103547534D01*
X118674620Y-103420826D01*
X118830826Y-103264620D01*
X118957534Y-103083662D01*
X119017618Y-102954811D01*
X119063790Y-102902371D01*
X119130983Y-102883219D01*
X119197865Y-102903435D01*
G37*
%TD.AperFunction*%
%TA.AperFunction,Conductor*%
G36*
X114939000Y-102500160D02*
G01*
X114964964Y-102597061D01*
X115015124Y-102683940D01*
X115086060Y-102754876D01*
X115172939Y-102805036D01*
X115269840Y-102831000D01*
X115292553Y-102831000D01*
X114621810Y-103501740D01*
X114686590Y-103547099D01*
X114686592Y-103547100D01*
X114886715Y-103640419D01*
X114886729Y-103640424D01*
X115100013Y-103697573D01*
X115100023Y-103697575D01*
X115319999Y-103716821D01*
X115320001Y-103716821D01*
X115445198Y-103705867D01*
X115513698Y-103719633D01*
X115563881Y-103768248D01*
X115579815Y-103836277D01*
X115556440Y-103902121D01*
X115543687Y-103917076D01*
X114717584Y-104743181D01*
X114656261Y-104776666D01*
X114629903Y-104779500D01*
X114351692Y-104779500D01*
X114284653Y-104759815D01*
X114250119Y-104726625D01*
X114120047Y-104540861D01*
X114120045Y-104540858D01*
X113959141Y-104379954D01*
X113772734Y-104249432D01*
X113772732Y-104249431D01*
X113566497Y-104153261D01*
X113566488Y-104153258D01*
X113346697Y-104094366D01*
X113346693Y-104094365D01*
X113346692Y-104094365D01*
X113346691Y-104094364D01*
X113346686Y-104094364D01*
X113120002Y-104074532D01*
X113119998Y-104074532D01*
X113037150Y-104081780D01*
X112968650Y-104068013D01*
X112918467Y-104019398D01*
X112902534Y-103951369D01*
X112925910Y-103885526D01*
X112938656Y-103870577D01*
X113128336Y-103680897D01*
X113183922Y-103648805D01*
X113213450Y-103640894D01*
X113413662Y-103547534D01*
X113594620Y-103420826D01*
X113750826Y-103264620D01*
X113877534Y-103083662D01*
X113937894Y-102954218D01*
X113984066Y-102901779D01*
X114051259Y-102882627D01*
X114118141Y-102902843D01*
X114162658Y-102954219D01*
X114222898Y-103083405D01*
X114222901Y-103083411D01*
X114268258Y-103148187D01*
X114268259Y-103148188D01*
X114939000Y-102477447D01*
X114939000Y-102500160D01*
G37*
%TD.AperFunction*%
%TA.AperFunction,Conductor*%
G36*
X114735577Y-101120185D02*
G01*
X114781332Y-101172989D01*
X114791276Y-101242147D01*
X114762251Y-101305703D01*
X114720943Y-101336882D01*
X114686590Y-101352901D01*
X114621811Y-101398258D01*
X115292553Y-102069000D01*
X115269840Y-102069000D01*
X115172939Y-102094964D01*
X115086060Y-102145124D01*
X115015124Y-102216060D01*
X114964964Y-102302939D01*
X114939000Y-102399840D01*
X114939000Y-102422553D01*
X114268258Y-101751811D01*
X114222901Y-101816590D01*
X114162658Y-101945781D01*
X114116485Y-101998220D01*
X114049292Y-102017372D01*
X113982411Y-101997156D01*
X113937894Y-101945781D01*
X113912080Y-101890423D01*
X113877534Y-101816339D01*
X113750826Y-101635380D01*
X113594620Y-101479174D01*
X113594616Y-101479171D01*
X113594615Y-101479170D01*
X113413666Y-101352468D01*
X113413658Y-101352464D01*
X113380242Y-101336882D01*
X113327802Y-101290710D01*
X113308650Y-101223517D01*
X113328865Y-101156635D01*
X113382031Y-101111301D01*
X113432646Y-101100500D01*
X114668538Y-101100500D01*
X114735577Y-101120185D01*
G37*
%TD.AperFunction*%
%TA.AperFunction,Conductor*%
G36*
X117274394Y-101120185D02*
G01*
X117320149Y-101172989D01*
X117330093Y-101242147D01*
X117301068Y-101305703D01*
X117259759Y-101336882D01*
X117226344Y-101352463D01*
X117226338Y-101352466D01*
X117045377Y-101479175D01*
X116889175Y-101635377D01*
X116762467Y-101816337D01*
X116702105Y-101945782D01*
X116655932Y-101998221D01*
X116588738Y-102017372D01*
X116521857Y-101997156D01*
X116477341Y-101945780D01*
X116417098Y-101816589D01*
X116417097Y-101816587D01*
X116371741Y-101751811D01*
X116371740Y-101751810D01*
X115701000Y-102422551D01*
X115701000Y-102399840D01*
X115675036Y-102302939D01*
X115624876Y-102216060D01*
X115553940Y-102145124D01*
X115467061Y-102094964D01*
X115370160Y-102069000D01*
X115347448Y-102069000D01*
X116018188Y-101398259D01*
X116018187Y-101398258D01*
X115953411Y-101352901D01*
X115953405Y-101352898D01*
X115919058Y-101336882D01*
X115866618Y-101290710D01*
X115847466Y-101223517D01*
X115867681Y-101156636D01*
X115920846Y-101111301D01*
X115971462Y-101100500D01*
X117207355Y-101100500D01*
X117274394Y-101120185D01*
G37*
%TD.AperFunction*%
%TD*%
%TA.AperFunction,NonConductor*%
G36*
X122354394Y-101120185D02*
G01*
X122400149Y-101172989D01*
X122410093Y-101242147D01*
X122381068Y-101305703D01*
X122339759Y-101336882D01*
X122306344Y-101352463D01*
X122306338Y-101352466D01*
X122125377Y-101479175D01*
X121969175Y-101635377D01*
X121856271Y-101796623D01*
X121801694Y-101840248D01*
X121754696Y-101849500D01*
X121585304Y-101849500D01*
X121518265Y-101829815D01*
X121483729Y-101796623D01*
X121370827Y-101635381D01*
X121326682Y-101591236D01*
X121214620Y-101479174D01*
X121214616Y-101479171D01*
X121214615Y-101479170D01*
X121033666Y-101352468D01*
X121033658Y-101352464D01*
X121000242Y-101336882D01*
X120947802Y-101290710D01*
X120928650Y-101223517D01*
X120948865Y-101156635D01*
X121002031Y-101111301D01*
X121052646Y-101100500D01*
X122287355Y-101100500D01*
X122354394Y-101120185D01*
G37*
%TD.AperFunction*%
%TA.AperFunction,NonConductor*%
G36*
X119814394Y-101120185D02*
G01*
X119860149Y-101172989D01*
X119870093Y-101242147D01*
X119841068Y-101305703D01*
X119799759Y-101336882D01*
X119766344Y-101352463D01*
X119766338Y-101352466D01*
X119585377Y-101479175D01*
X119429175Y-101635377D01*
X119302466Y-101816338D01*
X119302465Y-101816340D01*
X119242382Y-101945189D01*
X119196209Y-101997628D01*
X119129016Y-102016780D01*
X119062135Y-101996564D01*
X119017618Y-101945189D01*
X118992080Y-101890423D01*
X118957534Y-101816339D01*
X118830826Y-101635380D01*
X118674620Y-101479174D01*
X118674616Y-101479171D01*
X118674615Y-101479170D01*
X118493666Y-101352468D01*
X118493658Y-101352464D01*
X118460242Y-101336882D01*
X118407802Y-101290710D01*
X118388650Y-101223517D01*
X118408865Y-101156635D01*
X118462031Y-101111301D01*
X118512646Y-101100500D01*
X119747355Y-101100500D01*
X119814394Y-101120185D01*
G37*
%TD.AperFunction*%
%TA.AperFunction,NonConductor*%
G36*
X111577865Y-102903435D02*
G01*
X111622382Y-102954811D01*
X111676181Y-103070185D01*
X111682466Y-103083662D01*
X111764720Y-103201133D01*
X111787047Y-103267338D01*
X111770037Y-103335106D01*
X111750826Y-103359937D01*
X111022705Y-104088058D01*
X110961382Y-104121543D01*
X110902931Y-104120152D01*
X110806697Y-104094366D01*
X110806693Y-104094365D01*
X110806692Y-104094365D01*
X110806691Y-104094364D01*
X110806686Y-104094364D01*
X110580002Y-104074532D01*
X110579998Y-104074532D01*
X110497150Y-104081780D01*
X110428650Y-104068013D01*
X110378467Y-104019398D01*
X110362534Y-103951369D01*
X110385910Y-103885526D01*
X110398656Y-103870577D01*
X110588336Y-103680897D01*
X110643922Y-103648805D01*
X110673450Y-103640894D01*
X110873662Y-103547534D01*
X111054620Y-103420826D01*
X111210826Y-103264620D01*
X111337534Y-103083662D01*
X111397618Y-102954811D01*
X111443790Y-102902371D01*
X111510983Y-102883219D01*
X111577865Y-102903435D01*
G37*
%TD.AperFunction*%
%TA.AperFunction,NonConductor*%
G36*
X109037865Y-102903435D02*
G01*
X109082382Y-102954811D01*
X109136181Y-103070185D01*
X109142466Y-103083662D01*
X109224720Y-103201133D01*
X109247047Y-103267338D01*
X109230037Y-103335106D01*
X109210826Y-103359937D01*
X108482705Y-104088058D01*
X108421382Y-104121543D01*
X108362931Y-104120152D01*
X108266697Y-104094366D01*
X108266693Y-104094365D01*
X108266692Y-104094365D01*
X108266691Y-104094364D01*
X108266686Y-104094364D01*
X108040002Y-104074532D01*
X108039998Y-104074532D01*
X107813313Y-104094364D01*
X107813302Y-104094366D01*
X107593511Y-104153258D01*
X107593502Y-104153261D01*
X107387267Y-104249431D01*
X107387265Y-104249432D01*
X107200858Y-104379954D01*
X107039954Y-104540858D01*
X106909432Y-104727265D01*
X106909431Y-104727267D01*
X106882382Y-104785275D01*
X106836209Y-104837714D01*
X106769016Y-104856866D01*
X106702135Y-104836650D01*
X106657618Y-104785275D01*
X106654925Y-104779500D01*
X106630568Y-104727266D01*
X106500047Y-104540861D01*
X106500045Y-104540858D01*
X106339141Y-104379954D01*
X106152734Y-104249432D01*
X106152732Y-104249431D01*
X105946497Y-104153261D01*
X105946488Y-104153258D01*
X105726697Y-104094366D01*
X105726693Y-104094365D01*
X105726692Y-104094365D01*
X105726691Y-104094364D01*
X105726686Y-104094364D01*
X105500002Y-104074532D01*
X105499998Y-104074532D01*
X105273313Y-104094364D01*
X105273302Y-104094366D01*
X105053511Y-104153258D01*
X105053506Y-104153260D01*
X105053504Y-104153261D01*
X105020933Y-104168449D01*
X104951856Y-104178940D01*
X104888073Y-104150420D01*
X104849833Y-104091943D01*
X104849280Y-104022075D01*
X104880847Y-103968387D01*
X105762416Y-103086819D01*
X105823739Y-103053334D01*
X105850097Y-103050500D01*
X106514695Y-103050500D01*
X106581734Y-103070185D01*
X106616270Y-103103377D01*
X106652511Y-103155134D01*
X106729170Y-103264615D01*
X106729175Y-103264621D01*
X106885378Y-103420824D01*
X106885384Y-103420829D01*
X107066333Y-103547531D01*
X107066335Y-103547532D01*
X107066338Y-103547534D01*
X107266550Y-103640894D01*
X107479932Y-103698070D01*
X107626743Y-103710914D01*
X107699998Y-103717323D01*
X107700000Y-103717323D01*
X107700002Y-103717323D01*
X107756089Y-103712416D01*
X107920068Y-103698070D01*
X108133450Y-103640894D01*
X108333662Y-103547534D01*
X108514620Y-103420826D01*
X108670826Y-103264620D01*
X108797534Y-103083662D01*
X108857618Y-102954811D01*
X108903790Y-102902371D01*
X108970983Y-102883219D01*
X109037865Y-102903435D01*
G37*
%TD.AperFunction*%
%TA.AperFunction,NonConductor*%
G36*
X111607941Y-100020185D02*
G01*
X111653696Y-100072989D01*
X111663640Y-100142147D01*
X111634615Y-100205703D01*
X111628583Y-100212181D01*
X110651679Y-101189084D01*
X110590356Y-101222569D01*
X110531906Y-101221178D01*
X110460076Y-101201932D01*
X110460073Y-101201931D01*
X110460068Y-101201930D01*
X110460065Y-101201929D01*
X110460062Y-101201929D01*
X110240002Y-101182677D01*
X110239998Y-101182677D01*
X110019937Y-101201929D01*
X110019929Y-101201930D01*
X109806554Y-101259104D01*
X109806548Y-101259107D01*
X109606340Y-101352465D01*
X109606338Y-101352466D01*
X109425377Y-101479175D01*
X109269175Y-101635377D01*
X109142466Y-101816338D01*
X109142465Y-101816340D01*
X109082382Y-101945189D01*
X109036209Y-101997628D01*
X108969016Y-102016780D01*
X108902135Y-101996564D01*
X108857618Y-101945189D01*
X108832080Y-101890423D01*
X108797534Y-101816339D01*
X108670826Y-101635380D01*
X108514620Y-101479174D01*
X108514616Y-101479171D01*
X108514615Y-101479170D01*
X108333666Y-101352468D01*
X108333662Y-101352466D01*
X108333656Y-101352463D01*
X108133450Y-101259106D01*
X108133447Y-101259105D01*
X108133445Y-101259104D01*
X107920070Y-101201930D01*
X107920062Y-101201929D01*
X107700002Y-101182677D01*
X107699998Y-101182677D01*
X107479937Y-101201929D01*
X107479929Y-101201930D01*
X107266554Y-101259104D01*
X107266548Y-101259107D01*
X107066340Y-101352465D01*
X107066338Y-101352466D01*
X106885377Y-101479175D01*
X106729175Y-101635377D01*
X106616271Y-101796623D01*
X106561694Y-101840248D01*
X106514696Y-101849500D01*
X105636669Y-101849500D01*
X105636653Y-101849499D01*
X105629057Y-101849499D01*
X105470943Y-101849499D01*
X105363587Y-101878265D01*
X105318210Y-101890424D01*
X105318209Y-101890425D01*
X105268096Y-101919359D01*
X105268095Y-101919360D01*
X105224689Y-101944420D01*
X105181285Y-101969479D01*
X105181282Y-101969481D01*
X97712181Y-109438583D01*
X97650858Y-109472068D01*
X97581166Y-109467084D01*
X97525233Y-109425212D01*
X97500816Y-109359748D01*
X97500500Y-109350902D01*
X97500500Y-102450000D01*
X97844475Y-102450000D01*
X97864551Y-102743511D01*
X97864552Y-102743513D01*
X97924404Y-103031543D01*
X97924409Y-103031559D01*
X98022927Y-103308762D01*
X98158278Y-103569977D01*
X98158282Y-103569983D01*
X98327932Y-103810323D01*
X98384200Y-103870571D01*
X98525695Y-104022075D01*
X98528743Y-104025338D01*
X98610612Y-104091943D01*
X98756951Y-104210999D01*
X98756953Y-104211000D01*
X98756954Y-104211001D01*
X99008319Y-104363860D01*
X99008324Y-104363862D01*
X99278154Y-104481065D01*
X99278159Y-104481067D01*
X99561445Y-104560440D01*
X99817681Y-104595659D01*
X99852901Y-104600500D01*
X99852902Y-104600500D01*
X100147099Y-104600500D01*
X100178520Y-104596180D01*
X100438555Y-104560440D01*
X100721841Y-104481067D01*
X100991682Y-104363859D01*
X101243049Y-104210999D01*
X101471260Y-104025335D01*
X101672065Y-103810326D01*
X101841722Y-103569976D01*
X101977072Y-103308764D01*
X102075592Y-103031554D01*
X102075592Y-103031549D01*
X102075595Y-103031543D01*
X102114668Y-102843511D01*
X102135448Y-102743511D01*
X102155525Y-102450000D01*
X102135448Y-102156489D01*
X102106369Y-102016554D01*
X102075595Y-101868456D01*
X102075590Y-101868440D01*
X101992761Y-101635381D01*
X101977072Y-101591236D01*
X101841722Y-101330024D01*
X101841721Y-101330022D01*
X101841717Y-101330016D01*
X101672067Y-101089676D01*
X101471256Y-100874661D01*
X101243045Y-100688998D01*
X100991680Y-100536139D01*
X100991675Y-100536137D01*
X100721845Y-100418934D01*
X100438560Y-100339561D01*
X100438556Y-100339560D01*
X100438555Y-100339560D01*
X100292826Y-100319530D01*
X100147099Y-100299500D01*
X100147098Y-100299500D01*
X99852902Y-100299500D01*
X99852901Y-100299500D01*
X99561445Y-100339560D01*
X99561439Y-100339561D01*
X99278154Y-100418934D01*
X99008324Y-100536137D01*
X99008319Y-100536139D01*
X98756954Y-100688998D01*
X98528743Y-100874661D01*
X98327932Y-101089676D01*
X98158282Y-101330016D01*
X98158278Y-101330022D01*
X98022927Y-101591237D01*
X97924409Y-101868440D01*
X97924404Y-101868456D01*
X97864552Y-102156486D01*
X97864551Y-102156488D01*
X97844475Y-102450000D01*
X97500500Y-102450000D01*
X97500500Y-101005413D01*
X97500972Y-100994606D01*
X97506265Y-100934108D01*
X97514739Y-100837242D01*
X97518490Y-100815966D01*
X97557969Y-100668627D01*
X97565362Y-100648318D01*
X97629823Y-100510081D01*
X97640629Y-100491366D01*
X97728119Y-100366417D01*
X97742007Y-100349865D01*
X97849865Y-100242007D01*
X97866417Y-100228119D01*
X97991366Y-100140629D01*
X98010081Y-100129823D01*
X98148320Y-100065361D01*
X98168627Y-100057969D01*
X98315966Y-100018490D01*
X98337242Y-100014739D01*
X98469885Y-100003134D01*
X98494606Y-100000972D01*
X98505413Y-100000500D01*
X98565892Y-100000500D01*
X111540902Y-100000500D01*
X111607941Y-100020185D01*
G37*
%TD.AperFunction*%
%TA.AperFunction,NonConductor*%
G36*
X109377865Y-105923348D02*
G01*
X109422382Y-105974725D01*
X109449429Y-106032728D01*
X109449432Y-106032734D01*
X109579954Y-106219141D01*
X109740858Y-106380045D01*
X109740861Y-106380047D01*
X109926624Y-106510118D01*
X109970248Y-106564693D01*
X109979500Y-106611692D01*
X109979500Y-109119902D01*
X109959815Y-109186941D01*
X109943181Y-109207583D01*
X109287584Y-109863181D01*
X109226261Y-109896666D01*
X109199903Y-109899500D01*
X104086670Y-109899500D01*
X104086654Y-109899499D01*
X104079058Y-109899499D01*
X103920943Y-109899499D01*
X103855850Y-109916941D01*
X103768214Y-109940423D01*
X103768209Y-109940426D01*
X103631290Y-110019475D01*
X103631282Y-110019481D01*
X102519481Y-111131282D01*
X102519479Y-111131285D01*
X102469361Y-111218094D01*
X102469359Y-111218096D01*
X102440425Y-111268209D01*
X102440424Y-111268210D01*
X102440423Y-111268215D01*
X102399499Y-111420943D01*
X102399499Y-111420945D01*
X102399499Y-111589046D01*
X102399500Y-111589059D01*
X102399500Y-115031272D01*
X102379815Y-115098311D01*
X102363181Y-115118953D01*
X101949681Y-115532453D01*
X101888358Y-115565938D01*
X101818666Y-115560954D01*
X101762733Y-115519082D01*
X101738316Y-115453618D01*
X101738000Y-115444772D01*
X101738000Y-115145945D01*
X101738000Y-115145943D01*
X101697077Y-114993216D01*
X101695539Y-114990552D01*
X101618024Y-114856290D01*
X101618018Y-114856282D01*
X101506217Y-114744481D01*
X101506209Y-114744475D01*
X101369290Y-114665426D01*
X101369286Y-114665424D01*
X101369284Y-114665423D01*
X101216557Y-114624500D01*
X101216556Y-114624500D01*
X100986500Y-114624500D01*
X100919461Y-114604815D01*
X100873706Y-114552011D01*
X100862500Y-114500500D01*
X100862500Y-110918096D01*
X100882185Y-110851057D01*
X100898814Y-110830420D01*
X105057294Y-106671939D01*
X105118615Y-106638456D01*
X105177066Y-106639847D01*
X105196604Y-106645082D01*
X105273308Y-106665635D01*
X105435230Y-106679801D01*
X105499998Y-106685468D01*
X105500000Y-106685468D01*
X105500002Y-106685468D01*
X105556673Y-106680509D01*
X105726692Y-106665635D01*
X105946496Y-106606739D01*
X106152734Y-106510568D01*
X106339139Y-106380047D01*
X106500047Y-106219139D01*
X106630568Y-106032734D01*
X106657618Y-105974724D01*
X106703790Y-105922285D01*
X106770983Y-105903133D01*
X106837865Y-105923348D01*
X106882382Y-105974725D01*
X106909429Y-106032728D01*
X106909432Y-106032734D01*
X107039954Y-106219141D01*
X107200858Y-106380045D01*
X107200861Y-106380047D01*
X107387266Y-106510568D01*
X107593504Y-106606739D01*
X107813308Y-106665635D01*
X107975230Y-106679801D01*
X108039998Y-106685468D01*
X108040000Y-106685468D01*
X108040002Y-106685468D01*
X108096673Y-106680509D01*
X108266692Y-106665635D01*
X108486496Y-106606739D01*
X108692734Y-106510568D01*
X108879139Y-106380047D01*
X109040047Y-106219139D01*
X109170568Y-106032734D01*
X109197618Y-105974724D01*
X109243790Y-105922285D01*
X109310983Y-105903133D01*
X109377865Y-105923348D01*
G37*
%TD.AperFunction*%
%TA.AperFunction,NonConductor*%
G36*
X106217942Y-114320184D02*
G01*
X106263697Y-114372988D01*
X106273641Y-114442146D01*
X106244616Y-114505702D01*
X106238584Y-114512180D01*
X104042705Y-116708058D01*
X103981382Y-116741543D01*
X103922931Y-116740152D01*
X103826697Y-116714366D01*
X103826687Y-116714364D01*
X103731297Y-116706019D01*
X103666229Y-116680566D01*
X103625250Y-116623976D01*
X103621372Y-116554214D01*
X103654424Y-116494810D01*
X104664667Y-115484568D01*
X105812417Y-114336818D01*
X105873740Y-114303333D01*
X105900098Y-114300499D01*
X106150903Y-114300499D01*
X106217942Y-114320184D01*
G37*
%TD.AperFunction*%
%TA.AperFunction,NonConductor*%
G36*
X104219400Y-104732348D02*
G01*
X104275333Y-104774220D01*
X104299750Y-104839684D01*
X104288449Y-104900934D01*
X104273260Y-104933506D01*
X104273258Y-104933511D01*
X104214366Y-105153302D01*
X104214364Y-105153313D01*
X104194532Y-105379998D01*
X104194532Y-105380001D01*
X104214364Y-105606686D01*
X104214366Y-105606697D01*
X104240152Y-105702931D01*
X104238489Y-105772781D01*
X104208058Y-105822705D01*
X99893286Y-110137478D01*
X99781481Y-110249282D01*
X99781479Y-110249285D01*
X99731361Y-110336094D01*
X99731359Y-110336096D01*
X99702425Y-110386209D01*
X99702424Y-110386210D01*
X99702423Y-110386215D01*
X99661499Y-110538943D01*
X99661499Y-110538945D01*
X99661499Y-110707046D01*
X99661500Y-110707059D01*
X99661500Y-114500500D01*
X99641815Y-114567539D01*
X99589011Y-114613294D01*
X99537500Y-114624500D01*
X99283443Y-114624500D01*
X99130716Y-114665423D01*
X99130709Y-114665426D01*
X98993790Y-114744475D01*
X98993782Y-114744481D01*
X98881981Y-114856282D01*
X98881975Y-114856290D01*
X98802926Y-114993209D01*
X98802923Y-114993216D01*
X98762000Y-115145943D01*
X98762000Y-116379057D01*
X98793455Y-116496447D01*
X98802923Y-116531783D01*
X98802923Y-116531784D01*
X98836240Y-116589492D01*
X98852711Y-116657393D01*
X98829858Y-116723419D01*
X98774937Y-116766609D01*
X98760953Y-116771264D01*
X98753513Y-116773257D01*
X98753502Y-116773261D01*
X98547267Y-116869431D01*
X98547261Y-116869435D01*
X98517966Y-116889947D01*
X98451760Y-116912274D01*
X98383993Y-116895262D01*
X98336181Y-116844313D01*
X98322845Y-116788371D01*
X98322845Y-110577752D01*
X98342530Y-110510713D01*
X98359164Y-110490071D01*
X101099735Y-107749500D01*
X104088387Y-104760847D01*
X104149708Y-104727364D01*
X104219400Y-104732348D01*
G37*
%TD.AperFunction*%
%TA.AperFunction,NonConductor*%
G36*
X117110923Y-122370185D02*
G01*
X117156678Y-122422989D01*
X117157440Y-122424689D01*
X117175827Y-122466608D01*
X117311833Y-122674782D01*
X117311836Y-122674785D01*
X117480256Y-122857738D01*
X117634316Y-122977648D01*
X117675128Y-123034357D01*
X117678803Y-123104130D01*
X117644172Y-123164813D01*
X117582230Y-123197140D01*
X117558153Y-123199500D01*
X112941847Y-123199500D01*
X112874808Y-123179815D01*
X112829053Y-123127011D01*
X112819109Y-123057853D01*
X112848134Y-122994297D01*
X112865678Y-122977651D01*
X113019744Y-122857738D01*
X113188164Y-122674785D01*
X113324173Y-122466607D01*
X113342560Y-122424689D01*
X113387517Y-122371204D01*
X113454253Y-122350514D01*
X113456116Y-122350500D01*
X117043884Y-122350500D01*
X117110923Y-122370185D01*
G37*
%TD.AperFunction*%
%TA.AperFunction,NonConductor*%
G36*
X116168176Y-128716223D02*
G01*
X116175353Y-128716642D01*
X116747293Y-128766681D01*
X116837646Y-128774586D01*
X116844810Y-128775423D01*
X116907372Y-128784586D01*
X117502662Y-128871783D01*
X117509703Y-128873025D01*
X118160826Y-129007471D01*
X118167818Y-129009128D01*
X118810027Y-129181207D01*
X118816921Y-129183271D01*
X119448008Y-129392391D01*
X119454784Y-129394857D01*
X120072653Y-129640321D01*
X120079258Y-129643170D01*
X120471211Y-129825940D01*
X120681800Y-129924140D01*
X120688245Y-129927377D01*
X121273430Y-130242906D01*
X121279677Y-130246513D01*
X121845525Y-130595533D01*
X121851552Y-130599496D01*
X122396150Y-130980828D01*
X122401935Y-130985136D01*
X122923435Y-131397486D01*
X122928961Y-131402122D01*
X123425609Y-131844100D01*
X123430855Y-131849050D01*
X123900949Y-132319144D01*
X123905899Y-132324390D01*
X124347877Y-132821038D01*
X124352513Y-132826564D01*
X124764863Y-133348064D01*
X124769171Y-133353849D01*
X125150503Y-133898447D01*
X125154466Y-133904474D01*
X125503486Y-134470322D01*
X125507093Y-134476569D01*
X125822622Y-135061754D01*
X125825859Y-135068199D01*
X126106825Y-135670732D01*
X126109682Y-135677355D01*
X126355141Y-136295213D01*
X126357608Y-136301991D01*
X126566725Y-136933070D01*
X126568794Y-136939980D01*
X126740868Y-137582168D01*
X126742531Y-137589187D01*
X126876968Y-138240264D01*
X126878220Y-138247364D01*
X126878504Y-138249298D01*
X126974576Y-138905189D01*
X126975413Y-138912353D01*
X127033356Y-139574635D01*
X127033776Y-139581835D01*
X127053113Y-140246393D01*
X127053113Y-140253607D01*
X127033776Y-140918164D01*
X127033356Y-140925364D01*
X126975413Y-141587646D01*
X126974576Y-141594810D01*
X126878221Y-142252631D01*
X126876968Y-142259735D01*
X126742531Y-142910812D01*
X126740868Y-142917831D01*
X126568794Y-143560019D01*
X126566725Y-143566929D01*
X126357608Y-144198008D01*
X126355141Y-144204786D01*
X126109682Y-144822644D01*
X126106825Y-144829267D01*
X125825859Y-145431800D01*
X125822622Y-145438245D01*
X125507093Y-146023430D01*
X125503486Y-146029677D01*
X125154466Y-146595525D01*
X125150503Y-146601552D01*
X124769171Y-147146150D01*
X124764863Y-147151935D01*
X124352513Y-147673435D01*
X124347877Y-147678961D01*
X123905899Y-148175609D01*
X123900949Y-148180855D01*
X123430855Y-148650949D01*
X123425609Y-148655899D01*
X122928961Y-149097877D01*
X122923435Y-149102513D01*
X122401935Y-149514863D01*
X122396150Y-149519171D01*
X121851552Y-149900503D01*
X121845525Y-149904466D01*
X121279677Y-150253486D01*
X121273430Y-150257093D01*
X120688245Y-150572622D01*
X120681800Y-150575859D01*
X120079267Y-150856825D01*
X120072644Y-150859682D01*
X119454786Y-151105141D01*
X119448008Y-151107608D01*
X118816929Y-151316725D01*
X118810019Y-151318794D01*
X118167831Y-151490868D01*
X118160812Y-151492531D01*
X117509735Y-151626968D01*
X117502631Y-151628221D01*
X116844810Y-151724576D01*
X116837646Y-151725413D01*
X116175364Y-151783356D01*
X116168164Y-151783776D01*
X115503607Y-151803113D01*
X115496393Y-151803113D01*
X114831835Y-151783776D01*
X114824635Y-151783356D01*
X114162353Y-151725413D01*
X114155189Y-151724576D01*
X113517160Y-151631120D01*
X113497364Y-151628220D01*
X113490269Y-151626968D01*
X113240206Y-151575335D01*
X112839187Y-151492531D01*
X112832168Y-151490868D01*
X112189980Y-151318794D01*
X112183070Y-151316725D01*
X111551991Y-151107608D01*
X111545213Y-151105141D01*
X110927355Y-150859682D01*
X110920732Y-150856825D01*
X110318199Y-150575859D01*
X110311754Y-150572622D01*
X109726569Y-150257093D01*
X109720322Y-150253486D01*
X109154474Y-149904466D01*
X109148447Y-149900503D01*
X108603849Y-149519171D01*
X108598064Y-149514863D01*
X108076564Y-149102513D01*
X108071038Y-149097877D01*
X107574390Y-148655899D01*
X107569144Y-148650949D01*
X107099050Y-148180855D01*
X107094100Y-148175609D01*
X106652122Y-147678961D01*
X106647486Y-147673435D01*
X106235136Y-147151935D01*
X106230828Y-147146150D01*
X105849496Y-146601552D01*
X105845533Y-146595525D01*
X105496513Y-146029677D01*
X105492906Y-146023430D01*
X105177377Y-145438245D01*
X105174140Y-145431800D01*
X104893174Y-144829267D01*
X104890317Y-144822644D01*
X104734750Y-144431059D01*
X104644857Y-144204784D01*
X104642391Y-144198008D01*
X104433274Y-143566929D01*
X104431205Y-143560019D01*
X104299084Y-143066937D01*
X104259128Y-142917818D01*
X104257468Y-142910812D01*
X104123025Y-142259703D01*
X104121783Y-142252662D01*
X104025423Y-141594810D01*
X104024586Y-141587646D01*
X103998755Y-141292395D01*
X103966642Y-140925353D01*
X103966223Y-140918164D01*
X103953930Y-140495675D01*
X103946886Y-140253574D01*
X103946886Y-140246425D01*
X103966223Y-139581821D01*
X103966643Y-139574635D01*
X103969657Y-139540193D01*
X104024586Y-138912351D01*
X104025423Y-138905189D01*
X104036055Y-138832605D01*
X104121784Y-138247331D01*
X104123024Y-138240302D01*
X104257472Y-137589166D01*
X104259125Y-137582189D01*
X104431210Y-136939962D01*
X104433268Y-136933088D01*
X104642395Y-136301978D01*
X104644858Y-136295213D01*
X104890326Y-135677333D01*
X104893164Y-135670753D01*
X105174144Y-135068190D01*
X105177377Y-135061754D01*
X105341491Y-134757386D01*
X105492912Y-134476557D01*
X105496513Y-134470322D01*
X105845533Y-133904474D01*
X105849483Y-133898466D01*
X106230844Y-133353826D01*
X106235136Y-133348064D01*
X106647486Y-132826564D01*
X106652122Y-132821038D01*
X107094117Y-132324371D01*
X107099033Y-132319161D01*
X107569161Y-131849033D01*
X107574371Y-131844117D01*
X108071040Y-131402119D01*
X108076564Y-131397486D01*
X108598064Y-130985136D01*
X108603826Y-130980844D01*
X109148466Y-130599483D01*
X109154474Y-130595533D01*
X109720322Y-130246513D01*
X109726557Y-130242912D01*
X110311754Y-129927377D01*
X110318190Y-129924144D01*
X110920753Y-129643164D01*
X110927333Y-129640326D01*
X111545226Y-129394852D01*
X111551978Y-129392395D01*
X112183088Y-129183268D01*
X112189962Y-129181210D01*
X112832189Y-129009125D01*
X112839166Y-129007472D01*
X113490302Y-128873024D01*
X113497331Y-128871784D01*
X114155190Y-128775422D01*
X114162353Y-128774586D01*
X114824648Y-128716642D01*
X114831821Y-128716223D01*
X115496426Y-128696886D01*
X115503574Y-128696886D01*
X116168176Y-128716223D01*
G37*
%TD.AperFunction*%
M02*
